solid 
 facet normal -1.000000e+00  0.000000e+00  0.000000e+00
   outer loop
     vertex -1.100000e+01 -1.500000e+00 -1.930000e+01
     vertex -1.100000e+01  1.500000e+00 -2.000000e+01
     vertex -1.100000e+01 -1.500000e+00 -2.000000e+01
   endloop
 endfacet
 facet normal -1.000000e+00  0.000000e+00  0.000000e+00
   outer loop
     vertex -1.100000e+01 -1.500000e+00 -1.930000e+01
     vertex -1.100000e+01  1.500000e+00 -1.930000e+01
     vertex -1.100000e+01  1.500000e+00 -2.000000e+01
   endloop
 endfacet
 facet normal  0.000000e+00 -1.000000e+00  0.000000e+00
   outer loop
     vertex -7.500000e-01 -1.500000e+00 -2.000000e+01
     vertex -1.100000e+01 -1.500000e+00 -1.930000e+01
     vertex -1.100000e+01 -1.500000e+00 -2.000000e+01
   endloop
 endfacet
 facet normal  0.000000e+00 -1.000000e+00  0.000000e+00
   outer loop
     vertex -7.500000e-01 -1.500000e+00  1.600000e+01
     vertex -1.100000e+01 -1.500000e+00  1.530000e+01
     vertex -1.100000e+01 -1.500000e+00 -1.930000e+01
   endloop
 endfacet
 facet normal -0.000000e+00 -1.000000e+00  0.000000e+00
   outer loop
     vertex -7.500000e-01 -1.500000e+00  1.600000e+01
     vertex -1.030000e+01 -1.500000e+00  1.600000e+01
     vertex -1.100000e+01 -1.500000e+00  1.530000e+01
   endloop
 endfacet
 facet normal  0.000000e+00 -1.000000e+00 -0.000000e+00
   outer loop
     vertex -7.500000e-01 -1.500000e+00  1.600000e+01
     vertex -1.100000e+01 -1.500000e+00 -1.930000e+01
     vertex -7.500000e-01 -1.500000e+00 -2.000000e+01
   endloop
 endfacet
 facet normal  7.071068e-01 -6.978189e-16 -7.071068e-01
   outer loop
     vertex -1.100000e+01 -1.500000e+00 -1.930000e+01
     vertex -1.100000e+01 -3.300000e+00 -1.930000e+01
     vertex -1.170000e+01 -3.300000e+00 -2.000000e+01
   endloop
 endfacet
 facet normal  7.071068e-01  0.000000e+00 -7.071068e-01
   outer loop
     vertex -1.170000e+01  3.300000e+00 -2.000000e+01
     vertex -1.100000e+01  1.500000e+00 -1.930000e+01
     vertex -1.100000e+01 -1.500000e+00 -1.930000e+01
   endloop
 endfacet
 facet normal  7.071068e-01  0.000000e+00 -7.071068e-01
   outer loop
     vertex -1.170000e+01  3.300000e+00 -2.000000e+01
     vertex -1.100000e+01 -1.500000e+00 -1.930000e+01
     vertex -1.170000e+01 -3.300000e+00 -2.000000e+01
   endloop
 endfacet
 facet normal  7.071068e-01  6.978189e-16 -7.071068e-01
   outer loop
     vertex -1.100000e+01  3.300000e+00 -1.930000e+01
     vertex -1.100000e+01  1.500000e+00 -1.930000e+01
     vertex -1.170000e+01  3.300000e+00 -2.000000e+01
   endloop
 endfacet
 facet normal  0.000000e+00  1.000000e+00  0.000000e+00
   outer loop
     vertex -7.500000e-01  1.500000e+00 -2.000000e+01
     vertex -1.100000e+01  1.500000e+00 -2.000000e+01
     vertex -1.100000e+01  1.500000e+00 -1.930000e+01
   endloop
 endfacet
 facet normal  0.000000e+00  1.000000e+00  0.000000e+00
   outer loop
     vertex -7.500000e-01  1.500000e+00  1.600000e+01
     vertex -1.100000e+01  1.500000e+00 -1.930000e+01
     vertex -1.100000e+01  1.500000e+00  1.530000e+01
   endloop
 endfacet
 facet normal  0.000000e+00  1.000000e+00  0.000000e+00
   outer loop
     vertex -7.500000e-01  1.500000e+00  1.600000e+01
     vertex -1.100000e+01  1.500000e+00  1.530000e+01
     vertex -1.030000e+01  1.500000e+00  1.600000e+01
   endloop
 endfacet
 facet normal  0.000000e+00  1.000000e+00  0.000000e+00
   outer loop
     vertex -7.500000e-01  1.500000e+00  1.600000e+01
     vertex -7.500000e-01  1.500000e+00 -2.000000e+01
     vertex -1.100000e+01  1.500000e+00 -1.930000e+01
   endloop
 endfacet
 facet normal  0.000000e+00 -0.000000e+00 -1.000000e+00
   outer loop
     vertex -7.500000e-01 -1.350000e+00 -2.000000e+01
     vertex -7.500000e-01 -1.500000e+00 -2.000000e+01
     vertex -1.100000e+01 -1.500000e+00 -2.000000e+01
   endloop
 endfacet
 facet normal -0.000000e+00  0.000000e+00 -1.000000e+00
   outer loop
     vertex -7.500000e-01  1.350000e+00 -2.000000e+01
     vertex -1.100000e+01 -1.500000e+00 -2.000000e+01
     vertex -1.100000e+01  1.500000e+00 -2.000000e+01
   endloop
 endfacet
 facet normal  0.000000e+00 -0.000000e+00 -1.000000e+00
   outer loop
     vertex -7.500000e-01  1.350000e+00 -2.000000e+01
     vertex -7.500000e-01 -1.350000e+00 -2.000000e+01
     vertex -1.100000e+01 -1.500000e+00 -2.000000e+01
   endloop
 endfacet
 facet normal  0.000000e+00 -0.000000e+00 -1.000000e+00
   outer loop
     vertex -1.500000e-01  7.500000e-01 -2.000000e+01
     vertex -1.500000e-01 -7.500000e-01 -2.000000e+01
     vertex -7.500000e-01 -1.350000e+00 -2.000000e+01
   endloop
 endfacet
 facet normal -0.000000e+00  0.000000e+00 -1.000000e+00
   outer loop
     vertex -1.500000e-01  7.500000e-01 -2.000000e+01
     vertex -7.500000e-01 -1.350000e+00 -2.000000e+01
     vertex -7.500000e-01  1.350000e+00 -2.000000e+01
   endloop
 endfacet
 facet normal -0.000000e+00 -0.000000e+00 -1.000000e+00
   outer loop
     vertex -7.500000e-01  1.500000e+00 -2.000000e+01
     vertex -7.500000e-01  1.350000e+00 -2.000000e+01
     vertex -1.100000e+01  1.500000e+00 -2.000000e+01
   endloop
 endfacet
 facet normal  0.000000e+00 -0.000000e+00 -1.000000e+00
   outer loop
     vertex  1.500000e-01  7.500000e-01 -2.000000e+01
     vertex  1.500000e-01 -7.500000e-01 -2.000000e+01
     vertex -1.500000e-01 -7.500000e-01 -2.000000e+01
   endloop
 endfacet
 facet normal  0.000000e+00  0.000000e+00 -1.000000e+00
   outer loop
     vertex  1.500000e-01  7.500000e-01 -2.000000e+01
     vertex  7.500000e-01 -1.350000e+00 -2.000000e+01
     vertex  1.500000e-01 -7.500000e-01 -2.000000e+01
   endloop
 endfacet
 facet normal -0.000000e+00  0.000000e+00 -1.000000e+00
   outer loop
     vertex  1.500000e-01  7.500000e-01 -2.000000e+01
     vertex -1.500000e-01 -7.500000e-01 -2.000000e+01
     vertex -1.500000e-01  7.500000e-01 -2.000000e+01
   endloop
 endfacet
 facet normal  0.000000e+00 -0.000000e+00 -1.000000e+00
   outer loop
     vertex  7.500000e-01  1.350000e+00 -2.000000e+01
     vertex  7.500000e-01 -1.350000e+00 -2.000000e+01
     vertex  1.500000e-01  7.500000e-01 -2.000000e+01
   endloop
 endfacet
 facet normal  0.000000e+00  0.000000e+00 -1.000000e+00
   outer loop
     vertex  1.100000e+01 -1.500000e+00 -2.000000e+01
     vertex  7.500000e-01 -1.500000e+00 -2.000000e+01
     vertex  7.500000e-01 -1.350000e+00 -2.000000e+01
   endloop
 endfacet
 facet normal -0.000000e+00  0.000000e+00 -1.000000e+00
   outer loop
     vertex  1.100000e+01  1.500000e+00 -2.000000e+01
     vertex  7.500000e-01  1.350000e+00 -2.000000e+01
     vertex  7.500000e-01  1.500000e+00 -2.000000e+01
   endloop
 endfacet
 facet normal  0.000000e+00 -0.000000e+00 -1.000000e+00
   outer loop
     vertex  1.100000e+01  1.500000e+00 -2.000000e+01
     vertex  1.100000e+01 -1.500000e+00 -2.000000e+01
     vertex  7.500000e-01 -1.350000e+00 -2.000000e+01
   endloop
 endfacet
 facet normal  0.000000e+00  0.000000e+00 -1.000000e+00
   outer loop
     vertex  1.100000e+01  1.500000e+00 -2.000000e+01
     vertex  7.500000e-01 -1.350000e+00 -2.000000e+01
     vertex  7.500000e-01  1.350000e+00 -2.000000e+01
   endloop
 endfacet
 facet normal  1.000000e+00  0.000000e+00  0.000000e+00
   outer loop
     vertex -7.500000e-01 -1.500000e+00  1.600000e+01
     vertex -7.500000e-01 -1.500000e+00 -2.000000e+01
     vertex -7.500000e-01 -1.350000e+00 -2.000000e+01
   endloop
 endfacet
 facet normal  1.000000e+00 -0.000000e+00  0.000000e+00
   outer loop
     vertex -7.500000e-01 -1.500000e+00  1.600000e+01
     vertex -7.500000e-01 -1.350000e+00 -2.000000e+01
     vertex -7.500000e-01 -1.350000e+00  1.600000e+01
   endloop
 endfacet
 facet normal -0.000000e+00  0.000000e+00 -1.000000e+00
   outer loop
     vertex -7.500000e-01 -1.500000e+00  1.600000e+01
     vertex -1.030000e+01 -3.300000e+00  1.600000e+01
     vertex -1.030000e+01 -1.500000e+00  1.600000e+01
   endloop
 endfacet
 facet normal  0.000000e+00  0.000000e+00 -1.000000e+00
   outer loop
     vertex -1.500000e-01 -7.500000e-01  1.600000e+01
     vertex -7.500000e-01 -1.500000e+00  1.600000e+01
     vertex -7.500000e-01 -1.350000e+00  1.600000e+01
   endloop
 endfacet
 facet normal -0.000000e+00  0.000000e+00 -1.000000e+00
   outer loop
     vertex  7.500000e-01 -1.500000e+00  1.600000e+01
     vertex -1.030000e+01 -3.300000e+00  1.600000e+01
     vertex -7.500000e-01 -1.500000e+00  1.600000e+01
   endloop
 endfacet
 facet normal  0.000000e+00  0.000000e+00 -1.000000e+00
   outer loop
     vertex  1.500000e-01 -7.500000e-01  1.600000e+01
     vertex  7.500000e-01 -1.350000e+00  1.600000e+01
     vertex  7.500000e-01 -1.500000e+00  1.600000e+01
   endloop
 endfacet
 facet normal -0.000000e+00  0.000000e+00 -1.000000e+00
   outer loop
     vertex  1.500000e-01 -7.500000e-01  1.600000e+01
     vertex -7.500000e-01 -1.500000e+00  1.600000e+01
     vertex -1.500000e-01 -7.500000e-01  1.600000e+01
   endloop
 endfacet
 facet normal  0.000000e+00 -0.000000e+00 -1.000000e+00
   outer loop
     vertex  1.500000e-01 -7.500000e-01  1.600000e+01
     vertex  7.500000e-01 -1.500000e+00  1.600000e+01
     vertex -7.500000e-01 -1.500000e+00  1.600000e+01
   endloop
 endfacet
 facet normal  0.000000e+00  0.000000e+00 -1.000000e+00
   outer loop
     vertex  1.030000e+01 -3.300000e+00  1.600000e+01
     vertex -1.030000e+01 -3.300000e+00  1.600000e+01
     vertex  7.500000e-01 -1.500000e+00  1.600000e+01
   endloop
 endfacet
 facet normal -0.000000e+00 -0.000000e+00 -1.000000e+00
   outer loop
     vertex  1.030000e+01 -1.500000e+00  1.600000e+01
     vertex  1.030000e+01 -3.300000e+00  1.600000e+01
     vertex  7.500000e-01 -1.500000e+00  1.600000e+01
   endloop
 endfacet
 facet normal  7.071068e-01  0.000000e+00 -7.071068e-01
   outer loop
     vertex -1.100000e+01 -1.500000e+00  1.530000e+01
     vertex -1.030000e+01 -3.300000e+00  1.600000e+01
     vertex -1.100000e+01 -3.300000e+00  1.530000e+01
   endloop
 endfacet
 facet normal  7.071068e-01  0.000000e+00 -7.071068e-01
   outer loop
     vertex -1.030000e+01 -1.500000e+00  1.600000e+01
     vertex -1.030000e+01 -3.300000e+00  1.600000e+01
     vertex -1.100000e+01 -1.500000e+00  1.530000e+01
   endloop
 endfacet
 facet normal  1.000000e+00 -9.868649e-16 -5.133979e-17
   outer loop
     vertex -1.100000e+01 -3.300000e+00  1.530000e+01
     vertex -1.100000e+01 -3.300000e+00 -1.930000e+01
     vertex -1.100000e+01 -1.500000e+00 -1.930000e+01
   endloop
 endfacet
 facet normal  1.000000e+00 -0.000000e+00  0.000000e+00
   outer loop
     vertex -1.100000e+01 -3.300000e+00  1.530000e+01
     vertex -1.100000e+01 -1.500000e+00 -1.930000e+01
     vertex -1.100000e+01 -1.500000e+00  1.530000e+01
   endloop
 endfacet
 facet normal  5.773503e-01 -5.773503e-01 -5.773503e-01
   outer loop
     vertex -1.170000e+01 -3.300000e+00 -2.000000e+01
     vertex -1.100000e+01 -3.300000e+00 -1.930000e+01
     vertex -1.170000e+01 -4.000000e+00 -1.930000e+01
   endloop
 endfacet
 facet normal  1.000000e+00  9.868649e-16 -5.133979e-17
   outer loop
     vertex -1.100000e+01  3.300000e+00  1.530000e+01
     vertex -1.100000e+01  1.500000e+00 -1.930000e+01
     vertex -1.100000e+01  3.300000e+00 -1.930000e+01
   endloop
 endfacet
 facet normal  1.000000e+00 -0.000000e+00  0.000000e+00
   outer loop
     vertex -1.100000e+01  1.500000e+00  1.530000e+01
     vertex -1.100000e+01  1.500000e+00 -1.930000e+01
     vertex -1.100000e+01  3.300000e+00  1.530000e+01
   endloop
 endfacet
 facet normal  0.000000e+00  0.000000e+00 -1.000000e+00
   outer loop
     vertex -1.180000e+01  3.300000e+00 -2.000000e+01
     vertex -1.170000e+01 -3.300000e+00 -2.000000e+01
     vertex -1.180000e+01 -3.300000e+00 -2.000000e+01
   endloop
 endfacet
 facet normal -0.000000e+00 -0.000000e+00 -1.000000e+00
   outer loop
     vertex -1.170000e+01  3.300000e+00 -2.000000e+01
     vertex -1.170000e+01 -3.300000e+00 -2.000000e+01
     vertex -1.180000e+01  3.300000e+00 -2.000000e+01
   endloop
 endfacet
 facet normal  5.773503e-01  5.773503e-01 -5.773503e-01
   outer loop
     vertex -1.170000e+01  3.300000e+00 -2.000000e+01
     vertex -1.170000e+01  4.000000e+00 -1.930000e+01
     vertex -1.100000e+01  3.300000e+00 -1.930000e+01
   endloop
 endfacet
 facet normal  1.000000e+00  0.000000e+00  0.000000e+00
   outer loop
     vertex -7.500000e-01  1.350000e+00  1.600000e+01
     vertex -7.500000e-01  1.350000e+00 -2.000000e+01
     vertex -7.500000e-01  1.500000e+00 -2.000000e+01
   endloop
 endfacet
 facet normal  1.000000e+00 -0.000000e+00  0.000000e+00
   outer loop
     vertex -7.500000e-01  1.350000e+00  1.600000e+01
     vertex -7.500000e-01  1.500000e+00 -2.000000e+01
     vertex -7.500000e-01  1.500000e+00  1.600000e+01
   endloop
 endfacet
 facet normal  0.000000e+00  0.000000e+00 -1.000000e+00
   outer loop
     vertex -7.500000e-01  1.500000e+00  1.600000e+01
     vertex -1.030000e+01  1.500000e+00  1.600000e+01
     vertex -1.030000e+01  3.300000e+00  1.600000e+01
   endloop
 endfacet
 facet normal  0.000000e+00  0.000000e+00 -1.000000e+00
   outer loop
     vertex -7.500000e-01  1.500000e+00  1.600000e+01
     vertex -1.500000e-01  7.500000e-01  1.600000e+01
     vertex -7.500000e-01  1.350000e+00  1.600000e+01
   endloop
 endfacet
 facet normal  0.000000e+00  0.000000e+00 -1.000000e+00
   outer loop
     vertex  7.500000e-01  1.500000e+00  1.600000e+01
     vertex  1.500000e-01  7.500000e-01  1.600000e+01
     vertex -1.500000e-01  7.500000e-01  1.600000e+01
   endloop
 endfacet
 facet normal  0.000000e+00 -0.000000e+00 -1.000000e+00
   outer loop
     vertex  7.500000e-01  1.500000e+00  1.600000e+01
     vertex  7.500000e-01  1.350000e+00  1.600000e+01
     vertex  1.500000e-01  7.500000e-01  1.600000e+01
   endloop
 endfacet
 facet normal -0.000000e+00  0.000000e+00 -1.000000e+00
   outer loop
     vertex  7.500000e-01  1.500000e+00  1.600000e+01
     vertex -1.500000e-01  7.500000e-01  1.600000e+01
     vertex -7.500000e-01  1.500000e+00  1.600000e+01
   endloop
 endfacet
 facet normal  0.000000e+00 -0.000000e+00 -1.000000e+00
   outer loop
     vertex  1.030000e+01  3.300000e+00  1.600000e+01
     vertex  1.030000e+01  1.500000e+00  1.600000e+01
     vertex  7.500000e-01  1.500000e+00  1.600000e+01
   endloop
 endfacet
 facet normal -0.000000e+00  0.000000e+00 -1.000000e+00
   outer loop
     vertex  1.030000e+01  3.300000e+00  1.600000e+01
     vertex -7.500000e-01  1.500000e+00  1.600000e+01
     vertex -1.030000e+01  3.300000e+00  1.600000e+01
   endloop
 endfacet
 facet normal  0.000000e+00  0.000000e+00 -1.000000e+00
   outer loop
     vertex  1.030000e+01  3.300000e+00  1.600000e+01
     vertex  7.500000e-01  1.500000e+00  1.600000e+01
     vertex -7.500000e-01  1.500000e+00  1.600000e+01
   endloop
 endfacet
 facet normal  7.071068e-01  0.000000e+00 -7.071068e-01
   outer loop
     vertex -1.030000e+01  3.300000e+00  1.600000e+01
     vertex -1.030000e+01  1.500000e+00  1.600000e+01
     vertex -1.100000e+01  1.500000e+00  1.530000e+01
   endloop
 endfacet
 facet normal  7.071068e-01  0.000000e+00 -7.071068e-01
   outer loop
     vertex -1.030000e+01  3.300000e+00  1.600000e+01
     vertex -1.100000e+01  1.500000e+00  1.530000e+01
     vertex -1.100000e+01  3.300000e+00  1.530000e+01
   endloop
 endfacet
 facet normal  7.071068e-01  7.071068e-01  0.000000e+00
   outer loop
     vertex -1.500000e-01  7.500000e-01  1.600000e+01
     vertex -1.500000e-01  7.500000e-01 -2.000000e+01
     vertex -7.500000e-01  1.350000e+00 -2.000000e+01
   endloop
 endfacet
 facet normal  7.071068e-01  7.071068e-01  0.000000e+00
   outer loop
     vertex -1.500000e-01  7.500000e-01  1.600000e+01
     vertex -7.500000e-01  1.350000e+00 -2.000000e+01
     vertex -7.500000e-01  1.350000e+00  1.600000e+01
   endloop
 endfacet
 facet normal  0.000000e+00  1.000000e+00  0.000000e+00
   outer loop
     vertex  1.500000e-01  7.500000e-01  1.600000e+01
     vertex  1.500000e-01  7.500000e-01 -2.000000e+01
     vertex -1.500000e-01  7.500000e-01 -2.000000e+01
   endloop
 endfacet
 facet normal  0.000000e+00  1.000000e+00  0.000000e+00
   outer loop
     vertex  1.500000e-01  7.500000e-01  1.600000e+01
     vertex -1.500000e-01  7.500000e-01 -2.000000e+01
     vertex -1.500000e-01  7.500000e-01  1.600000e+01
   endloop
 endfacet
 facet normal -7.071068e-01  7.071068e-01  0.000000e+00
   outer loop
     vertex  1.500000e-01  7.500000e-01  1.600000e+01
     vertex  7.500000e-01  1.350000e+00 -2.000000e+01
     vertex  1.500000e-01  7.500000e-01 -2.000000e+01
   endloop
 endfacet
 facet normal -7.071068e-01  7.071068e-01  0.000000e+00
   outer loop
     vertex  1.500000e-01  7.500000e-01  1.600000e+01
     vertex  7.500000e-01  1.350000e+00  1.600000e+01
     vertex  7.500000e-01  1.350000e+00 -2.000000e+01
   endloop
 endfacet
 facet normal -1.000000e+00  0.000000e+00  0.000000e+00
   outer loop
     vertex  7.500000e-01  1.350000e+00  1.600000e+01
     vertex  7.500000e-01  1.500000e+00 -2.000000e+01
     vertex  7.500000e-01  1.350000e+00 -2.000000e+01
   endloop
 endfacet
 facet normal -1.000000e+00  0.000000e+00  0.000000e+00
   outer loop
     vertex  7.500000e-01  1.350000e+00  1.600000e+01
     vertex  7.500000e-01  1.500000e+00  1.600000e+01
     vertex  7.500000e-01  1.500000e+00 -2.000000e+01
   endloop
 endfacet
 facet normal  0.000000e+00  1.000000e+00  0.000000e+00
   outer loop
     vertex  1.100000e+01  1.500000e+00 -1.930000e+01
     vertex  1.100000e+01  1.500000e+00 -2.000000e+01
     vertex  7.500000e-01  1.500000e+00 -2.000000e+01
   endloop
 endfacet
 facet normal  0.000000e+00  1.000000e+00  0.000000e+00
   outer loop
     vertex  1.100000e+01  1.500000e+00  1.530000e+01
     vertex  7.500000e-01  1.500000e+00 -2.000000e+01
     vertex  7.500000e-01  1.500000e+00  1.600000e+01
   endloop
 endfacet
 facet normal  0.000000e+00  1.000000e+00  0.000000e+00
   outer loop
     vertex  1.100000e+01  1.500000e+00  1.530000e+01
     vertex  1.100000e+01  1.500000e+00 -1.930000e+01
     vertex  7.500000e-01  1.500000e+00 -2.000000e+01
   endloop
 endfacet
 facet normal  0.000000e+00  1.000000e+00  0.000000e+00
   outer loop
     vertex  1.030000e+01  1.500000e+00  1.600000e+01
     vertex  1.100000e+01  1.500000e+00  1.530000e+01
     vertex  7.500000e-01  1.500000e+00  1.600000e+01
   endloop
 endfacet
 facet normal  1.000000e+00  0.000000e+00  0.000000e+00
   outer loop
     vertex  1.100000e+01 -1.500000e+00 -1.930000e+01
     vertex  1.100000e+01 -1.500000e+00 -2.000000e+01
     vertex  1.100000e+01  1.500000e+00 -2.000000e+01
   endloop
 endfacet
 facet normal  1.000000e+00 -0.000000e+00  0.000000e+00
   outer loop
     vertex  1.100000e+01 -1.500000e+00 -1.930000e+01
     vertex  1.100000e+01  1.500000e+00 -2.000000e+01
     vertex  1.100000e+01  1.500000e+00 -1.930000e+01
   endloop
 endfacet
 facet normal  0.000000e+00 -1.000000e+00 -0.000000e+00
   outer loop
     vertex  1.100000e+01 -1.500000e+00 -1.930000e+01
     vertex  7.500000e-01 -1.500000e+00 -2.000000e+01
     vertex  1.100000e+01 -1.500000e+00 -2.000000e+01
   endloop
 endfacet
 facet normal -0.000000e+00 -1.000000e+00  0.000000e+00
   outer loop
     vertex  1.100000e+01 -1.500000e+00  1.530000e+01
     vertex  7.500000e-01 -1.500000e+00  1.600000e+01
     vertex  7.500000e-01 -1.500000e+00 -2.000000e+01
   endloop
 endfacet
 facet normal  0.000000e+00 -1.000000e+00 -0.000000e+00
   outer loop
     vertex  1.100000e+01 -1.500000e+00  1.530000e+01
     vertex  7.500000e-01 -1.500000e+00 -2.000000e+01
     vertex  1.100000e+01 -1.500000e+00 -1.930000e+01
   endloop
 endfacet
 facet normal -0.000000e+00 -1.000000e+00 -0.000000e+00
   outer loop
     vertex  1.030000e+01 -1.500000e+00  1.600000e+01
     vertex  7.500000e-01 -1.500000e+00  1.600000e+01
     vertex  1.100000e+01 -1.500000e+00  1.530000e+01
   endloop
 endfacet
 facet normal -1.000000e+00  0.000000e+00  0.000000e+00
   outer loop
     vertex  7.500000e-01 -1.500000e+00  1.600000e+01
     vertex  7.500000e-01 -1.350000e+00 -2.000000e+01
     vertex  7.500000e-01 -1.500000e+00 -2.000000e+01
   endloop
 endfacet
 facet normal -1.000000e+00  0.000000e+00  0.000000e+00
   outer loop
     vertex  7.500000e-01 -1.500000e+00  1.600000e+01
     vertex  7.500000e-01 -1.350000e+00  1.600000e+01
     vertex  7.500000e-01 -1.350000e+00 -2.000000e+01
   endloop
 endfacet
 facet normal -7.071068e-01 -7.071068e-01 -0.000000e+00
   outer loop
     vertex  1.500000e-01 -7.500000e-01  1.600000e+01
     vertex  1.500000e-01 -7.500000e-01 -2.000000e+01
     vertex  7.500000e-01 -1.350000e+00 -2.000000e+01
   endloop
 endfacet
 facet normal -7.071068e-01 -7.071068e-01  0.000000e+00
   outer loop
     vertex  1.500000e-01 -7.500000e-01  1.600000e+01
     vertex  7.500000e-01 -1.350000e+00 -2.000000e+01
     vertex  7.500000e-01 -1.350000e+00  1.600000e+01
   endloop
 endfacet
 facet normal  0.000000e+00 -1.000000e+00 -0.000000e+00
   outer loop
     vertex  1.500000e-01 -7.500000e-01  1.600000e+01
     vertex -1.500000e-01 -7.500000e-01 -2.000000e+01
     vertex  1.500000e-01 -7.500000e-01 -2.000000e+01
   endloop
 endfacet
 facet normal -0.000000e+00 -1.000000e+00  0.000000e+00
   outer loop
     vertex  1.500000e-01 -7.500000e-01  1.600000e+01
     vertex -1.500000e-01 -7.500000e-01  1.600000e+01
     vertex -1.500000e-01 -7.500000e-01 -2.000000e+01
   endloop
 endfacet
 facet normal  7.071068e-01 -7.071068e-01  0.000000e+00
   outer loop
     vertex -1.500000e-01 -7.500000e-01  1.600000e+01
     vertex -7.500000e-01 -1.350000e+00 -2.000000e+01
     vertex -1.500000e-01 -7.500000e-01 -2.000000e+01
   endloop
 endfacet
 facet normal  7.071068e-01 -7.071068e-01  0.000000e+00
   outer loop
     vertex -1.500000e-01 -7.500000e-01  1.600000e+01
     vertex -7.500000e-01 -1.350000e+00  1.600000e+01
     vertex -7.500000e-01 -1.350000e+00 -2.000000e+01
   endloop
 endfacet
 facet normal -7.071068e-01 -0.000000e+00 -7.071068e-01
   outer loop
     vertex  1.030000e+01 -1.500000e+00  1.600000e+01
     vertex  1.100000e+01 -3.300000e+00  1.530000e+01
     vertex  1.030000e+01 -3.300000e+00  1.600000e+01
   endloop
 endfacet
 facet normal -7.071068e-01 -0.000000e+00 -7.071068e-01
   outer loop
     vertex  1.100000e+01 -1.500000e+00  1.530000e+01
     vertex  1.100000e+01 -3.300000e+00  1.530000e+01
     vertex  1.030000e+01 -1.500000e+00  1.600000e+01
   endloop
 endfacet
 facet normal -0.000000e+00 -7.071068e-01 -7.071068e-01
   outer loop
     vertex  1.030000e+01 -3.300000e+00  1.600000e+01
     vertex -1.030000e+01 -4.000000e+00  1.670000e+01
     vertex -1.030000e+01 -3.300000e+00  1.600000e+01
   endloop
 endfacet
 facet normal  0.000000e+00 -7.071068e-01 -7.071068e-01
   outer loop
     vertex  1.030000e+01 -3.300000e+00  1.600000e+01
     vertex  1.030000e+01 -4.000000e+00  1.670000e+01
     vertex -1.030000e+01 -4.000000e+00  1.670000e+01
   endloop
 endfacet
 facet normal  5.773503e-01 -5.773503e-01 -5.773503e-01
   outer loop
     vertex -1.030000e+01 -4.000000e+00  1.670000e+01
     vertex -1.170000e+01 -4.000000e+00  1.530000e+01
     vertex -1.100000e+01 -3.300000e+00  1.530000e+01
   endloop
 endfacet
 facet normal  5.773503e-01 -5.773503e-01 -5.773503e-01
   outer loop
     vertex -1.030000e+01 -3.300000e+00  1.600000e+01
     vertex -1.030000e+01 -4.000000e+00  1.670000e+01
     vertex -1.100000e+01 -3.300000e+00  1.530000e+01
   endloop
 endfacet
 facet normal  7.071068e-01 -7.071068e-01 -1.815136e-17
   outer loop
     vertex -1.170000e+01 -4.000000e+00  1.530000e+01
     vertex -1.170000e+01 -4.000000e+00 -1.930000e+01
     vertex -1.100000e+01 -3.300000e+00 -1.930000e+01
   endloop
 endfacet
 facet normal  7.071068e-01 -7.071068e-01 -3.630272e-17
   outer loop
     vertex -1.100000e+01 -3.300000e+00  1.530000e+01
     vertex -1.170000e+01 -4.000000e+00  1.530000e+01
     vertex -1.100000e+01 -3.300000e+00 -1.930000e+01
   endloop
 endfacet
 facet normal -0.000000e+00 -7.071068e-01 -7.071068e-01
   outer loop
     vertex -1.170000e+01 -3.300000e+00 -2.000000e+01
     vertex -1.180000e+01 -4.000000e+00 -1.930000e+01
     vertex -1.180000e+01 -3.300000e+00 -2.000000e+01
   endloop
 endfacet
 facet normal  0.000000e+00 -7.071068e-01 -7.071068e-01
   outer loop
     vertex -1.170000e+01 -3.300000e+00 -2.000000e+01
     vertex -1.170000e+01 -4.000000e+00 -1.930000e+01
     vertex -1.180000e+01 -4.000000e+00 -1.930000e+01
   endloop
 endfacet
 facet normal  7.071068e-01  7.071068e-01 -3.630272e-17
   outer loop
     vertex -1.100000e+01  3.300000e+00  1.530000e+01
     vertex -1.100000e+01  3.300000e+00 -1.930000e+01
     vertex -1.170000e+01  4.000000e+00 -1.930000e+01
   endloop
 endfacet
 facet normal  7.071068e-01  7.071068e-01 -1.782723e-17
   outer loop
     vertex -1.100000e+01  3.300000e+00  1.530000e+01
     vertex -1.170000e+01  4.000000e+00 -1.930000e+01
     vertex -1.170000e+01  4.000000e+00  1.530000e+01
   endloop
 endfacet
 facet normal -7.071068e-01 -0.000000e+00 -7.071068e-01
   outer loop
     vertex -1.180000e+01  3.300000e+00 -2.000000e+01
     vertex -1.180000e+01 -3.300000e+00 -2.000000e+01
     vertex -1.250000e+01 -3.300000e+00 -1.930000e+01
   endloop
 endfacet
 facet normal -7.071068e-01  0.000000e+00 -7.071068e-01
   outer loop
     vertex -1.180000e+01  3.300000e+00 -2.000000e+01
     vertex -1.250000e+01 -3.300000e+00 -1.930000e+01
     vertex -1.250000e+01  3.300000e+00 -1.930000e+01
   endloop
 endfacet
 facet normal  0.000000e+00  7.071068e-01 -7.071068e-01
   outer loop
     vertex -1.170000e+01  3.300000e+00 -2.000000e+01
     vertex -1.180000e+01  3.300000e+00 -2.000000e+01
     vertex -1.180000e+01  4.000000e+00 -1.930000e+01
   endloop
 endfacet
 facet normal  0.000000e+00  7.071068e-01 -7.071068e-01
   outer loop
     vertex -1.170000e+01  3.300000e+00 -2.000000e+01
     vertex -1.180000e+01  4.000000e+00 -1.930000e+01
     vertex -1.170000e+01  4.000000e+00 -1.930000e+01
   endloop
 endfacet
 facet normal  0.000000e+00  7.071068e-01 -7.071068e-01
   outer loop
     vertex  1.030000e+01  3.300000e+00  1.600000e+01
     vertex -1.030000e+01  3.300000e+00  1.600000e+01
     vertex -1.030000e+01  4.000000e+00  1.670000e+01
   endloop
 endfacet
 facet normal  0.000000e+00  7.071068e-01 -7.071068e-01
   outer loop
     vertex  1.030000e+01  3.300000e+00  1.600000e+01
     vertex -1.030000e+01  4.000000e+00  1.670000e+01
     vertex  1.030000e+01  4.000000e+00  1.670000e+01
   endloop
 endfacet
 facet normal -7.071068e-01 -0.000000e+00 -7.071068e-01
   outer loop
     vertex  1.030000e+01  3.300000e+00  1.600000e+01
     vertex  1.100000e+01  1.500000e+00  1.530000e+01
     vertex  1.030000e+01  1.500000e+00  1.600000e+01
   endloop
 endfacet
 facet normal -7.071068e-01 -0.000000e+00 -7.071068e-01
   outer loop
     vertex  1.100000e+01  3.300000e+00  1.530000e+01
     vertex  1.100000e+01  1.500000e+00  1.530000e+01
     vertex  1.030000e+01  3.300000e+00  1.600000e+01
   endloop
 endfacet
 facet normal  5.773503e-01  5.773503e-01 -5.773503e-01
   outer loop
     vertex -1.030000e+01  4.000000e+00  1.670000e+01
     vertex -1.100000e+01  3.300000e+00  1.530000e+01
     vertex -1.170000e+01  4.000000e+00  1.530000e+01
   endloop
 endfacet
 facet normal  5.773503e-01  5.773503e-01 -5.773503e-01
   outer loop
     vertex -1.030000e+01  3.300000e+00  1.600000e+01
     vertex -1.100000e+01  3.300000e+00  1.530000e+01
     vertex -1.030000e+01  4.000000e+00  1.670000e+01
   endloop
 endfacet
 facet normal -1.000000e+00  9.868649e-16 -5.133979e-17
   outer loop
     vertex  1.100000e+01  3.300000e+00  1.530000e+01
     vertex  1.100000e+01  3.300000e+00 -1.930000e+01
     vertex  1.100000e+01  1.500000e+00 -1.930000e+01
   endloop
 endfacet
 facet normal -1.000000e+00  0.000000e+00  0.000000e+00
   outer loop
     vertex  1.100000e+01  1.500000e+00  1.530000e+01
     vertex  1.100000e+01  3.300000e+00  1.530000e+01
     vertex  1.100000e+01  1.500000e+00 -1.930000e+01
   endloop
 endfacet
 facet normal -7.071068e-01 -6.978189e-16 -7.071068e-01
   outer loop
     vertex  1.100000e+01 -1.500000e+00 -1.930000e+01
     vertex  1.170000e+01 -3.300000e+00 -2.000000e+01
     vertex  1.100000e+01 -3.300000e+00 -1.930000e+01
   endloop
 endfacet
 facet normal -7.071068e-01  7.165104e-16 -7.071068e-01
   outer loop
     vertex  1.170000e+01  3.300000e+00 -2.000000e+01
     vertex  1.100000e+01  1.500000e+00 -1.930000e+01
     vertex  1.100000e+01  3.300000e+00 -1.930000e+01
   endloop
 endfacet
 facet normal -7.071068e-01 -0.000000e+00 -7.071068e-01
   outer loop
     vertex  1.170000e+01  3.300000e+00 -2.000000e+01
     vertex  1.170000e+01 -3.300000e+00 -2.000000e+01
     vertex  1.100000e+01 -1.500000e+00 -1.930000e+01
   endloop
 endfacet
 facet normal -7.071068e-01  0.000000e+00 -7.071068e-01
   outer loop
     vertex  1.170000e+01  3.300000e+00 -2.000000e+01
     vertex  1.100000e+01 -1.500000e+00 -1.930000e+01
     vertex  1.100000e+01  1.500000e+00 -1.930000e+01
   endloop
 endfacet
 facet normal -1.000000e+00 -9.868649e-16 -5.133979e-17
   outer loop
     vertex  1.100000e+01 -3.300000e+00  1.530000e+01
     vertex  1.100000e+01 -1.500000e+00 -1.930000e+01
     vertex  1.100000e+01 -3.300000e+00 -1.930000e+01
   endloop
 endfacet
 facet normal -1.000000e+00  0.000000e+00  0.000000e+00
   outer loop
     vertex  1.100000e+01 -3.300000e+00  1.530000e+01
     vertex  1.100000e+01 -1.500000e+00  1.530000e+01
     vertex  1.100000e+01 -1.500000e+00 -1.930000e+01
   endloop
 endfacet
 facet normal -5.773503e-01 -5.773503e-01 -5.773503e-01
   outer loop
     vertex  1.170000e+01 -4.000000e+00  1.530000e+01
     vertex  1.030000e+01 -4.000000e+00  1.670000e+01
     vertex  1.030000e+01 -3.300000e+00  1.600000e+01
   endloop
 endfacet
 facet normal -5.773503e-01 -5.773503e-01 -5.773503e-01
   outer loop
     vertex  1.100000e+01 -3.300000e+00  1.530000e+01
     vertex  1.170000e+01 -4.000000e+00  1.530000e+01
     vertex  1.030000e+01 -3.300000e+00  1.600000e+01
   endloop
 endfacet
 facet normal  0.000000e+00 -1.000000e+00 -2.566990e-17
   outer loop
     vertex -1.170000e+01 -4.000000e+00  1.530000e+01
     vertex -1.180000e+01 -4.000000e+00 -1.930000e+01
     vertex -1.170000e+01 -4.000000e+00 -1.930000e+01
   endloop
 endfacet
 facet normal -2.166289e-16 -1.000000e+00  2.166289e-16
   outer loop
     vertex -1.180000e+01 -4.000000e+00  1.930000e+01
     vertex -1.170000e+01 -4.000000e+00  1.530000e+01
     vertex -1.030000e+01 -4.000000e+00  1.670000e+01
   endloop
 endfacet
 facet normal  0.000000e+00 -1.000000e+00 -2.566990e-17
   outer loop
     vertex  1.170000e+01 -4.000000e+00  1.530000e+01
     vertex  1.170000e+01 -4.000000e+00 -1.930000e+01
     vertex  1.180000e+01 -4.000000e+00 -1.930000e+01
   endloop
 endfacet
 facet normal  0.000000e+00 -1.000000e+00  3.416071e-16
   outer loop
     vertex  1.030000e+01 -4.000000e+00  1.670000e+01
     vertex -1.180000e+01 -4.000000e+00  1.930000e+01
     vertex -1.030000e+01 -4.000000e+00  1.670000e+01
   endloop
 endfacet
 facet normal  2.166289e-16 -1.000000e+00  2.166289e-16
   outer loop
     vertex  1.180000e+01 -4.000000e+00  1.930000e+01
     vertex  1.030000e+01 -4.000000e+00  1.670000e+01
     vertex  1.170000e+01 -4.000000e+00  1.530000e+01
   endloop
 endfacet
 facet normal  0.000000e+00 -1.000000e+00  3.416071e-16
   outer loop
     vertex  1.180000e+01 -4.000000e+00  1.930000e+01
     vertex -1.180000e+01 -4.000000e+00  1.930000e+01
     vertex  1.030000e+01 -4.000000e+00  1.670000e+01
   endloop
 endfacet
 facet normal -8.881784e-15 -1.000000e+00  0.000000e+00
   outer loop
     vertex -1.180000e+01 -4.000000e+00 -1.930000e+01
     vertex -1.170000e+01 -4.000000e+00  1.530000e+01
     vertex -1.180000e+01 -4.000000e+00  1.930000e+01
   endloop
 endfacet
 facet normal  8.881784e-15 -1.000000e+00  0.000000e+00
   outer loop
     vertex  1.180000e+01 -4.000000e+00  1.930000e+01
     vertex  1.170000e+01 -4.000000e+00  1.530000e+01
     vertex  1.180000e+01 -4.000000e+00 -1.930000e+01
   endloop
 endfacet
 facet normal -5.773503e-01 -5.773503e-01 -5.773503e-01
   outer loop
     vertex -1.180000e+01 -4.000000e+00 -1.930000e+01
     vertex -1.250000e+01 -3.300000e+00 -1.930000e+01
     vertex -1.180000e+01 -3.300000e+00 -2.000000e+01
   endloop
 endfacet
 facet normal  0.000000e+00  1.000000e+00 -2.566990e-17
   outer loop
     vertex -1.170000e+01  4.000000e+00  1.530000e+01
     vertex -1.170000e+01  4.000000e+00 -1.930000e+01
     vertex -1.180000e+01  4.000000e+00 -1.930000e+01
   endloop
 endfacet
 facet normal -2.166289e-16  1.000000e+00  2.166289e-16
   outer loop
     vertex -1.180000e+01  4.000000e+00  1.930000e+01
     vertex -1.030000e+01  4.000000e+00  1.670000e+01
     vertex -1.170000e+01  4.000000e+00  1.530000e+01
   endloop
 endfacet
 facet normal  0.000000e+00  1.000000e+00 -2.566990e-17
   outer loop
     vertex  1.170000e+01  4.000000e+00  1.530000e+01
     vertex  1.180000e+01  4.000000e+00 -1.930000e+01
     vertex  1.170000e+01  4.000000e+00 -1.930000e+01
   endloop
 endfacet
 facet normal  0.000000e+00  1.000000e+00  3.416071e-16
   outer loop
     vertex  1.030000e+01  4.000000e+00  1.670000e+01
     vertex -1.030000e+01  4.000000e+00  1.670000e+01
     vertex -1.180000e+01  4.000000e+00  1.930000e+01
   endloop
 endfacet
 facet normal  2.166289e-16  1.000000e+00  2.166289e-16
   outer loop
     vertex  1.180000e+01  4.000000e+00  1.930000e+01
     vertex  1.170000e+01  4.000000e+00  1.530000e+01
     vertex  1.030000e+01  4.000000e+00  1.670000e+01
   endloop
 endfacet
 facet normal  0.000000e+00  1.000000e+00  3.416071e-16
   outer loop
     vertex  1.180000e+01  4.000000e+00  1.930000e+01
     vertex  1.030000e+01  4.000000e+00  1.670000e+01
     vertex -1.180000e+01  4.000000e+00  1.930000e+01
   endloop
 endfacet
 facet normal -8.881784e-15  1.000000e+00  0.000000e+00
   outer loop
     vertex -1.180000e+01  4.000000e+00 -1.930000e+01
     vertex -1.180000e+01  4.000000e+00  1.930000e+01
     vertex -1.170000e+01  4.000000e+00  1.530000e+01
   endloop
 endfacet
 facet normal  8.881784e-15  1.000000e+00  0.000000e+00
   outer loop
     vertex  1.180000e+01  4.000000e+00  1.930000e+01
     vertex  1.180000e+01  4.000000e+00 -1.930000e+01
     vertex  1.170000e+01  4.000000e+00  1.530000e+01
   endloop
 endfacet
 facet normal -1.000000e+00  0.000000e+00  0.000000e+00
   outer loop
     vertex -1.250000e+01 -3.300000e+00  1.930000e+01
     vertex -1.250000e+01  3.300000e+00 -1.930000e+01
     vertex -1.250000e+01 -3.300000e+00 -1.930000e+01
   endloop
 endfacet
 facet normal -1.000000e+00  0.000000e+00  0.000000e+00
   outer loop
     vertex -1.250000e+01 -3.300000e+00  1.930000e+01
     vertex -1.250000e+01  3.300000e+00  1.930000e+01
     vertex -1.250000e+01  3.300000e+00 -1.930000e+01
   endloop
 endfacet
 facet normal -5.773503e-01  5.773503e-01 -5.773503e-01
   outer loop
     vertex -1.180000e+01  4.000000e+00 -1.930000e+01
     vertex -1.180000e+01  3.300000e+00 -2.000000e+01
     vertex -1.250000e+01  3.300000e+00 -1.930000e+01
   endloop
 endfacet
 facet normal -5.773503e-01  5.773503e-01 -5.773503e-01
   outer loop
     vertex  1.100000e+01  3.300000e+00  1.530000e+01
     vertex  1.030000e+01  3.300000e+00  1.600000e+01
     vertex  1.030000e+01  4.000000e+00  1.670000e+01
   endloop
 endfacet
 facet normal -5.773503e-01  5.773503e-01 -5.773503e-01
   outer loop
     vertex  1.100000e+01  3.300000e+00  1.530000e+01
     vertex  1.030000e+01  4.000000e+00  1.670000e+01
     vertex  1.170000e+01  4.000000e+00  1.530000e+01
   endloop
 endfacet
 facet normal -7.071068e-01  7.071068e-01 -1.815136e-17
   outer loop
     vertex  1.170000e+01  4.000000e+00  1.530000e+01
     vertex  1.170000e+01  4.000000e+00 -1.930000e+01
     vertex  1.100000e+01  3.300000e+00 -1.930000e+01
   endloop
 endfacet
 facet normal -7.071068e-01  7.071068e-01 -3.630272e-17
   outer loop
     vertex  1.100000e+01  3.300000e+00  1.530000e+01
     vertex  1.170000e+01  4.000000e+00  1.530000e+01
     vertex  1.100000e+01  3.300000e+00 -1.930000e+01
   endloop
 endfacet
 facet normal -5.773503e-01 -5.773503e-01 -5.773503e-01
   outer loop
     vertex  1.100000e+01 -3.300000e+00 -1.930000e+01
     vertex  1.170000e+01 -3.300000e+00 -2.000000e+01
     vertex  1.170000e+01 -4.000000e+00 -1.930000e+01
   endloop
 endfacet
 facet normal  0.000000e+00  0.000000e+00 -1.000000e+00
   outer loop
     vertex  1.170000e+01  3.300000e+00 -2.000000e+01
     vertex  1.180000e+01 -3.300000e+00 -2.000000e+01
     vertex  1.170000e+01 -3.300000e+00 -2.000000e+01
   endloop
 endfacet
 facet normal -0.000000e+00 -0.000000e+00 -1.000000e+00
   outer loop
     vertex  1.180000e+01  3.300000e+00 -2.000000e+01
     vertex  1.180000e+01 -3.300000e+00 -2.000000e+01
     vertex  1.170000e+01  3.300000e+00 -2.000000e+01
   endloop
 endfacet
 facet normal -5.773503e-01  5.773503e-01 -5.773503e-01
   outer loop
     vertex  1.100000e+01  3.300000e+00 -1.930000e+01
     vertex  1.170000e+01  4.000000e+00 -1.930000e+01
     vertex  1.170000e+01  3.300000e+00 -2.000000e+01
   endloop
 endfacet
 facet normal -7.071068e-01 -7.071068e-01 -1.782723e-17
   outer loop
     vertex  1.100000e+01 -3.300000e+00  1.530000e+01
     vertex  1.170000e+01 -4.000000e+00 -1.930000e+01
     vertex  1.170000e+01 -4.000000e+00  1.530000e+01
   endloop
 endfacet
 facet normal -7.071068e-01 -7.071068e-01 -3.630272e-17
   outer loop
     vertex  1.100000e+01 -3.300000e+00  1.530000e+01
     vertex  1.100000e+01 -3.300000e+00 -1.930000e+01
     vertex  1.170000e+01 -4.000000e+00 -1.930000e+01
   endloop
 endfacet
 facet normal -7.071068e-01 -7.071068e-01  0.000000e+00
   outer loop
     vertex -1.180000e+01 -4.000000e+00  1.930000e+01
     vertex -1.250000e+01 -3.300000e+00  1.930000e+01
     vertex -1.250000e+01 -3.300000e+00 -1.930000e+01
   endloop
 endfacet
 facet normal -7.071068e-01 -7.071068e-01 -0.000000e+00
   outer loop
     vertex -1.180000e+01 -4.000000e+00  1.930000e+01
     vertex -1.250000e+01 -3.300000e+00 -1.930000e+01
     vertex -1.180000e+01 -4.000000e+00 -1.930000e+01
   endloop
 endfacet
 facet normal  0.000000e+00 -7.071068e-01  7.071068e-01
   outer loop
     vertex  1.180000e+01 -3.300000e+00  2.000000e+01
     vertex -1.180000e+01 -3.300000e+00  2.000000e+01
     vertex -1.180000e+01 -4.000000e+00  1.930000e+01
   endloop
 endfacet
 facet normal  0.000000e+00 -7.071068e-01  7.071068e-01
   outer loop
     vertex  1.180000e+01 -3.300000e+00  2.000000e+01
     vertex -1.180000e+01 -4.000000e+00  1.930000e+01
     vertex  1.180000e+01 -4.000000e+00  1.930000e+01
   endloop
 endfacet
 facet normal  7.071068e-01 -7.071068e-01  0.000000e+00
   outer loop
     vertex  1.250000e+01 -3.300000e+00  1.930000e+01
     vertex  1.180000e+01 -4.000000e+00 -1.930000e+01
     vertex  1.250000e+01 -3.300000e+00 -1.930000e+01
   endloop
 endfacet
 facet normal  7.071068e-01 -7.071068e-01  0.000000e+00
   outer loop
     vertex  1.250000e+01 -3.300000e+00  1.930000e+01
     vertex  1.180000e+01 -4.000000e+00  1.930000e+01
     vertex  1.180000e+01 -4.000000e+00 -1.930000e+01
   endloop
 endfacet
 facet normal -0.000000e+00 -7.071068e-01 -7.071068e-01
   outer loop
     vertex  1.180000e+01 -3.300000e+00 -2.000000e+01
     vertex  1.170000e+01 -4.000000e+00 -1.930000e+01
     vertex  1.170000e+01 -3.300000e+00 -2.000000e+01
   endloop
 endfacet
 facet normal  0.000000e+00 -7.071068e-01 -7.071068e-01
   outer loop
     vertex  1.180000e+01 -3.300000e+00 -2.000000e+01
     vertex  1.180000e+01 -4.000000e+00 -1.930000e+01
     vertex  1.170000e+01 -4.000000e+00 -1.930000e+01
   endloop
 endfacet
 facet normal -7.071068e-01  7.071068e-01  0.000000e+00
   outer loop
     vertex -1.180000e+01  4.000000e+00  1.930000e+01
     vertex -1.250000e+01  3.300000e+00 -1.930000e+01
     vertex -1.250000e+01  3.300000e+00  1.930000e+01
   endloop
 endfacet
 facet normal -7.071068e-01  7.071068e-01  0.000000e+00
   outer loop
     vertex -1.180000e+01  4.000000e+00  1.930000e+01
     vertex -1.180000e+01  4.000000e+00 -1.930000e+01
     vertex -1.250000e+01  3.300000e+00 -1.930000e+01
   endloop
 endfacet
 facet normal  0.000000e+00  7.071068e-01  7.071068e-01
   outer loop
     vertex  1.180000e+01  4.000000e+00  1.930000e+01
     vertex -1.180000e+01  4.000000e+00  1.930000e+01
     vertex -1.180000e+01  3.300000e+00  2.000000e+01
   endloop
 endfacet
 facet normal  0.000000e+00  7.071068e-01  7.071068e-01
   outer loop
     vertex  1.180000e+01  4.000000e+00  1.930000e+01
     vertex -1.180000e+01  3.300000e+00  2.000000e+01
     vertex  1.180000e+01  3.300000e+00  2.000000e+01
   endloop
 endfacet
 facet normal  7.071068e-01  7.071068e-01  0.000000e+00
   outer loop
     vertex  1.250000e+01  3.300000e+00  1.930000e+01
     vertex  1.250000e+01  3.300000e+00 -1.930000e+01
     vertex  1.180000e+01  4.000000e+00 -1.930000e+01
   endloop
 endfacet
 facet normal  7.071068e-01  7.071068e-01  0.000000e+00
   outer loop
     vertex  1.250000e+01  3.300000e+00  1.930000e+01
     vertex  1.180000e+01  4.000000e+00 -1.930000e+01
     vertex  1.180000e+01  4.000000e+00  1.930000e+01
   endloop
 endfacet
 facet normal  0.000000e+00  7.071068e-01 -7.071068e-01
   outer loop
     vertex  1.180000e+01  3.300000e+00 -2.000000e+01
     vertex  1.170000e+01  3.300000e+00 -2.000000e+01
     vertex  1.170000e+01  4.000000e+00 -1.930000e+01
   endloop
 endfacet
 facet normal  0.000000e+00  7.071068e-01 -7.071068e-01
   outer loop
     vertex  1.180000e+01  3.300000e+00 -2.000000e+01
     vertex  1.170000e+01  4.000000e+00 -1.930000e+01
     vertex  1.180000e+01  4.000000e+00 -1.930000e+01
   endloop
 endfacet
 facet normal -7.071068e-01  0.000000e+00  7.071068e-01
   outer loop
     vertex -1.180000e+01  3.300000e+00  2.000000e+01
     vertex -1.250000e+01 -3.300000e+00  1.930000e+01
     vertex -1.180000e+01 -3.300000e+00  2.000000e+01
   endloop
 endfacet
 facet normal -7.071068e-01  0.000000e+00  7.071068e-01
   outer loop
     vertex -1.180000e+01  3.300000e+00  2.000000e+01
     vertex -1.250000e+01  3.300000e+00  1.930000e+01
     vertex -1.250000e+01 -3.300000e+00  1.930000e+01
   endloop
 endfacet
 facet normal  7.071068e-01  0.000000e+00 -7.071068e-01
   outer loop
     vertex  1.250000e+01  3.300000e+00 -1.930000e+01
     vertex  1.250000e+01 -3.300000e+00 -1.930000e+01
     vertex  1.180000e+01 -3.300000e+00 -2.000000e+01
   endloop
 endfacet
 facet normal  7.071068e-01  0.000000e+00 -7.071068e-01
   outer loop
     vertex  1.250000e+01  3.300000e+00 -1.930000e+01
     vertex  1.180000e+01 -3.300000e+00 -2.000000e+01
     vertex  1.180000e+01  3.300000e+00 -2.000000e+01
   endloop
 endfacet
 facet normal -5.773503e-01 -5.773503e-01  5.773503e-01
   outer loop
     vertex -1.180000e+01 -4.000000e+00  1.930000e+01
     vertex -1.180000e+01 -3.300000e+00  2.000000e+01
     vertex -1.250000e+01 -3.300000e+00  1.930000e+01
   endloop
 endfacet
 facet normal  0.000000e+00  0.000000e+00  1.000000e+00
   outer loop
     vertex  1.180000e+01  3.300000e+00  2.000000e+01
     vertex -1.180000e+01  3.300000e+00  2.000000e+01
     vertex -1.180000e+01 -3.300000e+00  2.000000e+01
   endloop
 endfacet
 facet normal  0.000000e+00  0.000000e+00  1.000000e+00
   outer loop
     vertex  1.180000e+01  3.300000e+00  2.000000e+01
     vertex -1.180000e+01 -3.300000e+00  2.000000e+01
     vertex  1.180000e+01 -3.300000e+00  2.000000e+01
   endloop
 endfacet
 facet normal  5.773503e-01 -5.773503e-01  5.773503e-01
   outer loop
     vertex  1.250000e+01 -3.300000e+00  1.930000e+01
     vertex  1.180000e+01 -3.300000e+00  2.000000e+01
     vertex  1.180000e+01 -4.000000e+00  1.930000e+01
   endloop
 endfacet
 facet normal  5.773503e-01 -5.773503e-01 -5.773503e-01
   outer loop
     vertex  1.180000e+01 -3.300000e+00 -2.000000e+01
     vertex  1.250000e+01 -3.300000e+00 -1.930000e+01
     vertex  1.180000e+01 -4.000000e+00 -1.930000e+01
   endloop
 endfacet
 facet normal  1.000000e+00  0.000000e+00  0.000000e+00
   outer loop
     vertex  1.250000e+01 -3.300000e+00  1.930000e+01
     vertex  1.250000e+01 -3.300000e+00 -1.930000e+01
     vertex  1.250000e+01  3.300000e+00 -1.930000e+01
   endloop
 endfacet
 facet normal  1.000000e+00 -0.000000e+00  0.000000e+00
   outer loop
     vertex  1.250000e+01 -3.300000e+00  1.930000e+01
     vertex  1.250000e+01  3.300000e+00 -1.930000e+01
     vertex  1.250000e+01  3.300000e+00  1.930000e+01
   endloop
 endfacet
 facet normal -5.773503e-01  5.773503e-01  5.773503e-01
   outer loop
     vertex -1.180000e+01  3.300000e+00  2.000000e+01
     vertex -1.180000e+01  4.000000e+00  1.930000e+01
     vertex -1.250000e+01  3.300000e+00  1.930000e+01
   endloop
 endfacet
 facet normal  5.773503e-01  5.773503e-01  5.773503e-01
   outer loop
     vertex  1.180000e+01  4.000000e+00  1.930000e+01
     vertex  1.180000e+01  3.300000e+00  2.000000e+01
     vertex  1.250000e+01  3.300000e+00  1.930000e+01
   endloop
 endfacet
 facet normal  5.773503e-01  5.773503e-01 -5.773503e-01
   outer loop
     vertex  1.180000e+01  3.300000e+00 -2.000000e+01
     vertex  1.180000e+01  4.000000e+00 -1.930000e+01
     vertex  1.250000e+01  3.300000e+00 -1.930000e+01
   endloop
 endfacet
 facet normal  7.071068e-01  0.000000e+00  7.071068e-01
   outer loop
     vertex  1.250000e+01  3.300000e+00  1.930000e+01
     vertex  1.180000e+01 -3.300000e+00  2.000000e+01
     vertex  1.250000e+01 -3.300000e+00  1.930000e+01
   endloop
 endfacet
 facet normal  7.071068e-01  0.000000e+00  7.071068e-01
   outer loop
     vertex  1.250000e+01  3.300000e+00  1.930000e+01
     vertex  1.180000e+01  3.300000e+00  2.000000e+01
     vertex  1.180000e+01 -3.300000e+00  2.000000e+01
   endloop
 endfacet
endsolid
