solid 
 facet normal -1.000000e+00  0.000000e+00  0.000000e+00
   outer loop
     vertex -1.250000e+01 -1.110223e-15 -1.000000e+01
     vertex -1.250000e+01 -1.776357e-15 -1.500000e+01
     vertex -1.250000e+01 -4.000000e+00 -1.500000e+01
   endloop
 endfacet
 facet normal -1.000000e+00 -0.000000e+00  0.000000e+00
   outer loop
     vertex -1.250000e+01 -1.110223e-15 -1.000000e+01
     vertex -1.250000e+01 -4.000000e+00 -1.500000e+01
     vertex -1.250000e+01 -4.000000e+00 -1.000000e+01
   endloop
 endfacet
 facet normal -7.071068e-01  0.000000e+00  7.071068e-01
   outer loop
     vertex  1.250000e+01 -4.000000e+00  1.500000e+01
     vertex -1.250000e+01 -1.110223e-15 -1.000000e+01
     vertex -1.250000e+01 -4.000000e+00 -1.000000e+01
   endloop
 endfacet
 facet normal -7.071068e-01  0.000000e+00  7.071068e-01
   outer loop
     vertex  1.250000e+01  1.776357e-15  1.500000e+01
     vertex -1.250000e+01 -1.110223e-15 -1.000000e+01
     vertex  1.250000e+01 -4.000000e+00  1.500000e+01
   endloop
 endfacet
 facet normal  1.000000e+00  0.000000e+00 -0.000000e+00
   outer loop
     vertex  1.250000e+01  8.881784e-16  1.000000e+01
     vertex  1.250000e+01  1.776357e-15  1.500000e+01
     vertex  1.250000e+01 -4.000000e+00  1.500000e+01
   endloop
 endfacet
 facet normal  1.000000e+00  0.000000e+00  0.000000e+00
   outer loop
     vertex  1.250000e+01  8.881784e-16  1.000000e+01
     vertex  1.250000e+01 -4.000000e+00  1.500000e+01
     vertex  1.250000e+01 -4.000000e+00  1.000000e+01
   endloop
 endfacet
 facet normal  7.071068e-01  0.000000e+00 -7.071068e-01
   outer loop
     vertex -1.250000e+01 -4.000000e+00 -1.500000e+01
     vertex  1.250000e+01  8.881784e-16  1.000000e+01
     vertex  1.250000e+01 -4.000000e+00  1.000000e+01
   endloop
 endfacet
 facet normal  7.071068e-01  0.000000e+00 -7.071068e-01
   outer loop
     vertex -1.250000e+01 -1.776357e-15 -1.500000e+01
     vertex  1.250000e+01  8.881784e-16  1.000000e+01
     vertex -1.250000e+01 -4.000000e+00 -1.500000e+01
   endloop
 endfacet
 facet normal  2.664535e-17  1.000000e+00 -1.332268e-16
   outer loop
     vertex -1.250000e+01 -1.110223e-15 -1.000000e+01
     vertex  1.250000e+01  8.881784e-16  1.000000e+01
     vertex -1.250000e+01 -1.776357e-15 -1.500000e+01
   endloop
 endfacet
 facet normal  6.217249e-17  1.000000e+00 -1.776357e-16
   outer loop
     vertex  1.250000e+01  1.776357e-15  1.500000e+01
     vertex  1.250000e+01  8.881784e-16  1.000000e+01
     vertex -1.250000e+01 -1.110223e-15 -1.000000e+01
   endloop
 endfacet
 facet normal -7.105427e-17 -1.000000e+00  1.776357e-16
   outer loop
     vertex -1.250000e+01 -4.000000e+00 -1.000000e+01
     vertex -1.250000e+01 -4.000000e+00 -1.500000e+01
     vertex  1.250000e+01 -4.000000e+00  1.000000e+01
   endloop
 endfacet
 facet normal -7.105427e-17 -1.000000e+00  1.776357e-16
   outer loop
     vertex  1.250000e+01 -4.000000e+00  1.500000e+01
     vertex -1.250000e+01 -4.000000e+00 -1.000000e+01
     vertex  1.250000e+01 -4.000000e+00  1.000000e+01
   endloop
 endfacet
 facet normal -1.000000e+00  0.000000e+00  0.000000e+00
   outer loop
     vertex  1.250000e+01 -4.000000e+00  1.500000e+01
     vertex  1.250000e+01  0.000000e+00  1.000000e+01
     vertex  1.250000e+01 -4.000000e+00  1.000000e+01
   endloop
 endfacet
 facet normal -1.000000e+00  0.000000e+00  0.000000e+00
   outer loop
     vertex  1.250000e+01 -4.000000e+00  1.500000e+01
     vertex  1.250000e+01  0.000000e+00  1.500000e+01
     vertex  1.250000e+01  0.000000e+00  1.000000e+01
   endloop
 endfacet
 facet normal  1.000000e+00  0.000000e+00  0.000000e+00
   outer loop
     vertex  1.500000e+01 -4.000000e+00  1.500000e+01
     vertex  1.500000e+01 -4.000000e+00  1.000000e+01
     vertex  1.500000e+01  0.000000e+00  1.000000e+01
   endloop
 endfacet
 facet normal  1.000000e+00 -0.000000e+00  0.000000e+00
   outer loop
     vertex  1.500000e+01 -4.000000e+00  1.500000e+01
     vertex  1.500000e+01  0.000000e+00  1.000000e+01
     vertex  1.500000e+01  0.000000e+00  1.500000e+01
   endloop
 endfacet
 facet normal  0.000000e+00 -1.000000e+00 -0.000000e+00
   outer loop
     vertex  1.500000e+01 -4.000000e+00  1.500000e+01
     vertex  1.250000e+01 -4.000000e+00  1.000000e+01
     vertex  1.500000e+01 -4.000000e+00  1.000000e+01
   endloop
 endfacet
 facet normal -0.000000e+00 -1.000000e+00  0.000000e+00
   outer loop
     vertex  1.500000e+01 -4.000000e+00  1.500000e+01
     vertex  1.250000e+01 -4.000000e+00  1.500000e+01
     vertex  1.250000e+01 -4.000000e+00  1.000000e+01
   endloop
 endfacet
 facet normal  0.000000e+00  1.000000e+00  0.000000e+00
   outer loop
     vertex  1.500000e+01  0.000000e+00  1.500000e+01
     vertex  1.500000e+01  0.000000e+00  1.000000e+01
     vertex  1.250000e+01  0.000000e+00  1.000000e+01
   endloop
 endfacet
 facet normal  0.000000e+00  1.000000e+00  0.000000e+00
   outer loop
     vertex  1.500000e+01  0.000000e+00  1.500000e+01
     vertex  1.250000e+01  0.000000e+00  1.000000e+01
     vertex  1.250000e+01  0.000000e+00  1.500000e+01
   endloop
 endfacet
 facet normal -0.000000e+00  0.000000e+00 -1.000000e+00
   outer loop
     vertex  1.500000e+01  0.000000e+00  1.000000e+01
     vertex  1.250000e+01 -4.000000e+00  1.000000e+01
     vertex  1.250000e+01  0.000000e+00  1.000000e+01
   endloop
 endfacet
 facet normal  0.000000e+00 -0.000000e+00 -1.000000e+00
   outer loop
     vertex  1.500000e+01  0.000000e+00  1.000000e+01
     vertex  1.500000e+01 -4.000000e+00  1.000000e+01
     vertex  1.250000e+01 -4.000000e+00  1.000000e+01
   endloop
 endfacet
 facet normal  0.000000e+00  0.000000e+00  1.000000e+00
   outer loop
     vertex  1.500000e+01  0.000000e+00  1.500000e+01
     vertex  1.250000e+01  0.000000e+00  1.500000e+01
     vertex  1.250000e+01 -4.000000e+00  1.500000e+01
   endloop
 endfacet
 facet normal  0.000000e+00  0.000000e+00  1.000000e+00
   outer loop
     vertex  1.500000e+01  0.000000e+00  1.500000e+01
     vertex  1.250000e+01 -4.000000e+00  1.500000e+01
     vertex  1.500000e+01 -4.000000e+00  1.500000e+01
   endloop
 endfacet
 facet normal -1.000000e+00  0.000000e+00  0.000000e+00
   outer loop
     vertex -1.500000e+01 -4.000000e+00 -1.000000e+01
     vertex -1.500000e+01  0.000000e+00 -1.500000e+01
     vertex -1.500000e+01 -4.000000e+00 -1.500000e+01
   endloop
 endfacet
 facet normal -1.000000e+00  0.000000e+00  0.000000e+00
   outer loop
     vertex -1.500000e+01 -4.000000e+00 -1.000000e+01
     vertex -1.500000e+01  0.000000e+00 -1.000000e+01
     vertex -1.500000e+01  0.000000e+00 -1.500000e+01
   endloop
 endfacet
 facet normal  1.000000e+00  0.000000e+00  0.000000e+00
   outer loop
     vertex -1.250000e+01 -4.000000e+00 -1.000000e+01
     vertex -1.250000e+01 -4.000000e+00 -1.500000e+01
     vertex -1.250000e+01  0.000000e+00 -1.500000e+01
   endloop
 endfacet
 facet normal  1.000000e+00 -0.000000e+00  0.000000e+00
   outer loop
     vertex -1.250000e+01 -4.000000e+00 -1.000000e+01
     vertex -1.250000e+01  0.000000e+00 -1.500000e+01
     vertex -1.250000e+01  0.000000e+00 -1.000000e+01
   endloop
 endfacet
 facet normal  0.000000e+00 -1.000000e+00 -0.000000e+00
   outer loop
     vertex -1.250000e+01 -4.000000e+00 -1.000000e+01
     vertex -1.500000e+01 -4.000000e+00 -1.500000e+01
     vertex -1.250000e+01 -4.000000e+00 -1.500000e+01
   endloop
 endfacet
 facet normal -0.000000e+00 -1.000000e+00  0.000000e+00
   outer loop
     vertex -1.250000e+01 -4.000000e+00 -1.000000e+01
     vertex -1.500000e+01 -4.000000e+00 -1.000000e+01
     vertex -1.500000e+01 -4.000000e+00 -1.500000e+01
   endloop
 endfacet
 facet normal  0.000000e+00  1.000000e+00  0.000000e+00
   outer loop
     vertex -1.250000e+01  0.000000e+00 -1.000000e+01
     vertex -1.250000e+01  0.000000e+00 -1.500000e+01
     vertex -1.500000e+01  0.000000e+00 -1.500000e+01
   endloop
 endfacet
 facet normal  0.000000e+00  1.000000e+00  0.000000e+00
   outer loop
     vertex -1.250000e+01  0.000000e+00 -1.000000e+01
     vertex -1.500000e+01  0.000000e+00 -1.500000e+01
     vertex -1.500000e+01  0.000000e+00 -1.000000e+01
   endloop
 endfacet
 facet normal -0.000000e+00  0.000000e+00 -1.000000e+00
   outer loop
     vertex -1.250000e+01  0.000000e+00 -1.500000e+01
     vertex -1.500000e+01 -4.000000e+00 -1.500000e+01
     vertex -1.500000e+01  0.000000e+00 -1.500000e+01
   endloop
 endfacet
 facet normal  0.000000e+00 -0.000000e+00 -1.000000e+00
   outer loop
     vertex -1.250000e+01  0.000000e+00 -1.500000e+01
     vertex -1.250000e+01 -4.000000e+00 -1.500000e+01
     vertex -1.500000e+01 -4.000000e+00 -1.500000e+01
   endloop
 endfacet
 facet normal  0.000000e+00  0.000000e+00  1.000000e+00
   outer loop
     vertex -1.250000e+01  0.000000e+00 -1.000000e+01
     vertex -1.500000e+01  0.000000e+00 -1.000000e+01
     vertex -1.500000e+01 -4.000000e+00 -1.000000e+01
   endloop
 endfacet
 facet normal  0.000000e+00  0.000000e+00  1.000000e+00
   outer loop
     vertex -1.250000e+01  0.000000e+00 -1.000000e+01
     vertex -1.500000e+01 -4.000000e+00 -1.000000e+01
     vertex -1.250000e+01 -4.000000e+00 -1.000000e+01
   endloop
 endfacet
 facet normal -1.000000e+00  0.000000e+00  0.000000e+00
   outer loop
     vertex -1.500000e+01 -6.000000e+00 -1.200000e+01
     vertex -1.500000e+01 -4.000000e+00 -1.300000e+01
     vertex -1.500000e+01 -6.000000e+00 -1.300000e+01
   endloop
 endfacet
 facet normal -1.000000e+00  0.000000e+00  0.000000e+00
   outer loop
     vertex -1.500000e+01 -6.000000e+00 -1.200000e+01
     vertex -1.500000e+01 -4.000000e+00 -1.200000e+01
     vertex -1.500000e+01 -4.000000e+00 -1.300000e+01
   endloop
 endfacet
 facet normal  1.000000e+00  0.000000e+00  0.000000e+00
   outer loop
     vertex -1.000000e+01 -6.000000e+00 -1.200000e+01
     vertex -1.000000e+01 -6.000000e+00 -1.300000e+01
     vertex -1.000000e+01 -4.000000e+00 -1.300000e+01
   endloop
 endfacet
 facet normal  1.000000e+00 -0.000000e+00  0.000000e+00
   outer loop
     vertex -1.000000e+01 -6.000000e+00 -1.200000e+01
     vertex -1.000000e+01 -4.000000e+00 -1.300000e+01
     vertex -1.000000e+01 -4.000000e+00 -1.200000e+01
   endloop
 endfacet
 facet normal  0.000000e+00 -1.000000e+00 -0.000000e+00
   outer loop
     vertex -1.000000e+01 -6.000000e+00 -1.200000e+01
     vertex -1.500000e+01 -6.000000e+00 -1.300000e+01
     vertex -1.000000e+01 -6.000000e+00 -1.300000e+01
   endloop
 endfacet
 facet normal -0.000000e+00 -1.000000e+00  0.000000e+00
   outer loop
     vertex -1.000000e+01 -6.000000e+00 -1.200000e+01
     vertex -1.500000e+01 -6.000000e+00 -1.200000e+01
     vertex -1.500000e+01 -6.000000e+00 -1.300000e+01
   endloop
 endfacet
 facet normal  0.000000e+00  1.000000e+00  0.000000e+00
   outer loop
     vertex -1.000000e+01 -4.000000e+00 -1.200000e+01
     vertex -1.000000e+01 -4.000000e+00 -1.300000e+01
     vertex -1.500000e+01 -4.000000e+00 -1.300000e+01
   endloop
 endfacet
 facet normal  0.000000e+00  1.000000e+00  0.000000e+00
   outer loop
     vertex -1.000000e+01 -4.000000e+00 -1.200000e+01
     vertex -1.500000e+01 -4.000000e+00 -1.300000e+01
     vertex -1.500000e+01 -4.000000e+00 -1.200000e+01
   endloop
 endfacet
 facet normal -0.000000e+00  0.000000e+00 -1.000000e+00
   outer loop
     vertex -1.000000e+01 -4.000000e+00 -1.300000e+01
     vertex -1.500000e+01 -6.000000e+00 -1.300000e+01
     vertex -1.500000e+01 -4.000000e+00 -1.300000e+01
   endloop
 endfacet
 facet normal  0.000000e+00 -0.000000e+00 -1.000000e+00
   outer loop
     vertex -1.000000e+01 -4.000000e+00 -1.300000e+01
     vertex -1.000000e+01 -6.000000e+00 -1.300000e+01
     vertex -1.500000e+01 -6.000000e+00 -1.300000e+01
   endloop
 endfacet
 facet normal  0.000000e+00  0.000000e+00  1.000000e+00
   outer loop
     vertex -1.000000e+01 -4.000000e+00 -1.200000e+01
     vertex -1.500000e+01 -4.000000e+00 -1.200000e+01
     vertex -1.500000e+01 -6.000000e+00 -1.200000e+01
   endloop
 endfacet
 facet normal  0.000000e+00  0.000000e+00  1.000000e+00
   outer loop
     vertex -1.000000e+01 -4.000000e+00 -1.200000e+01
     vertex -1.500000e+01 -6.000000e+00 -1.200000e+01
     vertex -1.000000e+01 -6.000000e+00 -1.200000e+01
   endloop
 endfacet
 facet normal -1.000000e+00  0.000000e+00  0.000000e+00
   outer loop
     vertex -1.000000e+01 -6.000000e+00 -7.000000e+00
     vertex -1.000000e+01 -4.000000e+00 -8.000000e+00
     vertex -1.000000e+01 -6.000000e+00 -8.000000e+00
   endloop
 endfacet
 facet normal -1.000000e+00  0.000000e+00  0.000000e+00
   outer loop
     vertex -1.000000e+01 -6.000000e+00 -7.000000e+00
     vertex -1.000000e+01 -4.000000e+00 -7.000000e+00
     vertex -1.000000e+01 -4.000000e+00 -8.000000e+00
   endloop
 endfacet
 facet normal  1.000000e+00  0.000000e+00  0.000000e+00
   outer loop
     vertex -5.000000e+00 -6.000000e+00 -7.000000e+00
     vertex -5.000000e+00 -6.000000e+00 -8.000000e+00
     vertex -5.000000e+00 -4.000000e+00 -8.000000e+00
   endloop
 endfacet
 facet normal  1.000000e+00 -0.000000e+00  0.000000e+00
   outer loop
     vertex -5.000000e+00 -6.000000e+00 -7.000000e+00
     vertex -5.000000e+00 -4.000000e+00 -8.000000e+00
     vertex -5.000000e+00 -4.000000e+00 -7.000000e+00
   endloop
 endfacet
 facet normal  0.000000e+00 -1.000000e+00 -0.000000e+00
   outer loop
     vertex -5.000000e+00 -6.000000e+00 -7.000000e+00
     vertex -1.000000e+01 -6.000000e+00 -8.000000e+00
     vertex -5.000000e+00 -6.000000e+00 -8.000000e+00
   endloop
 endfacet
 facet normal -0.000000e+00 -1.000000e+00  0.000000e+00
   outer loop
     vertex -5.000000e+00 -6.000000e+00 -7.000000e+00
     vertex -1.000000e+01 -6.000000e+00 -7.000000e+00
     vertex -1.000000e+01 -6.000000e+00 -8.000000e+00
   endloop
 endfacet
 facet normal  0.000000e+00  1.000000e+00  0.000000e+00
   outer loop
     vertex -5.000000e+00 -4.000000e+00 -7.000000e+00
     vertex -5.000000e+00 -4.000000e+00 -8.000000e+00
     vertex -1.000000e+01 -4.000000e+00 -8.000000e+00
   endloop
 endfacet
 facet normal  0.000000e+00  1.000000e+00  0.000000e+00
   outer loop
     vertex -5.000000e+00 -4.000000e+00 -7.000000e+00
     vertex -1.000000e+01 -4.000000e+00 -8.000000e+00
     vertex -1.000000e+01 -4.000000e+00 -7.000000e+00
   endloop
 endfacet
 facet normal -0.000000e+00  0.000000e+00 -1.000000e+00
   outer loop
     vertex -5.000000e+00 -4.000000e+00 -8.000000e+00
     vertex -1.000000e+01 -6.000000e+00 -8.000000e+00
     vertex -1.000000e+01 -4.000000e+00 -8.000000e+00
   endloop
 endfacet
 facet normal  0.000000e+00 -0.000000e+00 -1.000000e+00
   outer loop
     vertex -5.000000e+00 -4.000000e+00 -8.000000e+00
     vertex -5.000000e+00 -6.000000e+00 -8.000000e+00
     vertex -1.000000e+01 -6.000000e+00 -8.000000e+00
   endloop
 endfacet
 facet normal  0.000000e+00  0.000000e+00  1.000000e+00
   outer loop
     vertex -5.000000e+00 -4.000000e+00 -7.000000e+00
     vertex -1.000000e+01 -4.000000e+00 -7.000000e+00
     vertex -1.000000e+01 -6.000000e+00 -7.000000e+00
   endloop
 endfacet
 facet normal  0.000000e+00  0.000000e+00  1.000000e+00
   outer loop
     vertex -5.000000e+00 -4.000000e+00 -7.000000e+00
     vertex -1.000000e+01 -6.000000e+00 -7.000000e+00
     vertex -5.000000e+00 -6.000000e+00 -7.000000e+00
   endloop
 endfacet
 facet normal -1.000000e+00  0.000000e+00  0.000000e+00
   outer loop
     vertex -5.000000e+00 -6.000000e+00 -2.000000e+00
     vertex -5.000000e+00 -4.000000e+00 -3.000000e+00
     vertex -5.000000e+00 -6.000000e+00 -3.000000e+00
   endloop
 endfacet
 facet normal -1.000000e+00  0.000000e+00  0.000000e+00
   outer loop
     vertex -5.000000e+00 -6.000000e+00 -2.000000e+00
     vertex -5.000000e+00 -4.000000e+00 -2.000000e+00
     vertex -5.000000e+00 -4.000000e+00 -3.000000e+00
   endloop
 endfacet
 facet normal  1.000000e+00  0.000000e+00  0.000000e+00
   outer loop
     vertex  0.000000e+00 -6.000000e+00 -2.000000e+00
     vertex  0.000000e+00 -6.000000e+00 -3.000000e+00
     vertex  0.000000e+00 -4.000000e+00 -3.000000e+00
   endloop
 endfacet
 facet normal  1.000000e+00 -0.000000e+00  0.000000e+00
   outer loop
     vertex  0.000000e+00 -6.000000e+00 -2.000000e+00
     vertex  0.000000e+00 -4.000000e+00 -3.000000e+00
     vertex  0.000000e+00 -4.000000e+00 -2.000000e+00
   endloop
 endfacet
 facet normal  0.000000e+00 -1.000000e+00 -0.000000e+00
   outer loop
     vertex  0.000000e+00 -6.000000e+00 -2.000000e+00
     vertex -5.000000e+00 -6.000000e+00 -3.000000e+00
     vertex  0.000000e+00 -6.000000e+00 -3.000000e+00
   endloop
 endfacet
 facet normal -0.000000e+00 -1.000000e+00  0.000000e+00
   outer loop
     vertex  0.000000e+00 -6.000000e+00 -2.000000e+00
     vertex -5.000000e+00 -6.000000e+00 -2.000000e+00
     vertex -5.000000e+00 -6.000000e+00 -3.000000e+00
   endloop
 endfacet
 facet normal  0.000000e+00  1.000000e+00  0.000000e+00
   outer loop
     vertex  0.000000e+00 -4.000000e+00 -2.000000e+00
     vertex  0.000000e+00 -4.000000e+00 -3.000000e+00
     vertex -5.000000e+00 -4.000000e+00 -3.000000e+00
   endloop
 endfacet
 facet normal  0.000000e+00  1.000000e+00  0.000000e+00
   outer loop
     vertex  0.000000e+00 -4.000000e+00 -2.000000e+00
     vertex -5.000000e+00 -4.000000e+00 -3.000000e+00
     vertex -5.000000e+00 -4.000000e+00 -2.000000e+00
   endloop
 endfacet
 facet normal -0.000000e+00  0.000000e+00 -1.000000e+00
   outer loop
     vertex  0.000000e+00 -4.000000e+00 -3.000000e+00
     vertex -5.000000e+00 -6.000000e+00 -3.000000e+00
     vertex -5.000000e+00 -4.000000e+00 -3.000000e+00
   endloop
 endfacet
 facet normal  0.000000e+00 -0.000000e+00 -1.000000e+00
   outer loop
     vertex  0.000000e+00 -4.000000e+00 -3.000000e+00
     vertex  0.000000e+00 -6.000000e+00 -3.000000e+00
     vertex -5.000000e+00 -6.000000e+00 -3.000000e+00
   endloop
 endfacet
 facet normal  0.000000e+00  0.000000e+00  1.000000e+00
   outer loop
     vertex  0.000000e+00 -4.000000e+00 -2.000000e+00
     vertex -5.000000e+00 -4.000000e+00 -2.000000e+00
     vertex -5.000000e+00 -6.000000e+00 -2.000000e+00
   endloop
 endfacet
 facet normal  0.000000e+00  0.000000e+00  1.000000e+00
   outer loop
     vertex  0.000000e+00 -4.000000e+00 -2.000000e+00
     vertex -5.000000e+00 -6.000000e+00 -2.000000e+00
     vertex  0.000000e+00 -6.000000e+00 -2.000000e+00
   endloop
 endfacet
 facet normal -1.000000e+00  0.000000e+00  0.000000e+00
   outer loop
     vertex  0.000000e+00 -6.000000e+00  3.000000e+00
     vertex  0.000000e+00 -4.000000e+00  2.000000e+00
     vertex  0.000000e+00 -6.000000e+00  2.000000e+00
   endloop
 endfacet
 facet normal -1.000000e+00  0.000000e+00  0.000000e+00
   outer loop
     vertex  0.000000e+00 -6.000000e+00  3.000000e+00
     vertex  0.000000e+00 -4.000000e+00  3.000000e+00
     vertex  0.000000e+00 -4.000000e+00  2.000000e+00
   endloop
 endfacet
 facet normal  1.000000e+00  0.000000e+00  0.000000e+00
   outer loop
     vertex  5.000000e+00 -6.000000e+00  3.000000e+00
     vertex  5.000000e+00 -6.000000e+00  2.000000e+00
     vertex  5.000000e+00 -4.000000e+00  2.000000e+00
   endloop
 endfacet
 facet normal  1.000000e+00 -0.000000e+00  0.000000e+00
   outer loop
     vertex  5.000000e+00 -6.000000e+00  3.000000e+00
     vertex  5.000000e+00 -4.000000e+00  2.000000e+00
     vertex  5.000000e+00 -4.000000e+00  3.000000e+00
   endloop
 endfacet
 facet normal  0.000000e+00 -1.000000e+00 -0.000000e+00
   outer loop
     vertex  5.000000e+00 -6.000000e+00  3.000000e+00
     vertex  0.000000e+00 -6.000000e+00  2.000000e+00
     vertex  5.000000e+00 -6.000000e+00  2.000000e+00
   endloop
 endfacet
 facet normal -0.000000e+00 -1.000000e+00  0.000000e+00
   outer loop
     vertex  5.000000e+00 -6.000000e+00  3.000000e+00
     vertex  0.000000e+00 -6.000000e+00  3.000000e+00
     vertex  0.000000e+00 -6.000000e+00  2.000000e+00
   endloop
 endfacet
 facet normal  0.000000e+00  1.000000e+00  0.000000e+00
   outer loop
     vertex  5.000000e+00 -4.000000e+00  3.000000e+00
     vertex  5.000000e+00 -4.000000e+00  2.000000e+00
     vertex  0.000000e+00 -4.000000e+00  2.000000e+00
   endloop
 endfacet
 facet normal  0.000000e+00  1.000000e+00  0.000000e+00
   outer loop
     vertex  5.000000e+00 -4.000000e+00  3.000000e+00
     vertex  0.000000e+00 -4.000000e+00  2.000000e+00
     vertex  0.000000e+00 -4.000000e+00  3.000000e+00
   endloop
 endfacet
 facet normal -0.000000e+00  0.000000e+00 -1.000000e+00
   outer loop
     vertex  5.000000e+00 -4.000000e+00  2.000000e+00
     vertex  0.000000e+00 -6.000000e+00  2.000000e+00
     vertex  0.000000e+00 -4.000000e+00  2.000000e+00
   endloop
 endfacet
 facet normal  0.000000e+00 -0.000000e+00 -1.000000e+00
   outer loop
     vertex  5.000000e+00 -4.000000e+00  2.000000e+00
     vertex  5.000000e+00 -6.000000e+00  2.000000e+00
     vertex  0.000000e+00 -6.000000e+00  2.000000e+00
   endloop
 endfacet
 facet normal  0.000000e+00  0.000000e+00  1.000000e+00
   outer loop
     vertex  5.000000e+00 -4.000000e+00  3.000000e+00
     vertex  0.000000e+00 -4.000000e+00  3.000000e+00
     vertex  0.000000e+00 -6.000000e+00  3.000000e+00
   endloop
 endfacet
 facet normal  0.000000e+00  0.000000e+00  1.000000e+00
   outer loop
     vertex  5.000000e+00 -4.000000e+00  3.000000e+00
     vertex  0.000000e+00 -6.000000e+00  3.000000e+00
     vertex  5.000000e+00 -6.000000e+00  3.000000e+00
   endloop
 endfacet
 facet normal -1.000000e+00  0.000000e+00  0.000000e+00
   outer loop
     vertex  5.000000e+00 -6.000000e+00  8.000000e+00
     vertex  5.000000e+00 -4.000000e+00  7.000000e+00
     vertex  5.000000e+00 -6.000000e+00  7.000000e+00
   endloop
 endfacet
 facet normal -1.000000e+00  0.000000e+00  0.000000e+00
   outer loop
     vertex  5.000000e+00 -6.000000e+00  8.000000e+00
     vertex  5.000000e+00 -4.000000e+00  8.000000e+00
     vertex  5.000000e+00 -4.000000e+00  7.000000e+00
   endloop
 endfacet
 facet normal  1.000000e+00  0.000000e+00  0.000000e+00
   outer loop
     vertex  1.000000e+01 -6.000000e+00  8.000000e+00
     vertex  1.000000e+01 -6.000000e+00  7.000000e+00
     vertex  1.000000e+01 -4.000000e+00  7.000000e+00
   endloop
 endfacet
 facet normal  1.000000e+00 -0.000000e+00  0.000000e+00
   outer loop
     vertex  1.000000e+01 -6.000000e+00  8.000000e+00
     vertex  1.000000e+01 -4.000000e+00  7.000000e+00
     vertex  1.000000e+01 -4.000000e+00  8.000000e+00
   endloop
 endfacet
 facet normal  0.000000e+00 -1.000000e+00 -0.000000e+00
   outer loop
     vertex  1.000000e+01 -6.000000e+00  8.000000e+00
     vertex  5.000000e+00 -6.000000e+00  7.000000e+00
     vertex  1.000000e+01 -6.000000e+00  7.000000e+00
   endloop
 endfacet
 facet normal -0.000000e+00 -1.000000e+00  0.000000e+00
   outer loop
     vertex  1.000000e+01 -6.000000e+00  8.000000e+00
     vertex  5.000000e+00 -6.000000e+00  8.000000e+00
     vertex  5.000000e+00 -6.000000e+00  7.000000e+00
   endloop
 endfacet
 facet normal  0.000000e+00  1.000000e+00  0.000000e+00
   outer loop
     vertex  1.000000e+01 -4.000000e+00  8.000000e+00
     vertex  1.000000e+01 -4.000000e+00  7.000000e+00
     vertex  5.000000e+00 -4.000000e+00  7.000000e+00
   endloop
 endfacet
 facet normal  0.000000e+00  1.000000e+00  0.000000e+00
   outer loop
     vertex  1.000000e+01 -4.000000e+00  8.000000e+00
     vertex  5.000000e+00 -4.000000e+00  7.000000e+00
     vertex  5.000000e+00 -4.000000e+00  8.000000e+00
   endloop
 endfacet
 facet normal -0.000000e+00  0.000000e+00 -1.000000e+00
   outer loop
     vertex  1.000000e+01 -4.000000e+00  7.000000e+00
     vertex  5.000000e+00 -6.000000e+00  7.000000e+00
     vertex  5.000000e+00 -4.000000e+00  7.000000e+00
   endloop
 endfacet
 facet normal  0.000000e+00 -0.000000e+00 -1.000000e+00
   outer loop
     vertex  1.000000e+01 -4.000000e+00  7.000000e+00
     vertex  1.000000e+01 -6.000000e+00  7.000000e+00
     vertex  5.000000e+00 -6.000000e+00  7.000000e+00
   endloop
 endfacet
 facet normal  0.000000e+00  0.000000e+00  1.000000e+00
   outer loop
     vertex  1.000000e+01 -4.000000e+00  8.000000e+00
     vertex  5.000000e+00 -4.000000e+00  8.000000e+00
     vertex  5.000000e+00 -6.000000e+00  8.000000e+00
   endloop
 endfacet
 facet normal  0.000000e+00  0.000000e+00  1.000000e+00
   outer loop
     vertex  1.000000e+01 -4.000000e+00  8.000000e+00
     vertex  5.000000e+00 -6.000000e+00  8.000000e+00
     vertex  1.000000e+01 -6.000000e+00  8.000000e+00
   endloop
 endfacet
 facet normal -1.000000e+00  0.000000e+00  0.000000e+00
   outer loop
     vertex  1.000000e+01 -6.000000e+00  1.300000e+01
     vertex  1.000000e+01 -4.000000e+00  1.200000e+01
     vertex  1.000000e+01 -6.000000e+00  1.200000e+01
   endloop
 endfacet
 facet normal -1.000000e+00  0.000000e+00  0.000000e+00
   outer loop
     vertex  1.000000e+01 -6.000000e+00  1.300000e+01
     vertex  1.000000e+01 -4.000000e+00  1.300000e+01
     vertex  1.000000e+01 -4.000000e+00  1.200000e+01
   endloop
 endfacet
 facet normal  1.000000e+00  0.000000e+00  0.000000e+00
   outer loop
     vertex  1.500000e+01 -6.000000e+00  1.300000e+01
     vertex  1.500000e+01 -6.000000e+00  1.200000e+01
     vertex  1.500000e+01 -4.000000e+00  1.200000e+01
   endloop
 endfacet
 facet normal  1.000000e+00 -0.000000e+00  0.000000e+00
   outer loop
     vertex  1.500000e+01 -6.000000e+00  1.300000e+01
     vertex  1.500000e+01 -4.000000e+00  1.200000e+01
     vertex  1.500000e+01 -4.000000e+00  1.300000e+01
   endloop
 endfacet
 facet normal  0.000000e+00 -1.000000e+00 -0.000000e+00
   outer loop
     vertex  1.500000e+01 -6.000000e+00  1.300000e+01
     vertex  1.000000e+01 -6.000000e+00  1.200000e+01
     vertex  1.500000e+01 -6.000000e+00  1.200000e+01
   endloop
 endfacet
 facet normal -0.000000e+00 -1.000000e+00  0.000000e+00
   outer loop
     vertex  1.500000e+01 -6.000000e+00  1.300000e+01
     vertex  1.000000e+01 -6.000000e+00  1.300000e+01
     vertex  1.000000e+01 -6.000000e+00  1.200000e+01
   endloop
 endfacet
 facet normal  0.000000e+00  1.000000e+00  0.000000e+00
   outer loop
     vertex  1.500000e+01 -4.000000e+00  1.300000e+01
     vertex  1.500000e+01 -4.000000e+00  1.200000e+01
     vertex  1.000000e+01 -4.000000e+00  1.200000e+01
   endloop
 endfacet
 facet normal  0.000000e+00  1.000000e+00  0.000000e+00
   outer loop
     vertex  1.500000e+01 -4.000000e+00  1.300000e+01
     vertex  1.000000e+01 -4.000000e+00  1.200000e+01
     vertex  1.000000e+01 -4.000000e+00  1.300000e+01
   endloop
 endfacet
 facet normal -0.000000e+00  0.000000e+00 -1.000000e+00
   outer loop
     vertex  1.500000e+01 -4.000000e+00  1.200000e+01
     vertex  1.000000e+01 -6.000000e+00  1.200000e+01
     vertex  1.000000e+01 -4.000000e+00  1.200000e+01
   endloop
 endfacet
 facet normal  0.000000e+00 -0.000000e+00 -1.000000e+00
   outer loop
     vertex  1.500000e+01 -4.000000e+00  1.200000e+01
     vertex  1.500000e+01 -6.000000e+00  1.200000e+01
     vertex  1.000000e+01 -6.000000e+00  1.200000e+01
   endloop
 endfacet
 facet normal  0.000000e+00  0.000000e+00  1.000000e+00
   outer loop
     vertex  1.500000e+01 -4.000000e+00  1.300000e+01
     vertex  1.000000e+01 -4.000000e+00  1.300000e+01
     vertex  1.000000e+01 -6.000000e+00  1.300000e+01
   endloop
 endfacet
 facet normal  0.000000e+00  0.000000e+00  1.000000e+00
   outer loop
     vertex  1.500000e+01 -4.000000e+00  1.300000e+01
     vertex  1.000000e+01 -6.000000e+00  1.300000e+01
     vertex  1.500000e+01 -6.000000e+00  1.300000e+01
   endloop
 endfacet
 facet normal -1.000000e+00  0.000000e+00  0.000000e+00
   outer loop
     vertex -1.250000e+01 -6.000000e+00 -1.000000e+01
     vertex -1.250000e+01 -6.000000e+00 -1.500000e+01
     vertex -1.250000e+01 -1.000000e+01 -1.500000e+01
   endloop
 endfacet
 facet normal -1.000000e+00 -0.000000e+00  0.000000e+00
   outer loop
     vertex -1.250000e+01 -6.000000e+00 -1.000000e+01
     vertex -1.250000e+01 -1.000000e+01 -1.500000e+01
     vertex -1.250000e+01 -1.000000e+01 -1.000000e+01
   endloop
 endfacet
 facet normal -7.071068e-01  0.000000e+00  7.071068e-01
   outer loop
     vertex  1.250000e+01 -1.000000e+01  1.500000e+01
     vertex -1.250000e+01 -6.000000e+00 -1.000000e+01
     vertex -1.250000e+01 -1.000000e+01 -1.000000e+01
   endloop
 endfacet
 facet normal -7.071068e-01  0.000000e+00  7.071068e-01
   outer loop
     vertex  1.250000e+01 -6.000000e+00  1.500000e+01
     vertex -1.250000e+01 -6.000000e+00 -1.000000e+01
     vertex  1.250000e+01 -1.000000e+01  1.500000e+01
   endloop
 endfacet
 facet normal  1.000000e+00  0.000000e+00 -0.000000e+00
   outer loop
     vertex  1.250000e+01 -6.000000e+00  1.000000e+01
     vertex  1.250000e+01 -6.000000e+00  1.500000e+01
     vertex  1.250000e+01 -1.000000e+01  1.500000e+01
   endloop
 endfacet
 facet normal  1.000000e+00  0.000000e+00  0.000000e+00
   outer loop
     vertex  1.250000e+01 -6.000000e+00  1.000000e+01
     vertex  1.250000e+01 -1.000000e+01  1.500000e+01
     vertex  1.250000e+01 -1.000000e+01  1.000000e+01
   endloop
 endfacet
 facet normal  7.071068e-01  0.000000e+00 -7.071068e-01
   outer loop
     vertex -1.250000e+01 -1.000000e+01 -1.500000e+01
     vertex  1.250000e+01 -6.000000e+00  1.000000e+01
     vertex  1.250000e+01 -1.000000e+01  1.000000e+01
   endloop
 endfacet
 facet normal  7.071068e-01  0.000000e+00 -7.071068e-01
   outer loop
     vertex -1.250000e+01 -6.000000e+00 -1.500000e+01
     vertex  1.250000e+01 -6.000000e+00  1.000000e+01
     vertex -1.250000e+01 -1.000000e+01 -1.500000e+01
   endloop
 endfacet
 facet normal  7.105427e-17  1.000000e+00 -1.776357e-16
   outer loop
     vertex -1.250000e+01 -6.000000e+00 -1.000000e+01
     vertex  1.250000e+01 -6.000000e+00  1.000000e+01
     vertex -1.250000e+01 -6.000000e+00 -1.500000e+01
   endloop
 endfacet
 facet normal  7.105427e-17  1.000000e+00 -1.776357e-16
   outer loop
     vertex  1.250000e+01 -6.000000e+00  1.500000e+01
     vertex  1.250000e+01 -6.000000e+00  1.000000e+01
     vertex -1.250000e+01 -6.000000e+00 -1.000000e+01
   endloop
 endfacet
 facet normal -2.842171e-16 -1.000000e+00  3.552714e-16
   outer loop
     vertex -1.250000e+01 -1.000000e+01 -1.000000e+01
     vertex -1.250000e+01 -1.000000e+01 -1.500000e+01
     vertex  1.250000e+01 -1.000000e+01  1.000000e+01
   endloop
 endfacet
 facet normal -2.842171e-16 -1.000000e+00  3.552714e-16
   outer loop
     vertex  1.250000e+01 -1.000000e+01  1.500000e+01
     vertex -1.250000e+01 -1.000000e+01 -1.000000e+01
     vertex  1.250000e+01 -1.000000e+01  1.000000e+01
   endloop
 endfacet
 facet normal -1.000000e+00  0.000000e+00  0.000000e+00
   outer loop
     vertex  1.250000e+01 -1.000000e+01  1.500000e+01
     vertex  1.250000e+01 -6.000000e+00  1.000000e+01
     vertex  1.250000e+01 -1.000000e+01  1.000000e+01
   endloop
 endfacet
 facet normal -1.000000e+00  0.000000e+00  0.000000e+00
   outer loop
     vertex  1.250000e+01 -1.000000e+01  1.500000e+01
     vertex  1.250000e+01 -6.000000e+00  1.500000e+01
     vertex  1.250000e+01 -6.000000e+00  1.000000e+01
   endloop
 endfacet
 facet normal  1.000000e+00  0.000000e+00  0.000000e+00
   outer loop
     vertex  1.500000e+01 -1.000000e+01  1.500000e+01
     vertex  1.500000e+01 -1.000000e+01  1.000000e+01
     vertex  1.500000e+01 -6.000000e+00  1.000000e+01
   endloop
 endfacet
 facet normal  1.000000e+00 -0.000000e+00  0.000000e+00
   outer loop
     vertex  1.500000e+01 -1.000000e+01  1.500000e+01
     vertex  1.500000e+01 -6.000000e+00  1.000000e+01
     vertex  1.500000e+01 -6.000000e+00  1.500000e+01
   endloop
 endfacet
 facet normal  0.000000e+00 -1.000000e+00 -0.000000e+00
   outer loop
     vertex  1.500000e+01 -1.000000e+01  1.500000e+01
     vertex  1.250000e+01 -1.000000e+01  1.000000e+01
     vertex  1.500000e+01 -1.000000e+01  1.000000e+01
   endloop
 endfacet
 facet normal -0.000000e+00 -1.000000e+00  0.000000e+00
   outer loop
     vertex  1.500000e+01 -1.000000e+01  1.500000e+01
     vertex  1.250000e+01 -1.000000e+01  1.500000e+01
     vertex  1.250000e+01 -1.000000e+01  1.000000e+01
   endloop
 endfacet
 facet normal  0.000000e+00  1.000000e+00  0.000000e+00
   outer loop
     vertex  1.500000e+01 -6.000000e+00  1.500000e+01
     vertex  1.500000e+01 -6.000000e+00  1.000000e+01
     vertex  1.250000e+01 -6.000000e+00  1.000000e+01
   endloop
 endfacet
 facet normal  0.000000e+00  1.000000e+00  0.000000e+00
   outer loop
     vertex  1.500000e+01 -6.000000e+00  1.500000e+01
     vertex  1.250000e+01 -6.000000e+00  1.000000e+01
     vertex  1.250000e+01 -6.000000e+00  1.500000e+01
   endloop
 endfacet
 facet normal -0.000000e+00  0.000000e+00 -1.000000e+00
   outer loop
     vertex  1.500000e+01 -6.000000e+00  1.000000e+01
     vertex  1.250000e+01 -1.000000e+01  1.000000e+01
     vertex  1.250000e+01 -6.000000e+00  1.000000e+01
   endloop
 endfacet
 facet normal  0.000000e+00 -0.000000e+00 -1.000000e+00
   outer loop
     vertex  1.500000e+01 -6.000000e+00  1.000000e+01
     vertex  1.500000e+01 -1.000000e+01  1.000000e+01
     vertex  1.250000e+01 -1.000000e+01  1.000000e+01
   endloop
 endfacet
 facet normal  0.000000e+00  0.000000e+00  1.000000e+00
   outer loop
     vertex  1.500000e+01 -6.000000e+00  1.500000e+01
     vertex  1.250000e+01 -6.000000e+00  1.500000e+01
     vertex  1.250000e+01 -1.000000e+01  1.500000e+01
   endloop
 endfacet
 facet normal  0.000000e+00  0.000000e+00  1.000000e+00
   outer loop
     vertex  1.500000e+01 -6.000000e+00  1.500000e+01
     vertex  1.250000e+01 -1.000000e+01  1.500000e+01
     vertex  1.500000e+01 -1.000000e+01  1.500000e+01
   endloop
 endfacet
 facet normal -1.000000e+00  0.000000e+00  0.000000e+00
   outer loop
     vertex -1.500000e+01 -1.000000e+01 -1.000000e+01
     vertex -1.500000e+01 -6.000000e+00 -1.500000e+01
     vertex -1.500000e+01 -1.000000e+01 -1.500000e+01
   endloop
 endfacet
 facet normal -1.000000e+00  0.000000e+00  0.000000e+00
   outer loop
     vertex -1.500000e+01 -1.000000e+01 -1.000000e+01
     vertex -1.500000e+01 -6.000000e+00 -1.000000e+01
     vertex -1.500000e+01 -6.000000e+00 -1.500000e+01
   endloop
 endfacet
 facet normal  1.000000e+00  0.000000e+00  0.000000e+00
   outer loop
     vertex -1.250000e+01 -1.000000e+01 -1.000000e+01
     vertex -1.250000e+01 -1.000000e+01 -1.500000e+01
     vertex -1.250000e+01 -6.000000e+00 -1.500000e+01
   endloop
 endfacet
 facet normal  1.000000e+00 -0.000000e+00  0.000000e+00
   outer loop
     vertex -1.250000e+01 -1.000000e+01 -1.000000e+01
     vertex -1.250000e+01 -6.000000e+00 -1.500000e+01
     vertex -1.250000e+01 -6.000000e+00 -1.000000e+01
   endloop
 endfacet
 facet normal  0.000000e+00 -1.000000e+00 -0.000000e+00
   outer loop
     vertex -1.250000e+01 -1.000000e+01 -1.000000e+01
     vertex -1.500000e+01 -1.000000e+01 -1.500000e+01
     vertex -1.250000e+01 -1.000000e+01 -1.500000e+01
   endloop
 endfacet
 facet normal -0.000000e+00 -1.000000e+00  0.000000e+00
   outer loop
     vertex -1.250000e+01 -1.000000e+01 -1.000000e+01
     vertex -1.500000e+01 -1.000000e+01 -1.000000e+01
     vertex -1.500000e+01 -1.000000e+01 -1.500000e+01
   endloop
 endfacet
 facet normal  0.000000e+00  1.000000e+00  0.000000e+00
   outer loop
     vertex -1.250000e+01 -6.000000e+00 -1.000000e+01
     vertex -1.250000e+01 -6.000000e+00 -1.500000e+01
     vertex -1.500000e+01 -6.000000e+00 -1.500000e+01
   endloop
 endfacet
 facet normal  0.000000e+00  1.000000e+00  0.000000e+00
   outer loop
     vertex -1.250000e+01 -6.000000e+00 -1.000000e+01
     vertex -1.500000e+01 -6.000000e+00 -1.500000e+01
     vertex -1.500000e+01 -6.000000e+00 -1.000000e+01
   endloop
 endfacet
 facet normal -0.000000e+00  0.000000e+00 -1.000000e+00
   outer loop
     vertex -1.250000e+01 -6.000000e+00 -1.500000e+01
     vertex -1.500000e+01 -1.000000e+01 -1.500000e+01
     vertex -1.500000e+01 -6.000000e+00 -1.500000e+01
   endloop
 endfacet
 facet normal  0.000000e+00 -0.000000e+00 -1.000000e+00
   outer loop
     vertex -1.250000e+01 -6.000000e+00 -1.500000e+01
     vertex -1.250000e+01 -1.000000e+01 -1.500000e+01
     vertex -1.500000e+01 -1.000000e+01 -1.500000e+01
   endloop
 endfacet
 facet normal  0.000000e+00  0.000000e+00  1.000000e+00
   outer loop
     vertex -1.250000e+01 -6.000000e+00 -1.000000e+01
     vertex -1.500000e+01 -6.000000e+00 -1.000000e+01
     vertex -1.500000e+01 -1.000000e+01 -1.000000e+01
   endloop
 endfacet
 facet normal  0.000000e+00  0.000000e+00  1.000000e+00
   outer loop
     vertex -1.250000e+01 -6.000000e+00 -1.000000e+01
     vertex -1.500000e+01 -1.000000e+01 -1.000000e+01
     vertex -1.250000e+01 -1.000000e+01 -1.000000e+01
   endloop
 endfacet
endsolid
