solid 
 facet normal -9.908302e-01  0.000000e+00  1.351132e-01
   outer loop
     vertex -3.500000e+00  1.500000e+00  4.000000e+00
     vertex -5.000000e+00  5.000000e+00 -7.000000e+00
     vertex -5.000000e+00 -5.000000e+00 -7.000000e+00
   endloop
 endfacet
 facet normal -9.908302e-01  0.000000e+00  1.351132e-01
   outer loop
     vertex -3.500000e+00  1.500000e+00  4.000000e+00
     vertex -5.000000e+00 -5.000000e+00 -7.000000e+00
     vertex -2.000000e+00  1.000000e+00  1.500000e+01
   endloop
 endfacet
 facet normal -9.908302e-01  0.000000e+00  1.351132e-01
   outer loop
     vertex -3.500000e+00  1.500000e+00  4.000000e+00
     vertex -2.000000e+00  1.000000e+00  1.500000e+01
     vertex -2.000000e+00  5.000000e+00  1.500000e+01
   endloop
 endfacet
 facet normal -9.908302e-01  0.000000e+00  1.351132e-01
   outer loop
     vertex -3.500000e+00  1.500000e+00  4.000000e+00
     vertex -2.000000e+00  5.000000e+00  1.500000e+01
     vertex -5.000000e+00  5.000000e+00 -7.000000e+00
   endloop
 endfacet
 facet normal -1.000000e+00  0.000000e+00  0.000000e+00
   outer loop
     vertex -5.000000e+00 -5.000000e+00 -7.000000e+00
     vertex -5.000000e+00  5.000000e+00 -1.500000e+01
     vertex -5.000000e+00 -5.000000e+00 -1.500000e+01
   endloop
 endfacet
 facet normal -1.000000e+00  0.000000e+00  0.000000e+00
   outer loop
     vertex -5.000000e+00 -5.000000e+00 -7.000000e+00
     vertex -5.000000e+00  5.000000e+00 -7.000000e+00
     vertex -5.000000e+00  5.000000e+00 -1.500000e+01
   endloop
 endfacet
 facet normal  0.000000e+00 -9.647638e-01  2.631174e-01
   outer loop
     vertex  0.000000e+00 -2.000000e+00  4.000000e+00
     vertex -5.000000e+00 -5.000000e+00 -7.000000e+00
     vertex  5.000000e+00 -5.000000e+00 -7.000000e+00
   endloop
 endfacet
 facet normal  0.000000e+00 -9.647638e-01  2.631174e-01
   outer loop
     vertex  0.000000e+00 -2.000000e+00  4.000000e+00
     vertex  5.000000e+00 -5.000000e+00 -7.000000e+00
     vertex  2.000000e+00  1.000000e+00  1.500000e+01
   endloop
 endfacet
 facet normal  0.000000e+00 -9.647638e-01  2.631174e-01
   outer loop
     vertex  0.000000e+00 -2.000000e+00  4.000000e+00
     vertex  2.000000e+00  1.000000e+00  1.500000e+01
     vertex -2.000000e+00  1.000000e+00  1.500000e+01
   endloop
 endfacet
 facet normal  0.000000e+00 -9.647638e-01  2.631174e-01
   outer loop
     vertex  0.000000e+00 -2.000000e+00  4.000000e+00
     vertex -2.000000e+00  1.000000e+00  1.500000e+01
     vertex -5.000000e+00 -5.000000e+00 -7.000000e+00
   endloop
 endfacet
 facet normal  0.000000e+00 -0.000000e+00  1.000000e+00
   outer loop
     vertex  2.000000e+00  1.000000e+00  1.500000e+01
     vertex  2.000000e+00  5.000000e+00  1.500000e+01
     vertex -2.000000e+00  5.000000e+00  1.500000e+01
   endloop
 endfacet
 facet normal  0.000000e+00  0.000000e+00  1.000000e+00
   outer loop
     vertex  2.000000e+00  1.000000e+00  1.500000e+01
     vertex -2.000000e+00  5.000000e+00  1.500000e+01
     vertex -2.000000e+00  1.000000e+00  1.500000e+01
   endloop
 endfacet
 facet normal -0.000000e+00  1.000000e+00  0.000000e+00
   outer loop
     vertex -5.000000e+00  5.000000e+00 -7.000000e+00
     vertex  5.000000e+00  5.000000e+00 -7.000000e+00
     vertex  5.000000e+00  5.000000e+00 -1.500000e+01
   endloop
 endfacet
 facet normal  0.000000e+00  1.000000e+00  0.000000e+00
   outer loop
     vertex -5.000000e+00  5.000000e+00 -7.000000e+00
     vertex  5.000000e+00  5.000000e+00 -1.500000e+01
     vertex -5.000000e+00  5.000000e+00 -1.500000e+01
   endloop
 endfacet
 facet normal -0.000000e+00  1.000000e+00  0.000000e+00
   outer loop
     vertex -2.000000e+00  5.000000e+00  1.500000e+01
     vertex  2.000000e+00  5.000000e+00  1.500000e+01
     vertex  5.000000e+00  5.000000e+00 -7.000000e+00
   endloop
 endfacet
 facet normal  0.000000e+00  1.000000e+00  0.000000e+00
   outer loop
     vertex -2.000000e+00  5.000000e+00  1.500000e+01
     vertex  5.000000e+00  5.000000e+00 -7.000000e+00
     vertex -5.000000e+00  5.000000e+00 -7.000000e+00
   endloop
 endfacet
 facet normal  0.000000e+00 -1.000000e+00 -0.000000e+00
   outer loop
     vertex  5.000000e+00 -5.000000e+00 -7.000000e+00
     vertex -5.000000e+00 -5.000000e+00 -1.500000e+01
     vertex  5.000000e+00 -5.000000e+00 -1.500000e+01
   endloop
 endfacet
 facet normal -0.000000e+00 -1.000000e+00  0.000000e+00
   outer loop
     vertex  5.000000e+00 -5.000000e+00 -7.000000e+00
     vertex -5.000000e+00 -5.000000e+00 -7.000000e+00
     vertex -5.000000e+00 -5.000000e+00 -1.500000e+01
   endloop
 endfacet
 facet normal -0.000000e+00  0.000000e+00 -1.000000e+00
   outer loop
     vertex  5.000000e+00  5.000000e+00 -1.500000e+01
     vertex -5.000000e+00 -5.000000e+00 -1.500000e+01
     vertex -5.000000e+00  5.000000e+00 -1.500000e+01
   endloop
 endfacet
 facet normal  0.000000e+00 -0.000000e+00 -1.000000e+00
   outer loop
     vertex  5.000000e+00  5.000000e+00 -1.500000e+01
     vertex  5.000000e+00 -5.000000e+00 -1.500000e+01
     vertex -5.000000e+00 -5.000000e+00 -1.500000e+01
   endloop
 endfacet
 facet normal  9.908302e-01  0.000000e+00  1.351132e-01
   outer loop
     vertex  3.500000e+00  1.500000e+00  4.000000e+00
     vertex  5.000000e+00 -5.000000e+00 -7.000000e+00
     vertex  5.000000e+00  5.000000e+00 -7.000000e+00
   endloop
 endfacet
 facet normal  9.908302e-01  0.000000e+00  1.351132e-01
   outer loop
     vertex  3.500000e+00  1.500000e+00  4.000000e+00
     vertex  5.000000e+00  5.000000e+00 -7.000000e+00
     vertex  2.000000e+00  5.000000e+00  1.500000e+01
   endloop
 endfacet
 facet normal  9.908302e-01  0.000000e+00  1.351132e-01
   outer loop
     vertex  3.500000e+00  1.500000e+00  4.000000e+00
     vertex  2.000000e+00  5.000000e+00  1.500000e+01
     vertex  2.000000e+00  1.000000e+00  1.500000e+01
   endloop
 endfacet
 facet normal  9.908302e-01  0.000000e+00  1.351132e-01
   outer loop
     vertex  3.500000e+00  1.500000e+00  4.000000e+00
     vertex  2.000000e+00  1.000000e+00  1.500000e+01
     vertex  5.000000e+00 -5.000000e+00 -7.000000e+00
   endloop
 endfacet
 facet normal  1.000000e+00  0.000000e+00  0.000000e+00
   outer loop
     vertex  5.000000e+00 -5.000000e+00 -7.000000e+00
     vertex  5.000000e+00 -5.000000e+00 -1.500000e+01
     vertex  5.000000e+00  5.000000e+00 -1.500000e+01
   endloop
 endfacet
 facet normal  1.000000e+00 -0.000000e+00  0.000000e+00
   outer loop
     vertex  5.000000e+00 -5.000000e+00 -7.000000e+00
     vertex  5.000000e+00  5.000000e+00 -1.500000e+01
     vertex  5.000000e+00  5.000000e+00 -7.000000e+00
   endloop
 endfacet
endsolid
