solid 
 facet normal -7.071068e-01 -7.071068e-01  0.000000e+00
   outer loop
     vertex  5.500000e+00  4.368629e+00 -5.000000e-01
     vertex  4.368629e+00  5.500000e+00  5.000000e-01
     vertex  4.368629e+00  5.500000e+00 -5.000000e-01
   endloop
 endfacet
 facet normal -7.071068e-01 -7.071068e-01  0.000000e+00
   outer loop
     vertex  5.500000e+00  4.368629e+00 -5.000000e-01
     vertex  5.500000e+00  4.368629e+00  5.000000e-01
     vertex  4.368629e+00  5.500000e+00  5.000000e-01
   endloop
 endfacet
 facet normal  7.071068e-01 -7.071068e-01  0.000000e+00
   outer loop
     vertex  6.631371e+00  5.500000e+00 -5.000000e-01
     vertex  5.500000e+00  4.368629e+00  5.000000e-01
     vertex  5.500000e+00  4.368629e+00 -5.000000e-01
   endloop
 endfacet
 facet normal  7.071068e-01 -7.071068e-01  0.000000e+00
   outer loop
     vertex  6.631371e+00  5.500000e+00 -5.000000e-01
     vertex  6.631371e+00  5.500000e+00  5.000000e-01
     vertex  5.500000e+00  4.368629e+00  5.000000e-01
   endloop
 endfacet
 facet normal  7.071068e-01  7.071068e-01  0.000000e+00
   outer loop
     vertex  5.500000e+00  6.631371e+00 -5.000000e-01
     vertex  6.631371e+00  5.500000e+00  5.000000e-01
     vertex  6.631371e+00  5.500000e+00 -5.000000e-01
   endloop
 endfacet
 facet normal  7.071068e-01  7.071068e-01 -0.000000e+00
   outer loop
     vertex  5.500000e+00  6.631371e+00 -5.000000e-01
     vertex  5.500000e+00  6.631371e+00  5.000000e-01
     vertex  6.631371e+00  5.500000e+00  5.000000e-01
   endloop
 endfacet
 facet normal -7.071068e-01  7.071068e-01  0.000000e+00
   outer loop
     vertex  4.368629e+00  5.500000e+00 -5.000000e-01
     vertex  5.500000e+00  6.631371e+00  5.000000e-01
     vertex  5.500000e+00  6.631371e+00 -5.000000e-01
   endloop
 endfacet
 facet normal -7.071068e-01  7.071068e-01  0.000000e+00
   outer loop
     vertex  4.368629e+00  5.500000e+00 -5.000000e-01
     vertex  4.368629e+00  5.500000e+00  5.000000e-01
     vertex  5.500000e+00  6.631371e+00  5.000000e-01
   endloop
 endfacet
 facet normal -0.000000e+00  0.000000e+00 -1.000000e+00
   outer loop
     vertex  6.631371e+00  5.500000e+00 -5.000000e-01
     vertex  5.500000e+00  4.368629e+00 -5.000000e-01
     vertex  4.368629e+00  5.500000e+00 -5.000000e-01
   endloop
 endfacet
 facet normal  0.000000e+00  0.000000e+00 -1.000000e+00
   outer loop
     vertex  6.631371e+00  5.500000e+00 -5.000000e-01
     vertex  4.368629e+00  5.500000e+00 -5.000000e-01
     vertex  5.500000e+00  6.631371e+00 -5.000000e-01
   endloop
 endfacet
 facet normal  0.000000e+00  0.000000e+00  1.000000e+00
   outer loop
     vertex  6.631371e+00  5.500000e+00  5.000000e-01
     vertex  4.368629e+00  5.500000e+00  5.000000e-01
     vertex  5.500000e+00  4.368629e+00  5.000000e-01
   endloop
 endfacet
 facet normal  0.000000e+00  0.000000e+00  1.000000e+00
   outer loop
     vertex  6.631371e+00  5.500000e+00  5.000000e-01
     vertex  5.500000e+00  6.631371e+00  5.000000e-01
     vertex  4.368629e+00  5.500000e+00  5.000000e-01
   endloop
 endfacet
 facet normal -7.071068e-01 -7.071068e-01  0.000000e+00
   outer loop
     vertex  5.500000e+00 -6.631371e+00 -5.000000e-01
     vertex  4.368629e+00 -5.500000e+00  5.000000e-01
     vertex  4.368629e+00 -5.500000e+00 -5.000000e-01
   endloop
 endfacet
 facet normal -7.071068e-01 -7.071068e-01  0.000000e+00
   outer loop
     vertex  5.500000e+00 -6.631371e+00 -5.000000e-01
     vertex  5.500000e+00 -6.631371e+00  5.000000e-01
     vertex  4.368629e+00 -5.500000e+00  5.000000e-01
   endloop
 endfacet
 facet normal  7.071068e-01 -7.071068e-01  0.000000e+00
   outer loop
     vertex  6.631371e+00 -5.500000e+00 -5.000000e-01
     vertex  5.500000e+00 -6.631371e+00  5.000000e-01
     vertex  5.500000e+00 -6.631371e+00 -5.000000e-01
   endloop
 endfacet
 facet normal  7.071068e-01 -7.071068e-01  0.000000e+00
   outer loop
     vertex  6.631371e+00 -5.500000e+00 -5.000000e-01
     vertex  6.631371e+00 -5.500000e+00  5.000000e-01
     vertex  5.500000e+00 -6.631371e+00  5.000000e-01
   endloop
 endfacet
 facet normal  7.071068e-01  7.071068e-01  0.000000e+00
   outer loop
     vertex  5.500000e+00 -4.368629e+00 -5.000000e-01
     vertex  6.631371e+00 -5.500000e+00  5.000000e-01
     vertex  6.631371e+00 -5.500000e+00 -5.000000e-01
   endloop
 endfacet
 facet normal  7.071068e-01  7.071068e-01 -0.000000e+00
   outer loop
     vertex  5.500000e+00 -4.368629e+00 -5.000000e-01
     vertex  5.500000e+00 -4.368629e+00  5.000000e-01
     vertex  6.631371e+00 -5.500000e+00  5.000000e-01
   endloop
 endfacet
 facet normal -7.071068e-01  7.071068e-01  0.000000e+00
   outer loop
     vertex  4.368629e+00 -5.500000e+00 -5.000000e-01
     vertex  5.500000e+00 -4.368629e+00  5.000000e-01
     vertex  5.500000e+00 -4.368629e+00 -5.000000e-01
   endloop
 endfacet
 facet normal -7.071068e-01  7.071068e-01  0.000000e+00
   outer loop
     vertex  4.368629e+00 -5.500000e+00 -5.000000e-01
     vertex  4.368629e+00 -5.500000e+00  5.000000e-01
     vertex  5.500000e+00 -4.368629e+00  5.000000e-01
   endloop
 endfacet
 facet normal -0.000000e+00  0.000000e+00 -1.000000e+00
   outer loop
     vertex  6.631371e+00 -5.500000e+00 -5.000000e-01
     vertex  5.500000e+00 -6.631371e+00 -5.000000e-01
     vertex  4.368629e+00 -5.500000e+00 -5.000000e-01
   endloop
 endfacet
 facet normal  0.000000e+00  0.000000e+00 -1.000000e+00
   outer loop
     vertex  6.631371e+00 -5.500000e+00 -5.000000e-01
     vertex  4.368629e+00 -5.500000e+00 -5.000000e-01
     vertex  5.500000e+00 -4.368629e+00 -5.000000e-01
   endloop
 endfacet
 facet normal  0.000000e+00  0.000000e+00  1.000000e+00
   outer loop
     vertex  6.631371e+00 -5.500000e+00  5.000000e-01
     vertex  4.368629e+00 -5.500000e+00  5.000000e-01
     vertex  5.500000e+00 -6.631371e+00  5.000000e-01
   endloop
 endfacet
 facet normal  0.000000e+00  0.000000e+00  1.000000e+00
   outer loop
     vertex  6.631371e+00 -5.500000e+00  5.000000e-01
     vertex  5.500000e+00 -4.368629e+00  5.000000e-01
     vertex  4.368629e+00 -5.500000e+00  5.000000e-01
   endloop
 endfacet
 facet normal -7.071068e-01 -7.071068e-01  0.000000e+00
   outer loop
     vertex -5.500000e+00 -6.631371e+00 -5.000000e-01
     vertex -6.631371e+00 -5.500000e+00  5.000000e-01
     vertex -6.631371e+00 -5.500000e+00 -5.000000e-01
   endloop
 endfacet
 facet normal -7.071068e-01 -7.071068e-01  0.000000e+00
   outer loop
     vertex -5.500000e+00 -6.631371e+00 -5.000000e-01
     vertex -5.500000e+00 -6.631371e+00  5.000000e-01
     vertex -6.631371e+00 -5.500000e+00  5.000000e-01
   endloop
 endfacet
 facet normal  7.071068e-01 -7.071068e-01  0.000000e+00
   outer loop
     vertex -4.368629e+00 -5.500000e+00 -5.000000e-01
     vertex -5.500000e+00 -6.631371e+00  5.000000e-01
     vertex -5.500000e+00 -6.631371e+00 -5.000000e-01
   endloop
 endfacet
 facet normal  7.071068e-01 -7.071068e-01  0.000000e+00
   outer loop
     vertex -4.368629e+00 -5.500000e+00 -5.000000e-01
     vertex -4.368629e+00 -5.500000e+00  5.000000e-01
     vertex -5.500000e+00 -6.631371e+00  5.000000e-01
   endloop
 endfacet
 facet normal  7.071068e-01  7.071068e-01  0.000000e+00
   outer loop
     vertex -5.500000e+00 -4.368629e+00 -5.000000e-01
     vertex -4.368629e+00 -5.500000e+00  5.000000e-01
     vertex -4.368629e+00 -5.500000e+00 -5.000000e-01
   endloop
 endfacet
 facet normal  7.071068e-01  7.071068e-01 -0.000000e+00
   outer loop
     vertex -5.500000e+00 -4.368629e+00 -5.000000e-01
     vertex -5.500000e+00 -4.368629e+00  5.000000e-01
     vertex -4.368629e+00 -5.500000e+00  5.000000e-01
   endloop
 endfacet
 facet normal -7.071068e-01  7.071068e-01  0.000000e+00
   outer loop
     vertex -6.631371e+00 -5.500000e+00 -5.000000e-01
     vertex -5.500000e+00 -4.368629e+00  5.000000e-01
     vertex -5.500000e+00 -4.368629e+00 -5.000000e-01
   endloop
 endfacet
 facet normal -7.071068e-01  7.071068e-01  0.000000e+00
   outer loop
     vertex -6.631371e+00 -5.500000e+00 -5.000000e-01
     vertex -6.631371e+00 -5.500000e+00  5.000000e-01
     vertex -5.500000e+00 -4.368629e+00  5.000000e-01
   endloop
 endfacet
 facet normal -0.000000e+00  0.000000e+00 -1.000000e+00
   outer loop
     vertex -4.368629e+00 -5.500000e+00 -5.000000e-01
     vertex -5.500000e+00 -6.631371e+00 -5.000000e-01
     vertex -6.631371e+00 -5.500000e+00 -5.000000e-01
   endloop
 endfacet
 facet normal  0.000000e+00  0.000000e+00 -1.000000e+00
   outer loop
     vertex -4.368629e+00 -5.500000e+00 -5.000000e-01
     vertex -6.631371e+00 -5.500000e+00 -5.000000e-01
     vertex -5.500000e+00 -4.368629e+00 -5.000000e-01
   endloop
 endfacet
 facet normal  0.000000e+00  0.000000e+00  1.000000e+00
   outer loop
     vertex -4.368629e+00 -5.500000e+00  5.000000e-01
     vertex -6.631371e+00 -5.500000e+00  5.000000e-01
     vertex -5.500000e+00 -6.631371e+00  5.000000e-01
   endloop
 endfacet
 facet normal  0.000000e+00  0.000000e+00  1.000000e+00
   outer loop
     vertex -4.368629e+00 -5.500000e+00  5.000000e-01
     vertex -5.500000e+00 -4.368629e+00  5.000000e-01
     vertex -6.631371e+00 -5.500000e+00  5.000000e-01
   endloop
 endfacet
 facet normal -7.071068e-01 -7.071068e-01  0.000000e+00
   outer loop
     vertex -5.500000e+00  4.368629e+00 -5.000000e-01
     vertex -6.631371e+00  5.500000e+00  5.000000e-01
     vertex -6.631371e+00  5.500000e+00 -5.000000e-01
   endloop
 endfacet
 facet normal -7.071068e-01 -7.071068e-01  0.000000e+00
   outer loop
     vertex -5.500000e+00  4.368629e+00 -5.000000e-01
     vertex -5.500000e+00  4.368629e+00  5.000000e-01
     vertex -6.631371e+00  5.500000e+00  5.000000e-01
   endloop
 endfacet
 facet normal  7.071068e-01 -7.071068e-01  0.000000e+00
   outer loop
     vertex -4.368629e+00  5.500000e+00 -5.000000e-01
     vertex -5.500000e+00  4.368629e+00  5.000000e-01
     vertex -5.500000e+00  4.368629e+00 -5.000000e-01
   endloop
 endfacet
 facet normal  7.071068e-01 -7.071068e-01  0.000000e+00
   outer loop
     vertex -4.368629e+00  5.500000e+00 -5.000000e-01
     vertex -4.368629e+00  5.500000e+00  5.000000e-01
     vertex -5.500000e+00  4.368629e+00  5.000000e-01
   endloop
 endfacet
 facet normal  7.071068e-01  7.071068e-01  0.000000e+00
   outer loop
     vertex -5.500000e+00  6.631371e+00 -5.000000e-01
     vertex -4.368629e+00  5.500000e+00  5.000000e-01
     vertex -4.368629e+00  5.500000e+00 -5.000000e-01
   endloop
 endfacet
 facet normal  7.071068e-01  7.071068e-01 -0.000000e+00
   outer loop
     vertex -5.500000e+00  6.631371e+00 -5.000000e-01
     vertex -5.500000e+00  6.631371e+00  5.000000e-01
     vertex -4.368629e+00  5.500000e+00  5.000000e-01
   endloop
 endfacet
 facet normal -7.071068e-01  7.071068e-01  0.000000e+00
   outer loop
     vertex -6.631371e+00  5.500000e+00 -5.000000e-01
     vertex -5.500000e+00  6.631371e+00  5.000000e-01
     vertex -5.500000e+00  6.631371e+00 -5.000000e-01
   endloop
 endfacet
 facet normal -7.071068e-01  7.071068e-01  0.000000e+00
   outer loop
     vertex -6.631371e+00  5.500000e+00 -5.000000e-01
     vertex -6.631371e+00  5.500000e+00  5.000000e-01
     vertex -5.500000e+00  6.631371e+00  5.000000e-01
   endloop
 endfacet
 facet normal -0.000000e+00  0.000000e+00 -1.000000e+00
   outer loop
     vertex -4.368629e+00  5.500000e+00 -5.000000e-01
     vertex -5.500000e+00  4.368629e+00 -5.000000e-01
     vertex -6.631371e+00  5.500000e+00 -5.000000e-01
   endloop
 endfacet
 facet normal  0.000000e+00  0.000000e+00 -1.000000e+00
   outer loop
     vertex -4.368629e+00  5.500000e+00 -5.000000e-01
     vertex -6.631371e+00  5.500000e+00 -5.000000e-01
     vertex -5.500000e+00  6.631371e+00 -5.000000e-01
   endloop
 endfacet
 facet normal  0.000000e+00  0.000000e+00  1.000000e+00
   outer loop
     vertex -4.368629e+00  5.500000e+00  5.000000e-01
     vertex -6.631371e+00  5.500000e+00  5.000000e-01
     vertex -5.500000e+00  4.368629e+00  5.000000e-01
   endloop
 endfacet
 facet normal  0.000000e+00  0.000000e+00  1.000000e+00
   outer loop
     vertex -4.368629e+00  5.500000e+00  5.000000e-01
     vertex -5.500000e+00  6.631371e+00  5.000000e-01
     vertex -6.631371e+00  5.500000e+00  5.000000e-01
   endloop
 endfacet
 facet normal -7.071068e-01 -7.071068e-01  0.000000e+00
   outer loop
     vertex  0.000000e+00  4.368629e+00 -5.000000e-01
     vertex -1.131371e+00  5.500000e+00  5.000000e-01
     vertex -1.131371e+00  5.500000e+00 -5.000000e-01
   endloop
 endfacet
 facet normal -7.071068e-01 -7.071068e-01  0.000000e+00
   outer loop
     vertex  0.000000e+00  4.368629e+00 -5.000000e-01
     vertex  0.000000e+00  4.368629e+00  5.000000e-01
     vertex -1.131371e+00  5.500000e+00  5.000000e-01
   endloop
 endfacet
 facet normal  7.071068e-01 -7.071068e-01  0.000000e+00
   outer loop
     vertex  1.131371e+00  5.500000e+00 -5.000000e-01
     vertex  0.000000e+00  4.368629e+00  5.000000e-01
     vertex  0.000000e+00  4.368629e+00 -5.000000e-01
   endloop
 endfacet
 facet normal  7.071068e-01 -7.071068e-01  0.000000e+00
   outer loop
     vertex  1.131371e+00  5.500000e+00 -5.000000e-01
     vertex  1.131371e+00  5.500000e+00  5.000000e-01
     vertex  0.000000e+00  4.368629e+00  5.000000e-01
   endloop
 endfacet
 facet normal  7.071068e-01  7.071068e-01  0.000000e+00
   outer loop
     vertex  0.000000e+00  6.631371e+00 -5.000000e-01
     vertex  1.131371e+00  5.500000e+00  5.000000e-01
     vertex  1.131371e+00  5.500000e+00 -5.000000e-01
   endloop
 endfacet
 facet normal  7.071068e-01  7.071068e-01 -0.000000e+00
   outer loop
     vertex  0.000000e+00  6.631371e+00 -5.000000e-01
     vertex  0.000000e+00  6.631371e+00  5.000000e-01
     vertex  1.131371e+00  5.500000e+00  5.000000e-01
   endloop
 endfacet
 facet normal -7.071068e-01  7.071068e-01  0.000000e+00
   outer loop
     vertex -1.131371e+00  5.500000e+00 -5.000000e-01
     vertex  0.000000e+00  6.631371e+00  5.000000e-01
     vertex  0.000000e+00  6.631371e+00 -5.000000e-01
   endloop
 endfacet
 facet normal -7.071068e-01  7.071068e-01  0.000000e+00
   outer loop
     vertex -1.131371e+00  5.500000e+00 -5.000000e-01
     vertex -1.131371e+00  5.500000e+00  5.000000e-01
     vertex  0.000000e+00  6.631371e+00  5.000000e-01
   endloop
 endfacet
 facet normal -0.000000e+00  0.000000e+00 -1.000000e+00
   outer loop
     vertex  1.131371e+00  5.500000e+00 -5.000000e-01
     vertex  0.000000e+00  4.368629e+00 -5.000000e-01
     vertex -1.131371e+00  5.500000e+00 -5.000000e-01
   endloop
 endfacet
 facet normal  0.000000e+00  0.000000e+00 -1.000000e+00
   outer loop
     vertex  1.131371e+00  5.500000e+00 -5.000000e-01
     vertex -1.131371e+00  5.500000e+00 -5.000000e-01
     vertex  0.000000e+00  6.631371e+00 -5.000000e-01
   endloop
 endfacet
 facet normal  0.000000e+00  0.000000e+00  1.000000e+00
   outer loop
     vertex  1.131371e+00  5.500000e+00  5.000000e-01
     vertex -1.131371e+00  5.500000e+00  5.000000e-01
     vertex  0.000000e+00  4.368629e+00  5.000000e-01
   endloop
 endfacet
 facet normal  0.000000e+00  0.000000e+00  1.000000e+00
   outer loop
     vertex  1.131371e+00  5.500000e+00  5.000000e-01
     vertex  0.000000e+00  6.631371e+00  5.000000e-01
     vertex -1.131371e+00  5.500000e+00  5.000000e-01
   endloop
 endfacet
 facet normal -7.071068e-01 -7.071068e-01  0.000000e+00
   outer loop
     vertex  0.000000e+00 -6.631371e+00 -5.000000e-01
     vertex -1.131371e+00 -5.500000e+00  5.000000e-01
     vertex -1.131371e+00 -5.500000e+00 -5.000000e-01
   endloop
 endfacet
 facet normal -7.071068e-01 -7.071068e-01  0.000000e+00
   outer loop
     vertex  0.000000e+00 -6.631371e+00 -5.000000e-01
     vertex  0.000000e+00 -6.631371e+00  5.000000e-01
     vertex -1.131371e+00 -5.500000e+00  5.000000e-01
   endloop
 endfacet
 facet normal  7.071068e-01 -7.071068e-01  0.000000e+00
   outer loop
     vertex  1.131371e+00 -5.500000e+00 -5.000000e-01
     vertex  0.000000e+00 -6.631371e+00  5.000000e-01
     vertex  0.000000e+00 -6.631371e+00 -5.000000e-01
   endloop
 endfacet
 facet normal  7.071068e-01 -7.071068e-01  0.000000e+00
   outer loop
     vertex  1.131371e+00 -5.500000e+00 -5.000000e-01
     vertex  1.131371e+00 -5.500000e+00  5.000000e-01
     vertex  0.000000e+00 -6.631371e+00  5.000000e-01
   endloop
 endfacet
 facet normal  7.071068e-01  7.071068e-01  0.000000e+00
   outer loop
     vertex  0.000000e+00 -4.368629e+00 -5.000000e-01
     vertex  1.131371e+00 -5.500000e+00  5.000000e-01
     vertex  1.131371e+00 -5.500000e+00 -5.000000e-01
   endloop
 endfacet
 facet normal  7.071068e-01  7.071068e-01 -0.000000e+00
   outer loop
     vertex  0.000000e+00 -4.368629e+00 -5.000000e-01
     vertex  0.000000e+00 -4.368629e+00  5.000000e-01
     vertex  1.131371e+00 -5.500000e+00  5.000000e-01
   endloop
 endfacet
 facet normal -7.071068e-01  7.071068e-01  0.000000e+00
   outer loop
     vertex -1.131371e+00 -5.500000e+00 -5.000000e-01
     vertex  0.000000e+00 -4.368629e+00  5.000000e-01
     vertex  0.000000e+00 -4.368629e+00 -5.000000e-01
   endloop
 endfacet
 facet normal -7.071068e-01  7.071068e-01  0.000000e+00
   outer loop
     vertex -1.131371e+00 -5.500000e+00 -5.000000e-01
     vertex -1.131371e+00 -5.500000e+00  5.000000e-01
     vertex  0.000000e+00 -4.368629e+00  5.000000e-01
   endloop
 endfacet
 facet normal -0.000000e+00  0.000000e+00 -1.000000e+00
   outer loop
     vertex  1.131371e+00 -5.500000e+00 -5.000000e-01
     vertex  0.000000e+00 -6.631371e+00 -5.000000e-01
     vertex -1.131371e+00 -5.500000e+00 -5.000000e-01
   endloop
 endfacet
 facet normal  0.000000e+00  0.000000e+00 -1.000000e+00
   outer loop
     vertex  1.131371e+00 -5.500000e+00 -5.000000e-01
     vertex -1.131371e+00 -5.500000e+00 -5.000000e-01
     vertex  0.000000e+00 -4.368629e+00 -5.000000e-01
   endloop
 endfacet
 facet normal  0.000000e+00  0.000000e+00  1.000000e+00
   outer loop
     vertex  1.131371e+00 -5.500000e+00  5.000000e-01
     vertex -1.131371e+00 -5.500000e+00  5.000000e-01
     vertex  0.000000e+00 -6.631371e+00  5.000000e-01
   endloop
 endfacet
 facet normal  0.000000e+00  0.000000e+00  1.000000e+00
   outer loop
     vertex  1.131371e+00 -5.500000e+00  5.000000e-01
     vertex  0.000000e+00 -4.368629e+00  5.000000e-01
     vertex -1.131371e+00 -5.500000e+00  5.000000e-01
   endloop
 endfacet
 facet normal -7.071068e-01 -7.071068e-01  0.000000e+00
   outer loop
     vertex  5.500000e+00 -1.131371e+00 -5.000000e-01
     vertex  4.368629e+00  0.000000e+00  5.000000e-01
     vertex  4.368629e+00  0.000000e+00 -5.000000e-01
   endloop
 endfacet
 facet normal -7.071068e-01 -7.071068e-01  0.000000e+00
   outer loop
     vertex  5.500000e+00 -1.131371e+00 -5.000000e-01
     vertex  5.500000e+00 -1.131371e+00  5.000000e-01
     vertex  4.368629e+00  0.000000e+00  5.000000e-01
   endloop
 endfacet
 facet normal  7.071068e-01 -7.071068e-01  0.000000e+00
   outer loop
     vertex  6.631371e+00  0.000000e+00 -5.000000e-01
     vertex  5.500000e+00 -1.131371e+00  5.000000e-01
     vertex  5.500000e+00 -1.131371e+00 -5.000000e-01
   endloop
 endfacet
 facet normal  7.071068e-01 -7.071068e-01  0.000000e+00
   outer loop
     vertex  6.631371e+00  0.000000e+00 -5.000000e-01
     vertex  6.631371e+00  0.000000e+00  5.000000e-01
     vertex  5.500000e+00 -1.131371e+00  5.000000e-01
   endloop
 endfacet
 facet normal  7.071068e-01  7.071068e-01  0.000000e+00
   outer loop
     vertex  5.500000e+00  1.131371e+00 -5.000000e-01
     vertex  6.631371e+00  0.000000e+00  5.000000e-01
     vertex  6.631371e+00  0.000000e+00 -5.000000e-01
   endloop
 endfacet
 facet normal  7.071068e-01  7.071068e-01 -0.000000e+00
   outer loop
     vertex  5.500000e+00  1.131371e+00 -5.000000e-01
     vertex  5.500000e+00  1.131371e+00  5.000000e-01
     vertex  6.631371e+00  0.000000e+00  5.000000e-01
   endloop
 endfacet
 facet normal -7.071068e-01  7.071068e-01  0.000000e+00
   outer loop
     vertex  4.368629e+00  0.000000e+00 -5.000000e-01
     vertex  5.500000e+00  1.131371e+00  5.000000e-01
     vertex  5.500000e+00  1.131371e+00 -5.000000e-01
   endloop
 endfacet
 facet normal -7.071068e-01  7.071068e-01  0.000000e+00
   outer loop
     vertex  4.368629e+00  0.000000e+00 -5.000000e-01
     vertex  4.368629e+00  0.000000e+00  5.000000e-01
     vertex  5.500000e+00  1.131371e+00  5.000000e-01
   endloop
 endfacet
 facet normal -0.000000e+00  0.000000e+00 -1.000000e+00
   outer loop
     vertex  6.631371e+00  0.000000e+00 -5.000000e-01
     vertex  5.500000e+00 -1.131371e+00 -5.000000e-01
     vertex  4.368629e+00  0.000000e+00 -5.000000e-01
   endloop
 endfacet
 facet normal  0.000000e+00  0.000000e+00 -1.000000e+00
   outer loop
     vertex  6.631371e+00  0.000000e+00 -5.000000e-01
     vertex  4.368629e+00  0.000000e+00 -5.000000e-01
     vertex  5.500000e+00  1.131371e+00 -5.000000e-01
   endloop
 endfacet
 facet normal  0.000000e+00  0.000000e+00  1.000000e+00
   outer loop
     vertex  6.631371e+00  0.000000e+00  5.000000e-01
     vertex  4.368629e+00  0.000000e+00  5.000000e-01
     vertex  5.500000e+00 -1.131371e+00  5.000000e-01
   endloop
 endfacet
 facet normal  0.000000e+00  0.000000e+00  1.000000e+00
   outer loop
     vertex  6.631371e+00  0.000000e+00  5.000000e-01
     vertex  5.500000e+00  1.131371e+00  5.000000e-01
     vertex  4.368629e+00  0.000000e+00  5.000000e-01
   endloop
 endfacet
 facet normal -7.071068e-01 -7.071068e-01  0.000000e+00
   outer loop
     vertex -5.500000e+00 -1.131371e+00 -5.000000e-01
     vertex -6.631371e+00  0.000000e+00  5.000000e-01
     vertex -6.631371e+00  0.000000e+00 -5.000000e-01
   endloop
 endfacet
 facet normal -7.071068e-01 -7.071068e-01  0.000000e+00
   outer loop
     vertex -5.500000e+00 -1.131371e+00 -5.000000e-01
     vertex -5.500000e+00 -1.131371e+00  5.000000e-01
     vertex -6.631371e+00  0.000000e+00  5.000000e-01
   endloop
 endfacet
 facet normal  7.071068e-01 -7.071068e-01  0.000000e+00
   outer loop
     vertex -4.368629e+00  0.000000e+00 -5.000000e-01
     vertex -5.500000e+00 -1.131371e+00  5.000000e-01
     vertex -5.500000e+00 -1.131371e+00 -5.000000e-01
   endloop
 endfacet
 facet normal  7.071068e-01 -7.071068e-01  0.000000e+00
   outer loop
     vertex -4.368629e+00  0.000000e+00 -5.000000e-01
     vertex -4.368629e+00  0.000000e+00  5.000000e-01
     vertex -5.500000e+00 -1.131371e+00  5.000000e-01
   endloop
 endfacet
 facet normal  7.071068e-01  7.071068e-01  0.000000e+00
   outer loop
     vertex -5.500000e+00  1.131371e+00 -5.000000e-01
     vertex -4.368629e+00  0.000000e+00  5.000000e-01
     vertex -4.368629e+00  0.000000e+00 -5.000000e-01
   endloop
 endfacet
 facet normal  7.071068e-01  7.071068e-01 -0.000000e+00
   outer loop
     vertex -5.500000e+00  1.131371e+00 -5.000000e-01
     vertex -5.500000e+00  1.131371e+00  5.000000e-01
     vertex -4.368629e+00  0.000000e+00  5.000000e-01
   endloop
 endfacet
 facet normal -7.071068e-01  7.071068e-01  0.000000e+00
   outer loop
     vertex -6.631371e+00  0.000000e+00 -5.000000e-01
     vertex -5.500000e+00  1.131371e+00  5.000000e-01
     vertex -5.500000e+00  1.131371e+00 -5.000000e-01
   endloop
 endfacet
 facet normal -7.071068e-01  7.071068e-01  0.000000e+00
   outer loop
     vertex -6.631371e+00  0.000000e+00 -5.000000e-01
     vertex -6.631371e+00  0.000000e+00  5.000000e-01
     vertex -5.500000e+00  1.131371e+00  5.000000e-01
   endloop
 endfacet
 facet normal -0.000000e+00  0.000000e+00 -1.000000e+00
   outer loop
     vertex -4.368629e+00  0.000000e+00 -5.000000e-01
     vertex -5.500000e+00 -1.131371e+00 -5.000000e-01
     vertex -6.631371e+00  0.000000e+00 -5.000000e-01
   endloop
 endfacet
 facet normal  0.000000e+00  0.000000e+00 -1.000000e+00
   outer loop
     vertex -4.368629e+00  0.000000e+00 -5.000000e-01
     vertex -6.631371e+00  0.000000e+00 -5.000000e-01
     vertex -5.500000e+00  1.131371e+00 -5.000000e-01
   endloop
 endfacet
 facet normal  0.000000e+00  0.000000e+00  1.000000e+00
   outer loop
     vertex -4.368629e+00  0.000000e+00  5.000000e-01
     vertex -6.631371e+00  0.000000e+00  5.000000e-01
     vertex -5.500000e+00 -1.131371e+00  5.000000e-01
   endloop
 endfacet
 facet normal  0.000000e+00  0.000000e+00  1.000000e+00
   outer loop
     vertex -4.368629e+00  0.000000e+00  5.000000e-01
     vertex -5.500000e+00  1.131371e+00  5.000000e-01
     vertex -6.631371e+00  0.000000e+00  5.000000e-01
   endloop
 endfacet
 facet normal -7.071068e-01 -7.071068e-01  0.000000e+00
   outer loop
     vertex  0.000000e+00 -1.131371e+00 -5.000000e-01
     vertex -1.131371e+00  0.000000e+00  5.000000e-01
     vertex -1.131371e+00  0.000000e+00 -5.000000e-01
   endloop
 endfacet
 facet normal -7.071068e-01 -7.071068e-01  0.000000e+00
   outer loop
     vertex  0.000000e+00 -1.131371e+00 -5.000000e-01
     vertex  0.000000e+00 -1.131371e+00  5.000000e-01
     vertex -1.131371e+00  0.000000e+00  5.000000e-01
   endloop
 endfacet
 facet normal  7.071068e-01 -7.071068e-01  0.000000e+00
   outer loop
     vertex  1.131371e+00  0.000000e+00 -5.000000e-01
     vertex  0.000000e+00 -1.131371e+00  5.000000e-01
     vertex  0.000000e+00 -1.131371e+00 -5.000000e-01
   endloop
 endfacet
 facet normal  7.071068e-01 -7.071068e-01  0.000000e+00
   outer loop
     vertex  1.131371e+00  0.000000e+00 -5.000000e-01
     vertex  1.131371e+00  0.000000e+00  5.000000e-01
     vertex  0.000000e+00 -1.131371e+00  5.000000e-01
   endloop
 endfacet
 facet normal  7.071068e-01  7.071068e-01  0.000000e+00
   outer loop
     vertex  0.000000e+00  1.131371e+00 -5.000000e-01
     vertex  1.131371e+00  0.000000e+00  5.000000e-01
     vertex  1.131371e+00  0.000000e+00 -5.000000e-01
   endloop
 endfacet
 facet normal  7.071068e-01  7.071068e-01 -0.000000e+00
   outer loop
     vertex  0.000000e+00  1.131371e+00 -5.000000e-01
     vertex  0.000000e+00  1.131371e+00  5.000000e-01
     vertex  1.131371e+00  0.000000e+00  5.000000e-01
   endloop
 endfacet
 facet normal -7.071068e-01  7.071068e-01  0.000000e+00
   outer loop
     vertex -1.131371e+00  0.000000e+00 -5.000000e-01
     vertex  0.000000e+00  1.131371e+00  5.000000e-01
     vertex  0.000000e+00  1.131371e+00 -5.000000e-01
   endloop
 endfacet
 facet normal -7.071068e-01  7.071068e-01  0.000000e+00
   outer loop
     vertex -1.131371e+00  0.000000e+00 -5.000000e-01
     vertex -1.131371e+00  0.000000e+00  5.000000e-01
     vertex  0.000000e+00  1.131371e+00  5.000000e-01
   endloop
 endfacet
 facet normal -0.000000e+00  0.000000e+00 -1.000000e+00
   outer loop
     vertex  1.131371e+00  0.000000e+00 -5.000000e-01
     vertex  0.000000e+00 -1.131371e+00 -5.000000e-01
     vertex -1.131371e+00  0.000000e+00 -5.000000e-01
   endloop
 endfacet
 facet normal  0.000000e+00  0.000000e+00 -1.000000e+00
   outer loop
     vertex  1.131371e+00  0.000000e+00 -5.000000e-01
     vertex -1.131371e+00  0.000000e+00 -5.000000e-01
     vertex  0.000000e+00  1.131371e+00 -5.000000e-01
   endloop
 endfacet
 facet normal  0.000000e+00  0.000000e+00  1.000000e+00
   outer loop
     vertex  1.131371e+00  0.000000e+00  5.000000e-01
     vertex -1.131371e+00  0.000000e+00  5.000000e-01
     vertex  0.000000e+00 -1.131371e+00  5.000000e-01
   endloop
 endfacet
 facet normal  0.000000e+00  0.000000e+00  1.000000e+00
   outer loop
     vertex  1.131371e+00  0.000000e+00  5.000000e-01
     vertex  0.000000e+00  1.131371e+00  5.000000e-01
     vertex -1.131371e+00  0.000000e+00  5.000000e-01
   endloop
 endfacet
 facet normal  0.000000e+00 -1.000000e+00  0.000000e+00
   outer loop
     vertex -1.450000e+00 -5.250000e+00 -5.000000e-01
     vertex -4.050000e+00 -5.250000e+00  5.000000e-01
     vertex -4.050000e+00 -5.250000e+00 -5.000000e-01
   endloop
 endfacet
 facet normal  0.000000e+00 -1.000000e+00  0.000000e+00
   outer loop
     vertex -1.450000e+00 -5.250000e+00 -5.000000e-01
     vertex -1.450000e+00 -5.250000e+00  5.000000e-01
     vertex -4.050000e+00 -5.250000e+00  5.000000e-01
   endloop
 endfacet
 facet normal  0.000000e+00  0.000000e+00 -1.000000e+00
   outer loop
     vertex -2.500000e-01 -1.450000e+00 -5.000000e-01
     vertex -1.450000e+00 -5.250000e+00 -5.000000e-01
     vertex -4.050000e+00 -5.250000e+00 -5.000000e-01
   endloop
 endfacet
 facet normal  0.000000e+00 -0.000000e+00 -1.000000e+00
   outer loop
     vertex -2.500000e-01 -1.450000e+00 -5.000000e-01
     vertex -2.500000e-01 -4.050000e+00 -5.000000e-01
     vertex -1.450000e+00 -5.250000e+00 -5.000000e-01
   endloop
 endfacet
 facet normal  0.000000e+00  0.000000e+00 -1.000000e+00
   outer loop
     vertex -2.500000e-01 -1.450000e+00 -5.000000e-01
     vertex -4.050000e+00 -5.250000e+00 -5.000000e-01
     vertex -5.250000e+00 -4.050000e+00 -5.000000e-01
   endloop
 endfacet
 facet normal -0.000000e+00  0.000000e+00 -1.000000e+00
   outer loop
     vertex -1.450000e+00 -2.500000e-01 -5.000000e-01
     vertex -5.250000e+00 -1.450000e+00 -5.000000e-01
     vertex -4.050000e+00 -2.500000e-01 -5.000000e-01
   endloop
 endfacet
 facet normal  0.000000e+00  0.000000e+00 -1.000000e+00
   outer loop
     vertex -1.450000e+00 -2.500000e-01 -5.000000e-01
     vertex -5.250000e+00 -4.050000e+00 -5.000000e-01
     vertex -5.250000e+00 -1.450000e+00 -5.000000e-01
   endloop
 endfacet
 facet normal  0.000000e+00 -0.000000e+00 -1.000000e+00
   outer loop
     vertex -1.450000e+00 -2.500000e-01 -5.000000e-01
     vertex -2.500000e-01 -1.450000e+00 -5.000000e-01
     vertex -5.250000e+00 -4.050000e+00 -5.000000e-01
   endloop
 endfacet
 facet normal -7.071068e-01 -7.071068e-01 -0.000000e+00
   outer loop
     vertex -5.250000e+00 -4.050000e+00  5.000000e-01
     vertex -5.250000e+00 -4.050000e+00 -5.000000e-01
     vertex -4.050000e+00 -5.250000e+00 -5.000000e-01
   endloop
 endfacet
 facet normal -7.071068e-01 -7.071068e-01  0.000000e+00
   outer loop
     vertex -5.250000e+00 -4.050000e+00  5.000000e-01
     vertex -4.050000e+00 -5.250000e+00 -5.000000e-01
     vertex -4.050000e+00 -5.250000e+00  5.000000e-01
   endloop
 endfacet
 facet normal  7.071068e-01 -7.071068e-01  0.000000e+00
   outer loop
     vertex -2.500000e-01 -4.050000e+00  5.000000e-01
     vertex -1.450000e+00 -5.250000e+00 -5.000000e-01
     vertex -2.500000e-01 -4.050000e+00 -5.000000e-01
   endloop
 endfacet
 facet normal  7.071068e-01 -7.071068e-01  0.000000e+00
   outer loop
     vertex -2.500000e-01 -4.050000e+00  5.000000e-01
     vertex -1.450000e+00 -5.250000e+00  5.000000e-01
     vertex -1.450000e+00 -5.250000e+00 -5.000000e-01
   endloop
 endfacet
 facet normal  0.000000e+00  0.000000e+00  1.000000e+00
   outer loop
     vertex -2.500000e-01 -1.450000e+00  5.000000e-01
     vertex -4.050000e+00 -5.250000e+00  5.000000e-01
     vertex -1.450000e+00 -5.250000e+00  5.000000e-01
   endloop
 endfacet
 facet normal  0.000000e+00  0.000000e+00  1.000000e+00
   outer loop
     vertex -2.500000e-01 -1.450000e+00  5.000000e-01
     vertex -1.450000e+00 -5.250000e+00  5.000000e-01
     vertex -2.500000e-01 -4.050000e+00  5.000000e-01
   endloop
 endfacet
 facet normal  0.000000e+00  0.000000e+00  1.000000e+00
   outer loop
     vertex -2.500000e-01 -1.450000e+00  5.000000e-01
     vertex -5.250000e+00 -4.050000e+00  5.000000e-01
     vertex -4.050000e+00 -5.250000e+00  5.000000e-01
   endloop
 endfacet
 facet normal  0.000000e+00  0.000000e+00  1.000000e+00
   outer loop
     vertex -1.450000e+00 -2.500000e-01  5.000000e-01
     vertex -4.050000e+00 -2.500000e-01  5.000000e-01
     vertex -5.250000e+00 -1.450000e+00  5.000000e-01
   endloop
 endfacet
 facet normal  0.000000e+00  0.000000e+00  1.000000e+00
   outer loop
     vertex -1.450000e+00 -2.500000e-01  5.000000e-01
     vertex -5.250000e+00 -1.450000e+00  5.000000e-01
     vertex -5.250000e+00 -4.050000e+00  5.000000e-01
   endloop
 endfacet
 facet normal  0.000000e+00  0.000000e+00  1.000000e+00
   outer loop
     vertex -1.450000e+00 -2.500000e-01  5.000000e-01
     vertex -5.250000e+00 -4.050000e+00  5.000000e-01
     vertex -2.500000e-01 -1.450000e+00  5.000000e-01
   endloop
 endfacet
 facet normal -1.000000e+00  0.000000e+00  0.000000e+00
   outer loop
     vertex -5.250000e+00 -4.050000e+00 -5.000000e-01
     vertex -5.250000e+00 -1.450000e+00  5.000000e-01
     vertex -5.250000e+00 -1.450000e+00 -5.000000e-01
   endloop
 endfacet
 facet normal -1.000000e+00  0.000000e+00  0.000000e+00
   outer loop
     vertex -5.250000e+00 -4.050000e+00 -5.000000e-01
     vertex -5.250000e+00 -4.050000e+00  5.000000e-01
     vertex -5.250000e+00 -1.450000e+00  5.000000e-01
   endloop
 endfacet
 facet normal  1.000000e+00  0.000000e+00  0.000000e+00
   outer loop
     vertex -2.500000e-01 -1.450000e+00 -5.000000e-01
     vertex -2.500000e-01 -4.050000e+00  5.000000e-01
     vertex -2.500000e-01 -4.050000e+00 -5.000000e-01
   endloop
 endfacet
 facet normal  1.000000e+00  0.000000e+00 -0.000000e+00
   outer loop
     vertex -2.500000e-01 -1.450000e+00 -5.000000e-01
     vertex -2.500000e-01 -1.450000e+00  5.000000e-01
     vertex -2.500000e-01 -4.050000e+00  5.000000e-01
   endloop
 endfacet
 facet normal -7.071068e-01  7.071068e-01  0.000000e+00
   outer loop
     vertex -5.250000e+00 -1.450000e+00  5.000000e-01
     vertex -4.050000e+00 -2.500000e-01 -5.000000e-01
     vertex -5.250000e+00 -1.450000e+00 -5.000000e-01
   endloop
 endfacet
 facet normal -7.071068e-01  7.071068e-01  0.000000e+00
   outer loop
     vertex -5.250000e+00 -1.450000e+00  5.000000e-01
     vertex -4.050000e+00 -2.500000e-01  5.000000e-01
     vertex -4.050000e+00 -2.500000e-01 -5.000000e-01
   endloop
 endfacet
 facet normal  7.071068e-01  7.071068e-01  0.000000e+00
   outer loop
     vertex -1.450000e+00 -2.500000e-01  5.000000e-01
     vertex -2.500000e-01 -1.450000e+00 -5.000000e-01
     vertex -1.450000e+00 -2.500000e-01 -5.000000e-01
   endloop
 endfacet
 facet normal  7.071068e-01  7.071068e-01  0.000000e+00
   outer loop
     vertex -1.450000e+00 -2.500000e-01  5.000000e-01
     vertex -2.500000e-01 -1.450000e+00  5.000000e-01
     vertex -2.500000e-01 -1.450000e+00 -5.000000e-01
   endloop
 endfacet
 facet normal  0.000000e+00  1.000000e+00  0.000000e+00
   outer loop
     vertex -4.050000e+00 -2.500000e-01 -5.000000e-01
     vertex -1.450000e+00 -2.500000e-01  5.000000e-01
     vertex -1.450000e+00 -2.500000e-01 -5.000000e-01
   endloop
 endfacet
 facet normal  0.000000e+00  1.000000e+00  0.000000e+00
   outer loop
     vertex -4.050000e+00 -2.500000e-01 -5.000000e-01
     vertex -4.050000e+00 -2.500000e-01  5.000000e-01
     vertex -1.450000e+00 -2.500000e-01  5.000000e-01
   endloop
 endfacet
 facet normal  0.000000e+00 -1.000000e+00  0.000000e+00
   outer loop
     vertex  4.050000e+00 -5.250000e+00 -5.000000e-01
     vertex  1.450000e+00 -5.250000e+00  5.000000e-01
     vertex  1.450000e+00 -5.250000e+00 -5.000000e-01
   endloop
 endfacet
 facet normal  0.000000e+00 -1.000000e+00  0.000000e+00
   outer loop
     vertex  4.050000e+00 -5.250000e+00 -5.000000e-01
     vertex  4.050000e+00 -5.250000e+00  5.000000e-01
     vertex  1.450000e+00 -5.250000e+00  5.000000e-01
   endloop
 endfacet
 facet normal  0.000000e+00  0.000000e+00 -1.000000e+00
   outer loop
     vertex  5.250000e+00 -1.450000e+00 -5.000000e-01
     vertex  4.050000e+00 -5.250000e+00 -5.000000e-01
     vertex  1.450000e+00 -5.250000e+00 -5.000000e-01
   endloop
 endfacet
 facet normal  0.000000e+00 -0.000000e+00 -1.000000e+00
   outer loop
     vertex  5.250000e+00 -1.450000e+00 -5.000000e-01
     vertex  5.250000e+00 -4.050000e+00 -5.000000e-01
     vertex  4.050000e+00 -5.250000e+00 -5.000000e-01
   endloop
 endfacet
 facet normal -0.000000e+00  0.000000e+00 -1.000000e+00
   outer loop
     vertex  4.050000e+00 -2.500000e-01 -5.000000e-01
     vertex  2.500000e-01 -1.450000e+00 -5.000000e-01
     vertex  1.450000e+00 -2.500000e-01 -5.000000e-01
   endloop
 endfacet
 facet normal  0.000000e+00  0.000000e+00 -1.000000e+00
   outer loop
     vertex  4.050000e+00 -2.500000e-01 -5.000000e-01
     vertex  2.500000e-01 -4.050000e+00 -5.000000e-01
     vertex  2.500000e-01 -1.450000e+00 -5.000000e-01
   endloop
 endfacet
 facet normal  0.000000e+00  0.000000e+00 -1.000000e+00
   outer loop
     vertex  4.050000e+00 -2.500000e-01 -5.000000e-01
     vertex  1.450000e+00 -5.250000e+00 -5.000000e-01
     vertex  2.500000e-01 -4.050000e+00 -5.000000e-01
   endloop
 endfacet
 facet normal  0.000000e+00 -0.000000e+00 -1.000000e+00
   outer loop
     vertex  4.050000e+00 -2.500000e-01 -5.000000e-01
     vertex  5.250000e+00 -1.450000e+00 -5.000000e-01
     vertex  1.450000e+00 -5.250000e+00 -5.000000e-01
   endloop
 endfacet
 facet normal -7.071068e-01 -7.071068e-01 -0.000000e+00
   outer loop
     vertex  2.500000e-01 -4.050000e+00  5.000000e-01
     vertex  2.500000e-01 -4.050000e+00 -5.000000e-01
     vertex  1.450000e+00 -5.250000e+00 -5.000000e-01
   endloop
 endfacet
 facet normal -7.071068e-01 -7.071068e-01  0.000000e+00
   outer loop
     vertex  2.500000e-01 -4.050000e+00  5.000000e-01
     vertex  1.450000e+00 -5.250000e+00 -5.000000e-01
     vertex  1.450000e+00 -5.250000e+00  5.000000e-01
   endloop
 endfacet
 facet normal  7.071068e-01 -7.071068e-01  0.000000e+00
   outer loop
     vertex  5.250000e+00 -4.050000e+00  5.000000e-01
     vertex  4.050000e+00 -5.250000e+00 -5.000000e-01
     vertex  5.250000e+00 -4.050000e+00 -5.000000e-01
   endloop
 endfacet
 facet normal  7.071068e-01 -7.071068e-01  0.000000e+00
   outer loop
     vertex  5.250000e+00 -4.050000e+00  5.000000e-01
     vertex  4.050000e+00 -5.250000e+00  5.000000e-01
     vertex  4.050000e+00 -5.250000e+00 -5.000000e-01
   endloop
 endfacet
 facet normal  0.000000e+00  0.000000e+00  1.000000e+00
   outer loop
     vertex  5.250000e+00 -1.450000e+00  5.000000e-01
     vertex  1.450000e+00 -5.250000e+00  5.000000e-01
     vertex  4.050000e+00 -5.250000e+00  5.000000e-01
   endloop
 endfacet
 facet normal  0.000000e+00  0.000000e+00  1.000000e+00
   outer loop
     vertex  5.250000e+00 -1.450000e+00  5.000000e-01
     vertex  4.050000e+00 -5.250000e+00  5.000000e-01
     vertex  5.250000e+00 -4.050000e+00  5.000000e-01
   endloop
 endfacet
 facet normal  0.000000e+00  0.000000e+00  1.000000e+00
   outer loop
     vertex  4.050000e+00 -2.500000e-01  5.000000e-01
     vertex  1.450000e+00 -2.500000e-01  5.000000e-01
     vertex  2.500000e-01 -1.450000e+00  5.000000e-01
   endloop
 endfacet
 facet normal  0.000000e+00  0.000000e+00  1.000000e+00
   outer loop
     vertex  4.050000e+00 -2.500000e-01  5.000000e-01
     vertex  2.500000e-01 -1.450000e+00  5.000000e-01
     vertex  2.500000e-01 -4.050000e+00  5.000000e-01
   endloop
 endfacet
 facet normal  0.000000e+00  0.000000e+00  1.000000e+00
   outer loop
     vertex  4.050000e+00 -2.500000e-01  5.000000e-01
     vertex  2.500000e-01 -4.050000e+00  5.000000e-01
     vertex  1.450000e+00 -5.250000e+00  5.000000e-01
   endloop
 endfacet
 facet normal  0.000000e+00  0.000000e+00  1.000000e+00
   outer loop
     vertex  4.050000e+00 -2.500000e-01  5.000000e-01
     vertex  1.450000e+00 -5.250000e+00  5.000000e-01
     vertex  5.250000e+00 -1.450000e+00  5.000000e-01
   endloop
 endfacet
 facet normal -1.000000e+00  0.000000e+00  0.000000e+00
   outer loop
     vertex  2.500000e-01 -4.050000e+00 -5.000000e-01
     vertex  2.500000e-01 -1.450000e+00  5.000000e-01
     vertex  2.500000e-01 -1.450000e+00 -5.000000e-01
   endloop
 endfacet
 facet normal -1.000000e+00  0.000000e+00  0.000000e+00
   outer loop
     vertex  2.500000e-01 -4.050000e+00 -5.000000e-01
     vertex  2.500000e-01 -4.050000e+00  5.000000e-01
     vertex  2.500000e-01 -1.450000e+00  5.000000e-01
   endloop
 endfacet
 facet normal  1.000000e+00  0.000000e+00  0.000000e+00
   outer loop
     vertex  5.250000e+00 -1.450000e+00 -5.000000e-01
     vertex  5.250000e+00 -4.050000e+00  5.000000e-01
     vertex  5.250000e+00 -4.050000e+00 -5.000000e-01
   endloop
 endfacet
 facet normal  1.000000e+00  0.000000e+00 -0.000000e+00
   outer loop
     vertex  5.250000e+00 -1.450000e+00 -5.000000e-01
     vertex  5.250000e+00 -1.450000e+00  5.000000e-01
     vertex  5.250000e+00 -4.050000e+00  5.000000e-01
   endloop
 endfacet
 facet normal -7.071068e-01  7.071068e-01  0.000000e+00
   outer loop
     vertex  2.500000e-01 -1.450000e+00  5.000000e-01
     vertex  1.450000e+00 -2.500000e-01 -5.000000e-01
     vertex  2.500000e-01 -1.450000e+00 -5.000000e-01
   endloop
 endfacet
 facet normal -7.071068e-01  7.071068e-01  0.000000e+00
   outer loop
     vertex  2.500000e-01 -1.450000e+00  5.000000e-01
     vertex  1.450000e+00 -2.500000e-01  5.000000e-01
     vertex  1.450000e+00 -2.500000e-01 -5.000000e-01
   endloop
 endfacet
 facet normal  7.071068e-01  7.071068e-01  0.000000e+00
   outer loop
     vertex  4.050000e+00 -2.500000e-01  5.000000e-01
     vertex  5.250000e+00 -1.450000e+00 -5.000000e-01
     vertex  4.050000e+00 -2.500000e-01 -5.000000e-01
   endloop
 endfacet
 facet normal  7.071068e-01  7.071068e-01  0.000000e+00
   outer loop
     vertex  4.050000e+00 -2.500000e-01  5.000000e-01
     vertex  5.250000e+00 -1.450000e+00  5.000000e-01
     vertex  5.250000e+00 -1.450000e+00 -5.000000e-01
   endloop
 endfacet
 facet normal  0.000000e+00  1.000000e+00  0.000000e+00
   outer loop
     vertex  1.450000e+00 -2.500000e-01 -5.000000e-01
     vertex  4.050000e+00 -2.500000e-01  5.000000e-01
     vertex  4.050000e+00 -2.500000e-01 -5.000000e-01
   endloop
 endfacet
 facet normal  0.000000e+00  1.000000e+00  0.000000e+00
   outer loop
     vertex  1.450000e+00 -2.500000e-01 -5.000000e-01
     vertex  1.450000e+00 -2.500000e-01  5.000000e-01
     vertex  4.050000e+00 -2.500000e-01  5.000000e-01
   endloop
 endfacet
 facet normal  0.000000e+00 -1.000000e+00  0.000000e+00
   outer loop
     vertex -1.450000e+00  2.500000e-01 -5.000000e-01
     vertex -4.050000e+00  2.500000e-01  5.000000e-01
     vertex -4.050000e+00  2.500000e-01 -5.000000e-01
   endloop
 endfacet
 facet normal  0.000000e+00 -1.000000e+00  0.000000e+00
   outer loop
     vertex -1.450000e+00  2.500000e-01 -5.000000e-01
     vertex -1.450000e+00  2.500000e-01  5.000000e-01
     vertex -4.050000e+00  2.500000e-01  5.000000e-01
   endloop
 endfacet
 facet normal  0.000000e+00 -0.000000e+00 -1.000000e+00
   outer loop
     vertex -1.450000e+00  5.250000e+00 -5.000000e-01
     vertex -1.450000e+00  2.500000e-01 -5.000000e-01
     vertex -4.050000e+00  2.500000e-01 -5.000000e-01
   endloop
 endfacet
 facet normal  0.000000e+00  0.000000e+00 -1.000000e+00
   outer loop
     vertex -1.450000e+00  5.250000e+00 -5.000000e-01
     vertex -2.500000e-01  1.450000e+00 -5.000000e-01
     vertex -1.450000e+00  2.500000e-01 -5.000000e-01
   endloop
 endfacet
 facet normal  0.000000e+00  0.000000e+00 -1.000000e+00
   outer loop
     vertex -1.450000e+00  5.250000e+00 -5.000000e-01
     vertex -2.500000e-01  4.050000e+00 -5.000000e-01
     vertex -2.500000e-01  1.450000e+00 -5.000000e-01
   endloop
 endfacet
 facet normal -0.000000e+00  0.000000e+00 -1.000000e+00
   outer loop
     vertex -1.450000e+00  5.250000e+00 -5.000000e-01
     vertex -5.250000e+00  4.050000e+00 -5.000000e-01
     vertex -4.050000e+00  5.250000e+00 -5.000000e-01
   endloop
 endfacet
 facet normal  0.000000e+00  0.000000e+00 -1.000000e+00
   outer loop
     vertex -1.450000e+00  5.250000e+00 -5.000000e-01
     vertex -5.250000e+00  1.450000e+00 -5.000000e-01
     vertex -5.250000e+00  4.050000e+00 -5.000000e-01
   endloop
 endfacet
 facet normal  0.000000e+00  0.000000e+00 -1.000000e+00
   outer loop
     vertex -1.450000e+00  5.250000e+00 -5.000000e-01
     vertex -4.050000e+00  2.500000e-01 -5.000000e-01
     vertex -5.250000e+00  1.450000e+00 -5.000000e-01
   endloop
 endfacet
 facet normal -7.071068e-01 -7.071068e-01 -0.000000e+00
   outer loop
     vertex -5.250000e+00  1.450000e+00  5.000000e-01
     vertex -5.250000e+00  1.450000e+00 -5.000000e-01
     vertex -4.050000e+00  2.500000e-01 -5.000000e-01
   endloop
 endfacet
 facet normal -7.071068e-01 -7.071068e-01  0.000000e+00
   outer loop
     vertex -5.250000e+00  1.450000e+00  5.000000e-01
     vertex -4.050000e+00  2.500000e-01 -5.000000e-01
     vertex -4.050000e+00  2.500000e-01  5.000000e-01
   endloop
 endfacet
 facet normal  7.071068e-01 -7.071068e-01  0.000000e+00
   outer loop
     vertex -2.500000e-01  1.450000e+00  5.000000e-01
     vertex -1.450000e+00  2.500000e-01 -5.000000e-01
     vertex -2.500000e-01  1.450000e+00 -5.000000e-01
   endloop
 endfacet
 facet normal  7.071068e-01 -7.071068e-01  0.000000e+00
   outer loop
     vertex -2.500000e-01  1.450000e+00  5.000000e-01
     vertex -1.450000e+00  2.500000e-01  5.000000e-01
     vertex -1.450000e+00  2.500000e-01 -5.000000e-01
   endloop
 endfacet
 facet normal  0.000000e+00  0.000000e+00  1.000000e+00
   outer loop
     vertex -1.450000e+00  5.250000e+00  5.000000e-01
     vertex -4.050000e+00  2.500000e-01  5.000000e-01
     vertex -1.450000e+00  2.500000e-01  5.000000e-01
   endloop
 endfacet
 facet normal  0.000000e+00  0.000000e+00  1.000000e+00
   outer loop
     vertex -1.450000e+00  5.250000e+00  5.000000e-01
     vertex -1.450000e+00  2.500000e-01  5.000000e-01
     vertex -2.500000e-01  1.450000e+00  5.000000e-01
   endloop
 endfacet
 facet normal  0.000000e+00  0.000000e+00  1.000000e+00
   outer loop
     vertex -1.450000e+00  5.250000e+00  5.000000e-01
     vertex -2.500000e-01  1.450000e+00  5.000000e-01
     vertex -2.500000e-01  4.050000e+00  5.000000e-01
   endloop
 endfacet
 facet normal  0.000000e+00  0.000000e+00  1.000000e+00
   outer loop
     vertex -1.450000e+00  5.250000e+00  5.000000e-01
     vertex -4.050000e+00  5.250000e+00  5.000000e-01
     vertex -5.250000e+00  4.050000e+00  5.000000e-01
   endloop
 endfacet
 facet normal  0.000000e+00  0.000000e+00  1.000000e+00
   outer loop
     vertex -1.450000e+00  5.250000e+00  5.000000e-01
     vertex -5.250000e+00  4.050000e+00  5.000000e-01
     vertex -5.250000e+00  1.450000e+00  5.000000e-01
   endloop
 endfacet
 facet normal  0.000000e+00  0.000000e+00  1.000000e+00
   outer loop
     vertex -1.450000e+00  5.250000e+00  5.000000e-01
     vertex -5.250000e+00  1.450000e+00  5.000000e-01
     vertex -4.050000e+00  2.500000e-01  5.000000e-01
   endloop
 endfacet
 facet normal -1.000000e+00  0.000000e+00  0.000000e+00
   outer loop
     vertex -5.250000e+00  1.450000e+00 -5.000000e-01
     vertex -5.250000e+00  4.050000e+00  5.000000e-01
     vertex -5.250000e+00  4.050000e+00 -5.000000e-01
   endloop
 endfacet
 facet normal -1.000000e+00  0.000000e+00  0.000000e+00
   outer loop
     vertex -5.250000e+00  1.450000e+00 -5.000000e-01
     vertex -5.250000e+00  1.450000e+00  5.000000e-01
     vertex -5.250000e+00  4.050000e+00  5.000000e-01
   endloop
 endfacet
 facet normal  1.000000e+00  0.000000e+00  0.000000e+00
   outer loop
     vertex -2.500000e-01  4.050000e+00 -5.000000e-01
     vertex -2.500000e-01  1.450000e+00  5.000000e-01
     vertex -2.500000e-01  1.450000e+00 -5.000000e-01
   endloop
 endfacet
 facet normal  1.000000e+00  0.000000e+00 -0.000000e+00
   outer loop
     vertex -2.500000e-01  4.050000e+00 -5.000000e-01
     vertex -2.500000e-01  4.050000e+00  5.000000e-01
     vertex -2.500000e-01  1.450000e+00  5.000000e-01
   endloop
 endfacet
 facet normal -7.071068e-01  7.071068e-01  0.000000e+00
   outer loop
     vertex -5.250000e+00  4.050000e+00  5.000000e-01
     vertex -4.050000e+00  5.250000e+00 -5.000000e-01
     vertex -5.250000e+00  4.050000e+00 -5.000000e-01
   endloop
 endfacet
 facet normal -7.071068e-01  7.071068e-01  0.000000e+00
   outer loop
     vertex -5.250000e+00  4.050000e+00  5.000000e-01
     vertex -4.050000e+00  5.250000e+00  5.000000e-01
     vertex -4.050000e+00  5.250000e+00 -5.000000e-01
   endloop
 endfacet
 facet normal  7.071068e-01  7.071068e-01  0.000000e+00
   outer loop
     vertex -1.450000e+00  5.250000e+00  5.000000e-01
     vertex -2.500000e-01  4.050000e+00 -5.000000e-01
     vertex -1.450000e+00  5.250000e+00 -5.000000e-01
   endloop
 endfacet
 facet normal  7.071068e-01  7.071068e-01  0.000000e+00
   outer loop
     vertex -1.450000e+00  5.250000e+00  5.000000e-01
     vertex -2.500000e-01  4.050000e+00  5.000000e-01
     vertex -2.500000e-01  4.050000e+00 -5.000000e-01
   endloop
 endfacet
 facet normal  0.000000e+00  1.000000e+00  0.000000e+00
   outer loop
     vertex -4.050000e+00  5.250000e+00 -5.000000e-01
     vertex -1.450000e+00  5.250000e+00  5.000000e-01
     vertex -1.450000e+00  5.250000e+00 -5.000000e-01
   endloop
 endfacet
 facet normal  0.000000e+00  1.000000e+00  0.000000e+00
   outer loop
     vertex -4.050000e+00  5.250000e+00 -5.000000e-01
     vertex -4.050000e+00  5.250000e+00  5.000000e-01
     vertex -1.450000e+00  5.250000e+00  5.000000e-01
   endloop
 endfacet
 facet normal  0.000000e+00 -1.000000e+00  0.000000e+00
   outer loop
     vertex  4.050000e+00  2.500000e-01 -5.000000e-01
     vertex  1.450000e+00  2.500000e-01  5.000000e-01
     vertex  1.450000e+00  2.500000e-01 -5.000000e-01
   endloop
 endfacet
 facet normal  0.000000e+00 -1.000000e+00  0.000000e+00
   outer loop
     vertex  4.050000e+00  2.500000e-01 -5.000000e-01
     vertex  4.050000e+00  2.500000e-01  5.000000e-01
     vertex  1.450000e+00  2.500000e-01  5.000000e-01
   endloop
 endfacet
 facet normal  0.000000e+00 -0.000000e+00 -1.000000e+00
   outer loop
     vertex  4.050000e+00  5.250000e+00 -5.000000e-01
     vertex  4.050000e+00  2.500000e-01 -5.000000e-01
     vertex  1.450000e+00  2.500000e-01 -5.000000e-01
   endloop
 endfacet
 facet normal  0.000000e+00  0.000000e+00 -1.000000e+00
   outer loop
     vertex  4.050000e+00  5.250000e+00 -5.000000e-01
     vertex  5.250000e+00  1.450000e+00 -5.000000e-01
     vertex  4.050000e+00  2.500000e-01 -5.000000e-01
   endloop
 endfacet
 facet normal  0.000000e+00  0.000000e+00 -1.000000e+00
   outer loop
     vertex  4.050000e+00  5.250000e+00 -5.000000e-01
     vertex  5.250000e+00  4.050000e+00 -5.000000e-01
     vertex  5.250000e+00  1.450000e+00 -5.000000e-01
   endloop
 endfacet
 facet normal -0.000000e+00  0.000000e+00 -1.000000e+00
   outer loop
     vertex  4.050000e+00  5.250000e+00 -5.000000e-01
     vertex  2.500000e-01  4.050000e+00 -5.000000e-01
     vertex  1.450000e+00  5.250000e+00 -5.000000e-01
   endloop
 endfacet
 facet normal  0.000000e+00  0.000000e+00 -1.000000e+00
   outer loop
     vertex  4.050000e+00  5.250000e+00 -5.000000e-01
     vertex  2.500000e-01  1.450000e+00 -5.000000e-01
     vertex  2.500000e-01  4.050000e+00 -5.000000e-01
   endloop
 endfacet
 facet normal  0.000000e+00  0.000000e+00 -1.000000e+00
   outer loop
     vertex  4.050000e+00  5.250000e+00 -5.000000e-01
     vertex  1.450000e+00  2.500000e-01 -5.000000e-01
     vertex  2.500000e-01  1.450000e+00 -5.000000e-01
   endloop
 endfacet
 facet normal -7.071068e-01 -7.071068e-01 -0.000000e+00
   outer loop
     vertex  2.500000e-01  1.450000e+00  5.000000e-01
     vertex  2.500000e-01  1.450000e+00 -5.000000e-01
     vertex  1.450000e+00  2.500000e-01 -5.000000e-01
   endloop
 endfacet
 facet normal -7.071068e-01 -7.071068e-01  0.000000e+00
   outer loop
     vertex  2.500000e-01  1.450000e+00  5.000000e-01
     vertex  1.450000e+00  2.500000e-01 -5.000000e-01
     vertex  1.450000e+00  2.500000e-01  5.000000e-01
   endloop
 endfacet
 facet normal  7.071068e-01 -7.071068e-01  0.000000e+00
   outer loop
     vertex  5.250000e+00  1.450000e+00  5.000000e-01
     vertex  4.050000e+00  2.500000e-01 -5.000000e-01
     vertex  5.250000e+00  1.450000e+00 -5.000000e-01
   endloop
 endfacet
 facet normal  7.071068e-01 -7.071068e-01  0.000000e+00
   outer loop
     vertex  5.250000e+00  1.450000e+00  5.000000e-01
     vertex  4.050000e+00  2.500000e-01  5.000000e-01
     vertex  4.050000e+00  2.500000e-01 -5.000000e-01
   endloop
 endfacet
 facet normal  0.000000e+00  0.000000e+00  1.000000e+00
   outer loop
     vertex  4.050000e+00  5.250000e+00  5.000000e-01
     vertex  1.450000e+00  2.500000e-01  5.000000e-01
     vertex  4.050000e+00  2.500000e-01  5.000000e-01
   endloop
 endfacet
 facet normal  0.000000e+00  0.000000e+00  1.000000e+00
   outer loop
     vertex  4.050000e+00  5.250000e+00  5.000000e-01
     vertex  4.050000e+00  2.500000e-01  5.000000e-01
     vertex  5.250000e+00  1.450000e+00  5.000000e-01
   endloop
 endfacet
 facet normal  0.000000e+00  0.000000e+00  1.000000e+00
   outer loop
     vertex  4.050000e+00  5.250000e+00  5.000000e-01
     vertex  5.250000e+00  1.450000e+00  5.000000e-01
     vertex  5.250000e+00  4.050000e+00  5.000000e-01
   endloop
 endfacet
 facet normal  0.000000e+00  0.000000e+00  1.000000e+00
   outer loop
     vertex  4.050000e+00  5.250000e+00  5.000000e-01
     vertex  1.450000e+00  5.250000e+00  5.000000e-01
     vertex  2.500000e-01  4.050000e+00  5.000000e-01
   endloop
 endfacet
 facet normal  0.000000e+00  0.000000e+00  1.000000e+00
   outer loop
     vertex  4.050000e+00  5.250000e+00  5.000000e-01
     vertex  2.500000e-01  4.050000e+00  5.000000e-01
     vertex  2.500000e-01  1.450000e+00  5.000000e-01
   endloop
 endfacet
 facet normal  0.000000e+00  0.000000e+00  1.000000e+00
   outer loop
     vertex  4.050000e+00  5.250000e+00  5.000000e-01
     vertex  2.500000e-01  1.450000e+00  5.000000e-01
     vertex  1.450000e+00  2.500000e-01  5.000000e-01
   endloop
 endfacet
 facet normal -1.000000e+00  0.000000e+00  0.000000e+00
   outer loop
     vertex  2.500000e-01  1.450000e+00 -5.000000e-01
     vertex  2.500000e-01  4.050000e+00  5.000000e-01
     vertex  2.500000e-01  4.050000e+00 -5.000000e-01
   endloop
 endfacet
 facet normal -1.000000e+00  0.000000e+00  0.000000e+00
   outer loop
     vertex  2.500000e-01  1.450000e+00 -5.000000e-01
     vertex  2.500000e-01  1.450000e+00  5.000000e-01
     vertex  2.500000e-01  4.050000e+00  5.000000e-01
   endloop
 endfacet
 facet normal  1.000000e+00  0.000000e+00  0.000000e+00
   outer loop
     vertex  5.250000e+00  4.050000e+00 -5.000000e-01
     vertex  5.250000e+00  1.450000e+00  5.000000e-01
     vertex  5.250000e+00  1.450000e+00 -5.000000e-01
   endloop
 endfacet
 facet normal  1.000000e+00  0.000000e+00 -0.000000e+00
   outer loop
     vertex  5.250000e+00  4.050000e+00 -5.000000e-01
     vertex  5.250000e+00  4.050000e+00  5.000000e-01
     vertex  5.250000e+00  1.450000e+00  5.000000e-01
   endloop
 endfacet
 facet normal -7.071068e-01  7.071068e-01  0.000000e+00
   outer loop
     vertex  2.500000e-01  4.050000e+00  5.000000e-01
     vertex  1.450000e+00  5.250000e+00 -5.000000e-01
     vertex  2.500000e-01  4.050000e+00 -5.000000e-01
   endloop
 endfacet
 facet normal -7.071068e-01  7.071068e-01  0.000000e+00
   outer loop
     vertex  2.500000e-01  4.050000e+00  5.000000e-01
     vertex  1.450000e+00  5.250000e+00  5.000000e-01
     vertex  1.450000e+00  5.250000e+00 -5.000000e-01
   endloop
 endfacet
 facet normal  7.071068e-01  7.071068e-01  0.000000e+00
   outer loop
     vertex  4.050000e+00  5.250000e+00  5.000000e-01
     vertex  5.250000e+00  4.050000e+00 -5.000000e-01
     vertex  4.050000e+00  5.250000e+00 -5.000000e-01
   endloop
 endfacet
 facet normal  7.071068e-01  7.071068e-01  0.000000e+00
   outer loop
     vertex  4.050000e+00  5.250000e+00  5.000000e-01
     vertex  5.250000e+00  4.050000e+00  5.000000e-01
     vertex  5.250000e+00  4.050000e+00 -5.000000e-01
   endloop
 endfacet
 facet normal  0.000000e+00  1.000000e+00  0.000000e+00
   outer loop
     vertex  1.450000e+00  5.250000e+00 -5.000000e-01
     vertex  4.050000e+00  5.250000e+00  5.000000e-01
     vertex  4.050000e+00  5.250000e+00 -5.000000e-01
   endloop
 endfacet
 facet normal  0.000000e+00  1.000000e+00  0.000000e+00
   outer loop
     vertex  1.450000e+00  5.250000e+00 -5.000000e-01
     vertex  1.450000e+00  5.250000e+00  5.000000e-01
     vertex  4.050000e+00  5.250000e+00  5.000000e-01
   endloop
 endfacet
endsolid
