solid 
 facet normal -1.000000e+00  0.000000e+00 -0.000000e+00
   outer loop
     vertex -1.000000e+01 -5.000000e-01  5.000000e-01
     vertex -1.000000e+01  5.000000e-01 -5.000000e-01
     vertex -1.000000e+01 -5.000000e-01 -5.000000e-01
   endloop
 endfacet
 facet normal -1.000000e+00  0.000000e+00  0.000000e+00
   outer loop
     vertex -1.000000e+01 -5.000000e-01  5.000000e-01
     vertex -1.000000e+01  5.000000e-01  5.000000e-01
     vertex -1.000000e+01  5.000000e-01 -5.000000e-01
   endloop
 endfacet
 facet normal  0.000000e+00 -1.000000e+00 -2.846726e-17
   outer loop
     vertex -6.500000e+00 -5.000000e-01 -5.000000e-01
     vertex -6.500000e+00 -5.000000e-01 -2.000000e+01
     vertex -5.500000e+00 -5.000000e-01 -2.000000e+01
   endloop
 endfacet
 facet normal -1.586033e-16 -1.000000e+00  2.275957e-15
   outer loop
     vertex -6.500000e+00 -5.000000e-01  5.000000e-01
     vertex -1.000000e+01 -5.000000e-01 -5.000000e-01
     vertex -6.500000e+00 -5.000000e-01 -5.000000e-01
   endloop
 endfacet
 facet normal -1.744636e-16 -1.000000e+00  2.331468e-15
   outer loop
     vertex -6.500000e+00 -5.000000e-01  5.000000e-01
     vertex -1.000000e+01 -5.000000e-01  5.000000e-01
     vertex -1.000000e+01 -5.000000e-01 -5.000000e-01
   endloop
 endfacet
 facet normal -0.000000e+00 -1.000000e+00 -2.846726e-17
   outer loop
     vertex -5.500000e+00 -5.000000e-01 -5.000000e-01
     vertex -6.500000e+00 -5.000000e-01 -5.000000e-01
     vertex -5.500000e+00 -5.000000e-01 -2.000000e+01
   endloop
 endfacet
 facet normal  0.000000e+00 -1.000000e+00  2.275957e-15
   outer loop
     vertex -5.500000e+00 -5.000000e-01  5.000000e-01
     vertex -6.500000e+00 -5.000000e-01  5.000000e-01
     vertex -6.500000e+00 -5.000000e-01 -5.000000e-01
   endloop
 endfacet
 facet normal  0.000000e+00 -1.000000e+00  2.275957e-15
   outer loop
     vertex -5.500000e+00 -5.000000e-01  5.000000e-01
     vertex -6.500000e+00 -5.000000e-01 -5.000000e-01
     vertex -5.500000e+00 -5.000000e-01 -5.000000e-01
   endloop
 endfacet
 facet normal  0.000000e+00 -1.000000e+00 -2.846726e-17
   outer loop
     vertex -5.000000e-01 -5.000000e-01 -5.000000e-01
     vertex -5.000000e-01 -5.000000e-01 -2.000000e+01
     vertex  5.000000e-01 -5.000000e-01 -2.000000e+01
   endloop
 endfacet
 facet normal  0.000000e+00 -1.000000e+00  2.275957e-15
   outer loop
     vertex -5.000000e-01 -5.000000e-01  5.000000e-01
     vertex -5.500000e+00 -5.000000e-01 -5.000000e-01
     vertex -5.000000e-01 -5.000000e-01 -5.000000e-01
   endloop
 endfacet
 facet normal  0.000000e+00 -1.000000e+00  2.275957e-15
   outer loop
     vertex -5.000000e-01 -5.000000e-01  5.000000e-01
     vertex -5.500000e+00 -5.000000e-01  5.000000e-01
     vertex -5.500000e+00 -5.000000e-01 -5.000000e-01
   endloop
 endfacet
 facet normal -0.000000e+00 -1.000000e+00 -2.846726e-17
   outer loop
     vertex  5.000000e-01 -5.000000e-01 -5.000000e-01
     vertex -5.000000e-01 -5.000000e-01 -5.000000e-01
     vertex  5.000000e-01 -5.000000e-01 -2.000000e+01
   endloop
 endfacet
 facet normal  0.000000e+00 -1.000000e+00  2.275957e-15
   outer loop
     vertex  5.000000e-01 -5.000000e-01  5.000000e-01
     vertex -5.000000e-01 -5.000000e-01  5.000000e-01
     vertex -5.000000e-01 -5.000000e-01 -5.000000e-01
   endloop
 endfacet
 facet normal  0.000000e+00 -1.000000e+00  2.275957e-15
   outer loop
     vertex  5.000000e-01 -5.000000e-01  5.000000e-01
     vertex -5.000000e-01 -5.000000e-01 -5.000000e-01
     vertex  5.000000e-01 -5.000000e-01 -5.000000e-01
   endloop
 endfacet
 facet normal  0.000000e+00 -1.000000e+00 -2.846726e-17
   outer loop
     vertex  5.500000e+00 -5.000000e-01 -5.000000e-01
     vertex  5.500000e+00 -5.000000e-01 -2.000000e+01
     vertex  6.500000e+00 -5.000000e-01 -2.000000e+01
   endloop
 endfacet
 facet normal -0.000000e+00 -1.000000e+00 -2.846726e-17
   outer loop
     vertex  6.500000e+00 -5.000000e-01 -5.000000e-01
     vertex  5.500000e+00 -5.000000e-01 -5.000000e-01
     vertex  6.500000e+00 -5.000000e-01 -2.000000e+01
   endloop
 endfacet
 facet normal  0.000000e+00 -1.000000e+00  2.275957e-15
   outer loop
     vertex  5.500000e+00 -5.000000e-01  5.000000e-01
     vertex  5.000000e-01 -5.000000e-01 -5.000000e-01
     vertex  5.500000e+00 -5.000000e-01 -5.000000e-01
   endloop
 endfacet
 facet normal  0.000000e+00 -1.000000e+00  2.275957e-15
   outer loop
     vertex  5.500000e+00 -5.000000e-01  5.000000e-01
     vertex  5.000000e-01 -5.000000e-01  5.000000e-01
     vertex  5.000000e-01 -5.000000e-01 -5.000000e-01
   endloop
 endfacet
 facet normal  0.000000e+00 -1.000000e+00  2.275957e-15
   outer loop
     vertex  6.500000e+00 -5.000000e-01  5.000000e-01
     vertex  5.500000e+00 -5.000000e-01 -5.000000e-01
     vertex  6.500000e+00 -5.000000e-01 -5.000000e-01
   endloop
 endfacet
 facet normal  0.000000e+00 -1.000000e+00  2.275957e-15
   outer loop
     vertex  6.500000e+00 -5.000000e-01  5.000000e-01
     vertex  5.500000e+00 -5.000000e-01  5.000000e-01
     vertex  5.500000e+00 -5.000000e-01 -5.000000e-01
   endloop
 endfacet
 facet normal  1.586033e-16 -1.000000e+00  2.331468e-15
   outer loop
     vertex  1.000000e+01 -5.000000e-01  5.000000e-01
     vertex  6.500000e+00 -5.000000e-01 -5.000000e-01
     vertex  1.000000e+01 -5.000000e-01 -5.000000e-01
   endloop
 endfacet
 facet normal  1.744636e-16 -1.000000e+00  2.275957e-15
   outer loop
     vertex  1.000000e+01 -5.000000e-01  5.000000e-01
     vertex  6.500000e+00 -5.000000e-01  5.000000e-01
     vertex  6.500000e+00 -5.000000e-01 -5.000000e-01
   endloop
 endfacet
 facet normal  0.000000e+00 -1.000000e+00  3.131398e-17
   outer loop
     vertex -6.500000e+00 -5.000000e-01  2.000000e+01
     vertex -6.500000e+00 -5.000000e-01  5.000000e-01
     vertex -5.500000e+00 -5.000000e-01  5.000000e-01
   endloop
 endfacet
 facet normal  0.000000e+00 -1.000000e+00  3.131398e-17
   outer loop
     vertex -5.500000e+00 -5.000000e-01  2.000000e+01
     vertex -6.500000e+00 -5.000000e-01  2.000000e+01
     vertex -5.500000e+00 -5.000000e-01  5.000000e-01
   endloop
 endfacet
 facet normal  0.000000e+00 -1.000000e+00  3.131398e-17
   outer loop
     vertex -5.000000e-01 -5.000000e-01  2.000000e+01
     vertex -5.000000e-01 -5.000000e-01  5.000000e-01
     vertex  5.000000e-01 -5.000000e-01  5.000000e-01
   endloop
 endfacet
 facet normal  0.000000e+00 -1.000000e+00  3.131398e-17
   outer loop
     vertex  5.000000e-01 -5.000000e-01  2.000000e+01
     vertex -5.000000e-01 -5.000000e-01  2.000000e+01
     vertex  5.000000e-01 -5.000000e-01  5.000000e-01
   endloop
 endfacet
 facet normal  0.000000e+00 -1.000000e+00  3.131398e-17
   outer loop
     vertex  5.500000e+00 -5.000000e-01  2.000000e+01
     vertex  5.500000e+00 -5.000000e-01  5.000000e-01
     vertex  6.500000e+00 -5.000000e-01  5.000000e-01
   endloop
 endfacet
 facet normal  0.000000e+00 -1.000000e+00  3.131398e-17
   outer loop
     vertex  6.500000e+00 -5.000000e-01  2.000000e+01
     vertex  5.500000e+00 -5.000000e-01  2.000000e+01
     vertex  6.500000e+00 -5.000000e-01  5.000000e-01
   endloop
 endfacet
 facet normal  0.000000e+00  0.000000e+00  1.000000e+00
   outer loop
     vertex -6.500000e+00 -5.000000e-01  5.000000e-01
     vertex -1.000000e+01  5.000000e-01  5.000000e-01
     vertex -1.000000e+01 -5.000000e-01  5.000000e-01
   endloop
 endfacet
 facet normal  1.586033e-17  5.551115e-17  1.000000e+00
   outer loop
     vertex -6.500000e+00  5.000000e-01  5.000000e-01
     vertex -1.000000e+01  5.000000e-01  5.000000e-01
     vertex -6.500000e+00 -5.000000e-01  5.000000e-01
   endloop
 endfacet
 facet normal  0.000000e+00  1.000000e+00  3.131398e-17
   outer loop
     vertex -6.500000e+00  5.000000e-01 -5.000000e-01
     vertex -5.500000e+00  5.000000e-01 -2.000000e+01
     vertex -6.500000e+00  5.000000e-01 -2.000000e+01
   endloop
 endfacet
 facet normal  1.744636e-16  1.000000e+00 -2.275957e-15
   outer loop
     vertex -6.500000e+00  5.000000e-01  5.000000e-01
     vertex -6.500000e+00  5.000000e-01 -5.000000e-01
     vertex -1.000000e+01  5.000000e-01 -5.000000e-01
   endloop
 endfacet
 facet normal  1.903239e-16  1.000000e+00 -2.331468e-15
   outer loop
     vertex -6.500000e+00  5.000000e-01  5.000000e-01
     vertex -1.000000e+01  5.000000e-01 -5.000000e-01
     vertex -1.000000e+01  5.000000e-01  5.000000e-01
   endloop
 endfacet
 facet normal  0.000000e+00  1.000000e+00  3.131398e-17
   outer loop
     vertex -5.500000e+00  5.000000e-01 -5.000000e-01
     vertex -5.500000e+00  5.000000e-01 -2.000000e+01
     vertex -6.500000e+00  5.000000e-01 -5.000000e-01
   endloop
 endfacet
 facet normal  0.000000e+00  1.000000e+00 -2.275957e-15
   outer loop
     vertex -5.500000e+00  5.000000e-01  5.000000e-01
     vertex -6.500000e+00  5.000000e-01 -5.000000e-01
     vertex -6.500000e+00  5.000000e-01  5.000000e-01
   endloop
 endfacet
 facet normal  0.000000e+00  1.000000e+00 -2.275957e-15
   outer loop
     vertex -5.500000e+00  5.000000e-01  5.000000e-01
     vertex -5.500000e+00  5.000000e-01 -5.000000e-01
     vertex -6.500000e+00  5.000000e-01 -5.000000e-01
   endloop
 endfacet
 facet normal  0.000000e+00  1.000000e+00  3.131398e-17
   outer loop
     vertex -5.000000e-01  5.000000e-01 -5.000000e-01
     vertex  5.000000e-01  5.000000e-01 -2.000000e+01
     vertex -5.000000e-01  5.000000e-01 -2.000000e+01
   endloop
 endfacet
 facet normal  0.000000e+00  1.000000e+00 -2.275957e-15
   outer loop
     vertex -5.000000e-01  5.000000e-01  5.000000e-01
     vertex -5.000000e-01  5.000000e-01 -5.000000e-01
     vertex -5.500000e+00  5.000000e-01 -5.000000e-01
   endloop
 endfacet
 facet normal  0.000000e+00  1.000000e+00 -2.275957e-15
   outer loop
     vertex -5.000000e-01  5.000000e-01  5.000000e-01
     vertex -5.500000e+00  5.000000e-01 -5.000000e-01
     vertex -5.500000e+00  5.000000e-01  5.000000e-01
   endloop
 endfacet
 facet normal  0.000000e+00  1.000000e+00  3.131398e-17
   outer loop
     vertex  5.000000e-01  5.000000e-01 -5.000000e-01
     vertex  5.000000e-01  5.000000e-01 -2.000000e+01
     vertex -5.000000e-01  5.000000e-01 -5.000000e-01
   endloop
 endfacet
 facet normal  0.000000e+00  1.000000e+00 -2.275957e-15
   outer loop
     vertex  5.000000e-01  5.000000e-01  5.000000e-01
     vertex -5.000000e-01  5.000000e-01 -5.000000e-01
     vertex -5.000000e-01  5.000000e-01  5.000000e-01
   endloop
 endfacet
 facet normal  0.000000e+00  1.000000e+00 -2.275957e-15
   outer loop
     vertex  5.000000e-01  5.000000e-01  5.000000e-01
     vertex  5.000000e-01  5.000000e-01 -5.000000e-01
     vertex -5.000000e-01  5.000000e-01 -5.000000e-01
   endloop
 endfacet
 facet normal  0.000000e+00  1.000000e+00  3.131398e-17
   outer loop
     vertex  5.500000e+00  5.000000e-01 -5.000000e-01
     vertex  6.500000e+00  5.000000e-01 -2.000000e+01
     vertex  5.500000e+00  5.000000e-01 -2.000000e+01
   endloop
 endfacet
 facet normal  0.000000e+00  1.000000e+00  3.131398e-17
   outer loop
     vertex  6.500000e+00  5.000000e-01 -5.000000e-01
     vertex  6.500000e+00  5.000000e-01 -2.000000e+01
     vertex  5.500000e+00  5.000000e-01 -5.000000e-01
   endloop
 endfacet
 facet normal  0.000000e+00  1.000000e+00 -2.275957e-15
   outer loop
     vertex  5.500000e+00  5.000000e-01  5.000000e-01
     vertex  5.500000e+00  5.000000e-01 -5.000000e-01
     vertex  5.000000e-01  5.000000e-01 -5.000000e-01
   endloop
 endfacet
 facet normal  0.000000e+00  1.000000e+00 -2.275957e-15
   outer loop
     vertex  5.500000e+00  5.000000e-01  5.000000e-01
     vertex  5.000000e-01  5.000000e-01 -5.000000e-01
     vertex  5.000000e-01  5.000000e-01  5.000000e-01
   endloop
 endfacet
 facet normal  0.000000e+00  1.000000e+00 -2.275957e-15
   outer loop
     vertex  6.500000e+00  5.000000e-01  5.000000e-01
     vertex  6.500000e+00  5.000000e-01 -5.000000e-01
     vertex  5.500000e+00  5.000000e-01 -5.000000e-01
   endloop
 endfacet
 facet normal  0.000000e+00  1.000000e+00 -2.275957e-15
   outer loop
     vertex  6.500000e+00  5.000000e-01  5.000000e-01
     vertex  5.500000e+00  5.000000e-01 -5.000000e-01
     vertex  5.500000e+00  5.000000e-01  5.000000e-01
   endloop
 endfacet
 facet normal -1.744636e-16  1.000000e+00 -2.331468e-15
   outer loop
     vertex  1.000000e+01  5.000000e-01  5.000000e-01
     vertex  1.000000e+01  5.000000e-01 -5.000000e-01
     vertex  6.500000e+00  5.000000e-01 -5.000000e-01
   endloop
 endfacet
 facet normal -1.903239e-16  1.000000e+00 -2.275957e-15
   outer loop
     vertex  1.000000e+01  5.000000e-01  5.000000e-01
     vertex  6.500000e+00  5.000000e-01 -5.000000e-01
     vertex  6.500000e+00  5.000000e-01  5.000000e-01
   endloop
 endfacet
 facet normal  0.000000e+00  1.000000e+00 -3.416071e-17
   outer loop
     vertex -6.500000e+00  5.000000e-01  2.000000e+01
     vertex -5.500000e+00  5.000000e-01  5.000000e-01
     vertex -6.500000e+00  5.000000e-01  5.000000e-01
   endloop
 endfacet
 facet normal  0.000000e+00  1.000000e+00 -3.416071e-17
   outer loop
     vertex -5.500000e+00  5.000000e-01  2.000000e+01
     vertex -5.500000e+00  5.000000e-01  5.000000e-01
     vertex -6.500000e+00  5.000000e-01  2.000000e+01
   endloop
 endfacet
 facet normal  0.000000e+00  1.000000e+00 -3.416071e-17
   outer loop
     vertex -5.000000e-01  5.000000e-01  2.000000e+01
     vertex  5.000000e-01  5.000000e-01  5.000000e-01
     vertex -5.000000e-01  5.000000e-01  5.000000e-01
   endloop
 endfacet
 facet normal  0.000000e+00  1.000000e+00 -3.416071e-17
   outer loop
     vertex  5.000000e-01  5.000000e-01  2.000000e+01
     vertex  5.000000e-01  5.000000e-01  5.000000e-01
     vertex -5.000000e-01  5.000000e-01  2.000000e+01
   endloop
 endfacet
 facet normal  0.000000e+00  1.000000e+00 -3.416071e-17
   outer loop
     vertex  5.500000e+00  5.000000e-01  2.000000e+01
     vertex  6.500000e+00  5.000000e-01  5.000000e-01
     vertex  5.500000e+00  5.000000e-01  5.000000e-01
   endloop
 endfacet
 facet normal  0.000000e+00  1.000000e+00 -3.416071e-17
   outer loop
     vertex  6.500000e+00  5.000000e-01  2.000000e+01
     vertex  6.500000e+00  5.000000e-01  5.000000e-01
     vertex  5.500000e+00  5.000000e-01  2.000000e+01
   endloop
 endfacet
 facet normal -0.000000e+00  0.000000e+00 -1.000000e+00
   outer loop
     vertex -6.500000e+00  5.000000e-01 -5.000000e-01
     vertex -1.000000e+01 -5.000000e-01 -5.000000e-01
     vertex -1.000000e+01  5.000000e-01 -5.000000e-01
   endloop
 endfacet
 facet normal  1.586033e-17 -5.551115e-17 -1.000000e+00
   outer loop
     vertex -6.500000e+00  5.000000e-01 -5.000000e-01
     vertex -6.500000e+00 -5.000000e-01 -5.000000e-01
     vertex -1.000000e+01 -5.000000e-01 -5.000000e-01
   endloop
 endfacet
 facet normal -0.000000e+00  0.000000e+00 -1.000000e+00
   outer loop
     vertex -5.500000e+00  5.000000e-01 -2.000000e+01
     vertex -6.500000e+00 -5.000000e-01 -2.000000e+01
     vertex -6.500000e+00  5.000000e-01 -2.000000e+01
   endloop
 endfacet
 facet normal  0.000000e+00 -0.000000e+00 -1.000000e+00
   outer loop
     vertex -5.500000e+00  5.000000e-01 -2.000000e+01
     vertex -5.500000e+00 -5.000000e-01 -2.000000e+01
     vertex -6.500000e+00 -5.000000e-01 -2.000000e+01
   endloop
 endfacet
 facet normal  1.000000e+00  0.000000e+00  0.000000e+00
   outer loop
     vertex -5.500000e+00  5.000000e-01 -5.000000e-01
     vertex -5.500000e+00 -5.000000e-01 -2.000000e+01
     vertex -5.500000e+00  5.000000e-01 -2.000000e+01
   endloop
 endfacet
 facet normal  1.000000e+00  0.000000e+00  0.000000e+00
   outer loop
     vertex -5.500000e+00 -5.000000e-01 -5.000000e-01
     vertex -5.500000e+00 -5.000000e-01 -2.000000e+01
     vertex -5.500000e+00  5.000000e-01 -5.000000e-01
   endloop
 endfacet
 facet normal -0.000000e+00 -5.551115e-17 -1.000000e+00
   outer loop
     vertex -5.000000e-01  5.000000e-01 -5.000000e-01
     vertex -5.500000e+00 -5.000000e-01 -5.000000e-01
     vertex -5.500000e+00  5.000000e-01 -5.000000e-01
   endloop
 endfacet
 facet normal  0.000000e+00 -5.551115e-17 -1.000000e+00
   outer loop
     vertex -5.000000e-01  5.000000e-01 -5.000000e-01
     vertex -5.000000e-01 -5.000000e-01 -5.000000e-01
     vertex -5.500000e+00 -5.000000e-01 -5.000000e-01
   endloop
 endfacet
 facet normal -1.000000e+00  0.000000e+00 -0.000000e+00
   outer loop
     vertex -5.000000e-01  5.000000e-01 -5.000000e-01
     vertex -5.000000e-01  5.000000e-01 -2.000000e+01
     vertex -5.000000e-01 -5.000000e-01 -2.000000e+01
   endloop
 endfacet
 facet normal -1.000000e+00  0.000000e+00  0.000000e+00
   outer loop
     vertex -5.000000e-01 -5.000000e-01 -5.000000e-01
     vertex -5.000000e-01  5.000000e-01 -5.000000e-01
     vertex -5.000000e-01 -5.000000e-01 -2.000000e+01
   endloop
 endfacet
 facet normal -0.000000e+00  0.000000e+00 -1.000000e+00
   outer loop
     vertex  5.000000e-01  5.000000e-01 -2.000000e+01
     vertex -5.000000e-01 -5.000000e-01 -2.000000e+01
     vertex -5.000000e-01  5.000000e-01 -2.000000e+01
   endloop
 endfacet
 facet normal  0.000000e+00 -0.000000e+00 -1.000000e+00
   outer loop
     vertex  5.000000e-01  5.000000e-01 -2.000000e+01
     vertex  5.000000e-01 -5.000000e-01 -2.000000e+01
     vertex -5.000000e-01 -5.000000e-01 -2.000000e+01
   endloop
 endfacet
 facet normal  1.000000e+00  0.000000e+00  0.000000e+00
   outer loop
     vertex  5.000000e-01  5.000000e-01 -5.000000e-01
     vertex  5.000000e-01 -5.000000e-01 -2.000000e+01
     vertex  5.000000e-01  5.000000e-01 -2.000000e+01
   endloop
 endfacet
 facet normal  1.000000e+00  0.000000e+00  0.000000e+00
   outer loop
     vertex  5.000000e-01 -5.000000e-01 -5.000000e-01
     vertex  5.000000e-01 -5.000000e-01 -2.000000e+01
     vertex  5.000000e-01  5.000000e-01 -5.000000e-01
   endloop
 endfacet
 facet normal -0.000000e+00 -5.551115e-17 -1.000000e+00
   outer loop
     vertex  5.500000e+00  5.000000e-01 -5.000000e-01
     vertex  5.000000e-01 -5.000000e-01 -5.000000e-01
     vertex  5.000000e-01  5.000000e-01 -5.000000e-01
   endloop
 endfacet
 facet normal  0.000000e+00 -5.551115e-17 -1.000000e+00
   outer loop
     vertex  5.500000e+00  5.000000e-01 -5.000000e-01
     vertex  5.500000e+00 -5.000000e-01 -5.000000e-01
     vertex  5.000000e-01 -5.000000e-01 -5.000000e-01
   endloop
 endfacet
 facet normal -1.000000e+00  0.000000e+00 -0.000000e+00
   outer loop
     vertex  5.500000e+00  5.000000e-01 -5.000000e-01
     vertex  5.500000e+00  5.000000e-01 -2.000000e+01
     vertex  5.500000e+00 -5.000000e-01 -2.000000e+01
   endloop
 endfacet
 facet normal -1.000000e+00  0.000000e+00  0.000000e+00
   outer loop
     vertex  5.500000e+00 -5.000000e-01 -5.000000e-01
     vertex  5.500000e+00  5.000000e-01 -5.000000e-01
     vertex  5.500000e+00 -5.000000e-01 -2.000000e+01
   endloop
 endfacet
 facet normal -0.000000e+00  0.000000e+00 -1.000000e+00
   outer loop
     vertex  6.500000e+00  5.000000e-01 -2.000000e+01
     vertex  5.500000e+00 -5.000000e-01 -2.000000e+01
     vertex  5.500000e+00  5.000000e-01 -2.000000e+01
   endloop
 endfacet
 facet normal  0.000000e+00 -0.000000e+00 -1.000000e+00
   outer loop
     vertex  6.500000e+00  5.000000e-01 -2.000000e+01
     vertex  6.500000e+00 -5.000000e-01 -2.000000e+01
     vertex  5.500000e+00 -5.000000e-01 -2.000000e+01
   endloop
 endfacet
 facet normal  1.000000e+00  0.000000e+00  0.000000e+00
   outer loop
     vertex  6.500000e+00  5.000000e-01 -5.000000e-01
     vertex  6.500000e+00 -5.000000e-01 -2.000000e+01
     vertex  6.500000e+00  5.000000e-01 -2.000000e+01
   endloop
 endfacet
 facet normal  1.000000e+00  0.000000e+00  0.000000e+00
   outer loop
     vertex  6.500000e+00 -5.000000e-01 -5.000000e-01
     vertex  6.500000e+00 -5.000000e-01 -2.000000e+01
     vertex  6.500000e+00  5.000000e-01 -5.000000e-01
   endloop
 endfacet
 facet normal  9.684676e-33 -5.551115e-17 -1.000000e+00
   outer loop
     vertex  1.000000e+01  5.000000e-01 -5.000000e-01
     vertex  6.500000e+00 -5.000000e-01 -5.000000e-01
     vertex  6.500000e+00  5.000000e-01 -5.000000e-01
   endloop
 endfacet
 facet normal -1.586033e-17 -0.000000e+00 -1.000000e+00
   outer loop
     vertex  1.000000e+01  5.000000e-01 -5.000000e-01
     vertex  1.000000e+01 -5.000000e-01 -5.000000e-01
     vertex  6.500000e+00 -5.000000e-01 -5.000000e-01
   endloop
 endfacet
 facet normal  1.000000e+00  0.000000e+00  0.000000e+00
   outer loop
     vertex  1.000000e+01 -5.000000e-01  5.000000e-01
     vertex  1.000000e+01 -5.000000e-01 -5.000000e-01
     vertex  1.000000e+01  5.000000e-01 -5.000000e-01
   endloop
 endfacet
 facet normal  1.000000e+00 -0.000000e+00  0.000000e+00
   outer loop
     vertex  1.000000e+01 -5.000000e-01  5.000000e-01
     vertex  1.000000e+01  5.000000e-01 -5.000000e-01
     vertex  1.000000e+01  5.000000e-01  5.000000e-01
   endloop
 endfacet
 facet normal -1.586033e-17  5.551115e-17  1.000000e+00
   outer loop
     vertex  1.000000e+01  5.000000e-01  5.000000e-01
     vertex  6.500000e+00  5.000000e-01  5.000000e-01
     vertex  6.500000e+00 -5.000000e-01  5.000000e-01
   endloop
 endfacet
 facet normal  0.000000e+00  0.000000e+00  1.000000e+00
   outer loop
     vertex  1.000000e+01  5.000000e-01  5.000000e-01
     vertex  6.500000e+00 -5.000000e-01  5.000000e-01
     vertex  1.000000e+01 -5.000000e-01  5.000000e-01
   endloop
 endfacet
 facet normal  1.000000e+00  0.000000e+00  0.000000e+00
   outer loop
     vertex  6.500000e+00 -5.000000e-01  2.000000e+01
     vertex  6.500000e+00 -5.000000e-01  5.000000e-01
     vertex  6.500000e+00  5.000000e-01  5.000000e-01
   endloop
 endfacet
 facet normal  1.000000e+00 -0.000000e+00  0.000000e+00
   outer loop
     vertex  6.500000e+00 -5.000000e-01  2.000000e+01
     vertex  6.500000e+00  5.000000e-01  5.000000e-01
     vertex  6.500000e+00  5.000000e-01  2.000000e+01
   endloop
 endfacet
 facet normal  0.000000e+00  0.000000e+00  1.000000e+00
   outer loop
     vertex  6.500000e+00 -5.000000e-01  2.000000e+01
     vertex  5.500000e+00  5.000000e-01  2.000000e+01
     vertex  5.500000e+00 -5.000000e-01  2.000000e+01
   endloop
 endfacet
 facet normal  0.000000e+00  0.000000e+00  1.000000e+00
   outer loop
     vertex  6.500000e+00  5.000000e-01  2.000000e+01
     vertex  5.500000e+00  5.000000e-01  2.000000e+01
     vertex  6.500000e+00 -5.000000e-01  2.000000e+01
   endloop
 endfacet
 facet normal -1.000000e+00  0.000000e+00 -0.000000e+00
   outer loop
     vertex  5.500000e+00 -5.000000e-01  2.000000e+01
     vertex  5.500000e+00  5.000000e-01  5.000000e-01
     vertex  5.500000e+00 -5.000000e-01  5.000000e-01
   endloop
 endfacet
 facet normal -1.000000e+00  0.000000e+00  0.000000e+00
   outer loop
     vertex  5.500000e+00 -5.000000e-01  2.000000e+01
     vertex  5.500000e+00  5.000000e-01  2.000000e+01
     vertex  5.500000e+00  5.000000e-01  5.000000e-01
   endloop
 endfacet
 facet normal  0.000000e+00  5.551115e-17  1.000000e+00
   outer loop
     vertex  5.500000e+00  5.000000e-01  5.000000e-01
     vertex  5.000000e-01  5.000000e-01  5.000000e-01
     vertex  5.000000e-01 -5.000000e-01  5.000000e-01
   endloop
 endfacet
 facet normal  0.000000e+00  5.551115e-17  1.000000e+00
   outer loop
     vertex  5.500000e+00  5.000000e-01  5.000000e-01
     vertex  5.000000e-01 -5.000000e-01  5.000000e-01
     vertex  5.500000e+00 -5.000000e-01  5.000000e-01
   endloop
 endfacet
 facet normal  1.000000e+00  0.000000e+00  0.000000e+00
   outer loop
     vertex  5.000000e-01 -5.000000e-01  2.000000e+01
     vertex  5.000000e-01 -5.000000e-01  5.000000e-01
     vertex  5.000000e-01  5.000000e-01  5.000000e-01
   endloop
 endfacet
 facet normal  1.000000e+00 -0.000000e+00  0.000000e+00
   outer loop
     vertex  5.000000e-01 -5.000000e-01  2.000000e+01
     vertex  5.000000e-01  5.000000e-01  5.000000e-01
     vertex  5.000000e-01  5.000000e-01  2.000000e+01
   endloop
 endfacet
 facet normal  0.000000e+00  0.000000e+00  1.000000e+00
   outer loop
     vertex  5.000000e-01 -5.000000e-01  2.000000e+01
     vertex -5.000000e-01  5.000000e-01  2.000000e+01
     vertex -5.000000e-01 -5.000000e-01  2.000000e+01
   endloop
 endfacet
 facet normal  0.000000e+00  0.000000e+00  1.000000e+00
   outer loop
     vertex  5.000000e-01  5.000000e-01  2.000000e+01
     vertex -5.000000e-01  5.000000e-01  2.000000e+01
     vertex  5.000000e-01 -5.000000e-01  2.000000e+01
   endloop
 endfacet
 facet normal -1.000000e+00  0.000000e+00 -0.000000e+00
   outer loop
     vertex -5.000000e-01 -5.000000e-01  2.000000e+01
     vertex -5.000000e-01  5.000000e-01  5.000000e-01
     vertex -5.000000e-01 -5.000000e-01  5.000000e-01
   endloop
 endfacet
 facet normal -1.000000e+00  0.000000e+00  0.000000e+00
   outer loop
     vertex -5.000000e-01 -5.000000e-01  2.000000e+01
     vertex -5.000000e-01  5.000000e-01  2.000000e+01
     vertex -5.000000e-01  5.000000e-01  5.000000e-01
   endloop
 endfacet
 facet normal  0.000000e+00  5.551115e-17  1.000000e+00
   outer loop
     vertex -5.000000e-01  5.000000e-01  5.000000e-01
     vertex -5.500000e+00  5.000000e-01  5.000000e-01
     vertex -5.500000e+00 -5.000000e-01  5.000000e-01
   endloop
 endfacet
 facet normal  0.000000e+00  5.551115e-17  1.000000e+00
   outer loop
     vertex -5.000000e-01  5.000000e-01  5.000000e-01
     vertex -5.500000e+00 -5.000000e-01  5.000000e-01
     vertex -5.000000e-01 -5.000000e-01  5.000000e-01
   endloop
 endfacet
 facet normal  1.000000e+00  0.000000e+00  0.000000e+00
   outer loop
     vertex -5.500000e+00 -5.000000e-01  2.000000e+01
     vertex -5.500000e+00 -5.000000e-01  5.000000e-01
     vertex -5.500000e+00  5.000000e-01  5.000000e-01
   endloop
 endfacet
 facet normal  1.000000e+00 -0.000000e+00  0.000000e+00
   outer loop
     vertex -5.500000e+00 -5.000000e-01  2.000000e+01
     vertex -5.500000e+00  5.000000e-01  5.000000e-01
     vertex -5.500000e+00  5.000000e-01  2.000000e+01
   endloop
 endfacet
 facet normal  0.000000e+00  0.000000e+00  1.000000e+00
   outer loop
     vertex -6.500000e+00  5.000000e-01  2.000000e+01
     vertex -6.500000e+00 -5.000000e-01  2.000000e+01
     vertex -5.500000e+00 -5.000000e-01  2.000000e+01
   endloop
 endfacet
 facet normal  0.000000e+00  0.000000e+00  1.000000e+00
   outer loop
     vertex -5.500000e+00  5.000000e-01  2.000000e+01
     vertex -6.500000e+00  5.000000e-01  2.000000e+01
     vertex -5.500000e+00 -5.000000e-01  2.000000e+01
   endloop
 endfacet
 facet normal -1.000000e+00  0.000000e+00 -0.000000e+00
   outer loop
     vertex -6.500000e+00 -5.000000e-01  2.000000e+01
     vertex -6.500000e+00  5.000000e-01  5.000000e-01
     vertex -6.500000e+00 -5.000000e-01  5.000000e-01
   endloop
 endfacet
 facet normal -1.000000e+00  0.000000e+00  0.000000e+00
   outer loop
     vertex -6.500000e+00 -5.000000e-01  2.000000e+01
     vertex -6.500000e+00  5.000000e-01  2.000000e+01
     vertex -6.500000e+00  5.000000e-01  5.000000e-01
   endloop
 endfacet
 facet normal -1.000000e+00  0.000000e+00 -0.000000e+00
   outer loop
     vertex -6.500000e+00  5.000000e-01 -5.000000e-01
     vertex -6.500000e+00  5.000000e-01 -2.000000e+01
     vertex -6.500000e+00 -5.000000e-01 -2.000000e+01
   endloop
 endfacet
 facet normal -1.000000e+00  0.000000e+00  0.000000e+00
   outer loop
     vertex -6.500000e+00 -5.000000e-01 -5.000000e-01
     vertex -6.500000e+00  5.000000e-01 -5.000000e-01
     vertex -6.500000e+00 -5.000000e-01 -2.000000e+01
   endloop
 endfacet
endsolid
