solid 
 facet normal -1.000000e+00  0.000000e+00  0.000000e+00
   outer loop
     vertex -5.200000e+01 -3.950000e+01 -2.000000e+01
     vertex -5.200000e+01  3.950000e+01 -1.700000e+01
     vertex -5.200000e+01  3.950000e+01 -2.000000e+01
   endloop
 endfacet
 facet normal -1.000000e+00  0.000000e+00  0.000000e+00
   outer loop
     vertex -5.200000e+01 -3.950000e+01 -1.700000e+01
     vertex -5.200000e+01  3.950000e+01 -1.700000e+01
     vertex -5.200000e+01 -3.950000e+01 -2.000000e+01
   endloop
 endfacet
 facet normal  1.000000e+00  0.000000e+00  0.000000e+00
   outer loop
     vertex  5.200000e+01 -3.950000e+01 -2.000000e+01
     vertex  5.200000e+01  3.950000e+01 -2.000000e+01
     vertex  5.200000e+01  3.950000e+01 -1.700000e+01
   endloop
 endfacet
 facet normal  1.000000e+00 -0.000000e+00  0.000000e+00
   outer loop
     vertex  5.200000e+01 -3.950000e+01 -1.700000e+01
     vertex  5.200000e+01 -3.950000e+01 -2.000000e+01
     vertex  5.200000e+01  3.950000e+01 -1.700000e+01
   endloop
 endfacet
 facet normal  0.000000e+00 -1.000000e+00 -0.000000e+00
   outer loop
     vertex  5.200000e+01 -3.950000e+01 -1.700000e+01
     vertex -5.200000e+01 -3.950000e+01 -2.000000e+01
     vertex  5.200000e+01 -3.950000e+01 -2.000000e+01
   endloop
 endfacet
 facet normal -0.000000e+00 -1.000000e+00  0.000000e+00
   outer loop
     vertex  5.200000e+01 -3.950000e+01 -1.700000e+01
     vertex -5.200000e+01 -3.950000e+01 -1.700000e+01
     vertex -5.200000e+01 -3.950000e+01 -2.000000e+01
   endloop
 endfacet
 facet normal  0.000000e+00  1.000000e+00  0.000000e+00
   outer loop
     vertex  5.200000e+01  3.950000e+01 -1.700000e+01
     vertex  5.200000e+01  3.950000e+01 -2.000000e+01
     vertex -5.200000e+01  3.950000e+01 -2.000000e+01
   endloop
 endfacet
 facet normal  0.000000e+00  1.000000e+00  0.000000e+00
   outer loop
     vertex  5.200000e+01  3.950000e+01 -1.700000e+01
     vertex -5.200000e+01  3.950000e+01 -2.000000e+01
     vertex -5.200000e+01  3.950000e+01 -1.700000e+01
   endloop
 endfacet
 facet normal -0.000000e+00  0.000000e+00 -1.000000e+00
   outer loop
     vertex  5.200000e+01  3.950000e+01 -2.000000e+01
     vertex -5.200000e+01 -3.950000e+01 -2.000000e+01
     vertex -5.200000e+01  3.950000e+01 -2.000000e+01
   endloop
 endfacet
 facet normal  0.000000e+00 -0.000000e+00 -1.000000e+00
   outer loop
     vertex  5.200000e+01  3.950000e+01 -2.000000e+01
     vertex  5.200000e+01 -3.950000e+01 -2.000000e+01
     vertex -5.200000e+01 -3.950000e+01 -2.000000e+01
   endloop
 endfacet
 facet normal  0.000000e+00  0.000000e+00  1.000000e+00
   outer loop
     vertex  5.200000e+01  3.950000e+01 -1.700000e+01
     vertex -5.200000e+01  3.950000e+01 -1.700000e+01
     vertex -5.200000e+01 -3.950000e+01 -1.700000e+01
   endloop
 endfacet
 facet normal  0.000000e+00  0.000000e+00  1.000000e+00
   outer loop
     vertex  5.200000e+01  3.950000e+01 -1.700000e+01
     vertex -5.200000e+01 -3.950000e+01 -1.700000e+01
     vertex  5.200000e+01 -3.950000e+01 -1.700000e+01
   endloop
 endfacet
 facet normal -1.000000e+00  0.000000e+00  0.000000e+00
   outer loop
     vertex -5.000000e+01  3.350000e+01  2.000000e+01
     vertex -5.000000e+01  3.750000e+01 -2.000000e+01
     vertex -5.000000e+01  3.350000e+01 -2.000000e+01
   endloop
 endfacet
 facet normal -1.000000e+00  0.000000e+00  0.000000e+00
   outer loop
     vertex -5.000000e+01  3.350000e+01  2.000000e+01
     vertex -5.000000e+01  3.750000e+01  2.000000e+01
     vertex -5.000000e+01  3.750000e+01 -2.000000e+01
   endloop
 endfacet
 facet normal -0.000000e+00 -1.000000e+00  0.000000e+00
   outer loop
     vertex -5.000000e+00  3.350000e+01  1.000000e+01
     vertex -5.000000e+01  3.350000e+01  2.000000e+01
     vertex -5.000000e+01  3.350000e+01 -2.000000e+01
   endloop
 endfacet
 facet normal  0.000000e+00 -1.000000e+00 -0.000000e+00
   outer loop
     vertex -5.000000e+00  3.350000e+01  1.000000e+01
     vertex -5.000000e+01  3.350000e+01 -2.000000e+01
     vertex -5.000000e+00  3.350000e+01 -1.000000e+01
   endloop
 endfacet
 facet normal  0.000000e+00 -1.000000e+00  0.000000e+00
   outer loop
     vertex  5.000000e+01  3.350000e+01 -2.000000e+01
     vertex  5.000000e+00  3.350000e+01  1.000000e+01
     vertex  5.000000e+00  3.350000e+01 -1.000000e+01
   endloop
 endfacet
 facet normal  0.000000e+00 -1.000000e+00 -0.000000e+00
   outer loop
     vertex  5.000000e+01  3.350000e+01  2.000000e+01
     vertex  5.000000e+00  3.350000e+01  1.000000e+01
     vertex  5.000000e+01  3.350000e+01 -2.000000e+01
   endloop
 endfacet
 facet normal  0.000000e+00 -1.000000e+00  0.000000e+00
   outer loop
     vertex  5.000000e+01  3.350000e+01 -2.000000e+01
     vertex -5.000000e+00  3.350000e+01 -1.000000e+01
     vertex -5.000000e+01  3.350000e+01 -2.000000e+01
   endloop
 endfacet
 facet normal  0.000000e+00 -1.000000e+00  0.000000e+00
   outer loop
     vertex  5.000000e+01  3.350000e+01 -2.000000e+01
     vertex  5.000000e+00  3.350000e+01 -1.000000e+01
     vertex -5.000000e+00  3.350000e+01 -1.000000e+01
   endloop
 endfacet
 facet normal  0.000000e+00 -1.000000e+00  0.000000e+00
   outer loop
     vertex -5.000000e+01  3.350000e+01  2.000000e+01
     vertex  5.000000e+00  3.350000e+01  1.000000e+01
     vertex  5.000000e+01  3.350000e+01  2.000000e+01
   endloop
 endfacet
 facet normal  0.000000e+00 -1.000000e+00  0.000000e+00
   outer loop
     vertex -5.000000e+01  3.350000e+01  2.000000e+01
     vertex -5.000000e+00  3.350000e+01  1.000000e+01
     vertex  5.000000e+00  3.350000e+01  1.000000e+01
   endloop
 endfacet
 facet normal  0.000000e+00  0.000000e+00  1.000000e+00
   outer loop
     vertex  5.000000e+01  3.750000e+01  2.000000e+01
     vertex -5.000000e+01  3.750000e+01  2.000000e+01
     vertex -5.000000e+01  3.350000e+01  2.000000e+01
   endloop
 endfacet
 facet normal  0.000000e+00  0.000000e+00  1.000000e+00
   outer loop
     vertex  5.000000e+01  3.750000e+01  2.000000e+01
     vertex -5.000000e+01  3.350000e+01  2.000000e+01
     vertex  5.000000e+01  3.350000e+01  2.000000e+01
   endloop
 endfacet
 facet normal  0.000000e+00  1.000000e+00  0.000000e+00
   outer loop
     vertex -5.000000e+00  3.750000e+01  1.000000e+01
     vertex -5.000000e+01  3.750000e+01 -2.000000e+01
     vertex -5.000000e+01  3.750000e+01  2.000000e+01
   endloop
 endfacet
 facet normal  0.000000e+00  1.000000e+00  0.000000e+00
   outer loop
     vertex -5.000000e+00  3.750000e+01  1.000000e+01
     vertex -5.000000e+00  3.750000e+01 -1.000000e+01
     vertex -5.000000e+01  3.750000e+01 -2.000000e+01
   endloop
 endfacet
 facet normal  0.000000e+00  1.000000e+00  0.000000e+00
   outer loop
     vertex  5.000000e+01  3.750000e+01 -2.000000e+01
     vertex  5.000000e+00  3.750000e+01 -1.000000e+01
     vertex  5.000000e+00  3.750000e+01  1.000000e+01
   endloop
 endfacet
 facet normal  0.000000e+00  1.000000e+00  0.000000e+00
   outer loop
     vertex  5.000000e+01  3.750000e+01  2.000000e+01
     vertex  5.000000e+01  3.750000e+01 -2.000000e+01
     vertex  5.000000e+00  3.750000e+01  1.000000e+01
   endloop
 endfacet
 facet normal  0.000000e+00  1.000000e+00  0.000000e+00
   outer loop
     vertex  5.000000e+01  3.750000e+01 -2.000000e+01
     vertex -5.000000e+01  3.750000e+01 -2.000000e+01
     vertex -5.000000e+00  3.750000e+01 -1.000000e+01
   endloop
 endfacet
 facet normal  0.000000e+00  1.000000e+00  0.000000e+00
   outer loop
     vertex  5.000000e+01  3.750000e+01 -2.000000e+01
     vertex -5.000000e+00  3.750000e+01 -1.000000e+01
     vertex  5.000000e+00  3.750000e+01 -1.000000e+01
   endloop
 endfacet
 facet normal -0.000000e+00  1.000000e+00  0.000000e+00
   outer loop
     vertex -5.000000e+01  3.750000e+01  2.000000e+01
     vertex  5.000000e+01  3.750000e+01  2.000000e+01
     vertex  5.000000e+00  3.750000e+01  1.000000e+01
   endloop
 endfacet
 facet normal  0.000000e+00  1.000000e+00  0.000000e+00
   outer loop
     vertex -5.000000e+01  3.750000e+01  2.000000e+01
     vertex  5.000000e+00  3.750000e+01  1.000000e+01
     vertex -5.000000e+00  3.750000e+01  1.000000e+01
   endloop
 endfacet
 facet normal -0.000000e+00  0.000000e+00 -1.000000e+00
   outer loop
     vertex  5.000000e+01  3.750000e+01 -2.000000e+01
     vertex -5.000000e+01  3.350000e+01 -2.000000e+01
     vertex -5.000000e+01  3.750000e+01 -2.000000e+01
   endloop
 endfacet
 facet normal  0.000000e+00 -0.000000e+00 -1.000000e+00
   outer loop
     vertex  5.000000e+01  3.750000e+01 -2.000000e+01
     vertex  5.000000e+01  3.350000e+01 -2.000000e+01
     vertex -5.000000e+01  3.350000e+01 -2.000000e+01
   endloop
 endfacet
 facet normal  1.000000e+00  0.000000e+00  0.000000e+00
   outer loop
     vertex  5.000000e+01  3.350000e+01  2.000000e+01
     vertex  5.000000e+01  3.350000e+01 -2.000000e+01
     vertex  5.000000e+01  3.750000e+01 -2.000000e+01
   endloop
 endfacet
 facet normal  1.000000e+00 -0.000000e+00  0.000000e+00
   outer loop
     vertex  5.000000e+01  3.350000e+01  2.000000e+01
     vertex  5.000000e+01  3.750000e+01 -2.000000e+01
     vertex  5.000000e+01  3.750000e+01  2.000000e+01
   endloop
 endfacet
 facet normal -0.000000e+00  0.000000e+00 -1.000000e+00
   outer loop
     vertex  5.000000e+00  3.750000e+01  1.000000e+01
     vertex -5.000000e+00  3.350000e+01  1.000000e+01
     vertex -5.000000e+00  3.750000e+01  1.000000e+01
   endloop
 endfacet
 facet normal  0.000000e+00 -0.000000e+00 -1.000000e+00
   outer loop
     vertex  5.000000e+00  3.750000e+01  1.000000e+01
     vertex  5.000000e+00  3.350000e+01  1.000000e+01
     vertex -5.000000e+00  3.350000e+01  1.000000e+01
   endloop
 endfacet
 facet normal -1.000000e+00  0.000000e+00 -0.000000e+00
   outer loop
     vertex  5.000000e+00  3.750000e+01  1.000000e+01
     vertex  5.000000e+00  3.750000e+01 -1.000000e+01
     vertex  5.000000e+00  3.350000e+01 -1.000000e+01
   endloop
 endfacet
 facet normal -1.000000e+00  0.000000e+00  0.000000e+00
   outer loop
     vertex  5.000000e+00  3.350000e+01  1.000000e+01
     vertex  5.000000e+00  3.750000e+01  1.000000e+01
     vertex  5.000000e+00  3.350000e+01 -1.000000e+01
   endloop
 endfacet
 facet normal  0.000000e+00  0.000000e+00  1.000000e+00
   outer loop
     vertex  5.000000e+00  3.750000e+01 -1.000000e+01
     vertex -5.000000e+00  3.750000e+01 -1.000000e+01
     vertex -5.000000e+00  3.350000e+01 -1.000000e+01
   endloop
 endfacet
 facet normal  0.000000e+00  0.000000e+00  1.000000e+00
   outer loop
     vertex  5.000000e+00  3.750000e+01 -1.000000e+01
     vertex -5.000000e+00  3.350000e+01 -1.000000e+01
     vertex  5.000000e+00  3.350000e+01 -1.000000e+01
   endloop
 endfacet
 facet normal  1.000000e+00  0.000000e+00  0.000000e+00
   outer loop
     vertex -5.000000e+00  3.750000e+01  1.000000e+01
     vertex -5.000000e+00  3.350000e+01 -1.000000e+01
     vertex -5.000000e+00  3.750000e+01 -1.000000e+01
   endloop
 endfacet
 facet normal  1.000000e+00 -0.000000e+00  0.000000e+00
   outer loop
     vertex -5.000000e+00  3.350000e+01  1.000000e+01
     vertex -5.000000e+00  3.350000e+01 -1.000000e+01
     vertex -5.000000e+00  3.750000e+01  1.000000e+01
   endloop
 endfacet
 facet normal -1.000000e+00  0.000000e+00  0.000000e+00
   outer loop
     vertex -5.000000e+01 -3.750000e+01  2.000000e+01
     vertex -5.000000e+01 -3.350000e+01 -2.000000e+01
     vertex -5.000000e+01 -3.750000e+01 -2.000000e+01
   endloop
 endfacet
 facet normal -1.000000e+00  0.000000e+00  0.000000e+00
   outer loop
     vertex -5.000000e+01 -3.750000e+01  2.000000e+01
     vertex -5.000000e+01 -3.350000e+01  2.000000e+01
     vertex -5.000000e+01 -3.350000e+01 -2.000000e+01
   endloop
 endfacet
 facet normal -0.000000e+00 -1.000000e+00  0.000000e+00
   outer loop
     vertex -5.000000e+00 -3.750000e+01  1.000000e+01
     vertex -5.000000e+01 -3.750000e+01  2.000000e+01
     vertex -5.000000e+01 -3.750000e+01 -2.000000e+01
   endloop
 endfacet
 facet normal  0.000000e+00 -1.000000e+00 -0.000000e+00
   outer loop
     vertex -5.000000e+00 -3.750000e+01  1.000000e+01
     vertex -5.000000e+01 -3.750000e+01 -2.000000e+01
     vertex -5.000000e+00 -3.750000e+01 -1.000000e+01
   endloop
 endfacet
 facet normal  0.000000e+00 -1.000000e+00  0.000000e+00
   outer loop
     vertex  5.000000e+01 -3.750000e+01 -2.000000e+01
     vertex  5.000000e+00 -3.750000e+01  1.000000e+01
     vertex  5.000000e+00 -3.750000e+01 -1.000000e+01
   endloop
 endfacet
 facet normal  0.000000e+00 -1.000000e+00 -0.000000e+00
   outer loop
     vertex  5.000000e+01 -3.750000e+01  2.000000e+01
     vertex  5.000000e+00 -3.750000e+01  1.000000e+01
     vertex  5.000000e+01 -3.750000e+01 -2.000000e+01
   endloop
 endfacet
 facet normal  0.000000e+00 -1.000000e+00  0.000000e+00
   outer loop
     vertex  5.000000e+01 -3.750000e+01 -2.000000e+01
     vertex -5.000000e+00 -3.750000e+01 -1.000000e+01
     vertex -5.000000e+01 -3.750000e+01 -2.000000e+01
   endloop
 endfacet
 facet normal  0.000000e+00 -1.000000e+00  0.000000e+00
   outer loop
     vertex  5.000000e+01 -3.750000e+01 -2.000000e+01
     vertex  5.000000e+00 -3.750000e+01 -1.000000e+01
     vertex -5.000000e+00 -3.750000e+01 -1.000000e+01
   endloop
 endfacet
 facet normal  0.000000e+00 -1.000000e+00  0.000000e+00
   outer loop
     vertex -5.000000e+01 -3.750000e+01  2.000000e+01
     vertex  5.000000e+00 -3.750000e+01  1.000000e+01
     vertex  5.000000e+01 -3.750000e+01  2.000000e+01
   endloop
 endfacet
 facet normal  0.000000e+00 -1.000000e+00  0.000000e+00
   outer loop
     vertex -5.000000e+01 -3.750000e+01  2.000000e+01
     vertex -5.000000e+00 -3.750000e+01  1.000000e+01
     vertex  5.000000e+00 -3.750000e+01  1.000000e+01
   endloop
 endfacet
 facet normal  0.000000e+00  0.000000e+00  1.000000e+00
   outer loop
     vertex  5.000000e+01 -3.350000e+01  2.000000e+01
     vertex -5.000000e+01 -3.350000e+01  2.000000e+01
     vertex -5.000000e+01 -3.750000e+01  2.000000e+01
   endloop
 endfacet
 facet normal  0.000000e+00  0.000000e+00  1.000000e+00
   outer loop
     vertex  5.000000e+01 -3.350000e+01  2.000000e+01
     vertex -5.000000e+01 -3.750000e+01  2.000000e+01
     vertex  5.000000e+01 -3.750000e+01  2.000000e+01
   endloop
 endfacet
 facet normal  0.000000e+00  1.000000e+00  0.000000e+00
   outer loop
     vertex -5.000000e+00 -3.350000e+01  1.000000e+01
     vertex -5.000000e+01 -3.350000e+01 -2.000000e+01
     vertex -5.000000e+01 -3.350000e+01  2.000000e+01
   endloop
 endfacet
 facet normal  0.000000e+00  1.000000e+00  0.000000e+00
   outer loop
     vertex -5.000000e+00 -3.350000e+01  1.000000e+01
     vertex -5.000000e+00 -3.350000e+01 -1.000000e+01
     vertex -5.000000e+01 -3.350000e+01 -2.000000e+01
   endloop
 endfacet
 facet normal  0.000000e+00  1.000000e+00  0.000000e+00
   outer loop
     vertex  5.000000e+01 -3.350000e+01 -2.000000e+01
     vertex  5.000000e+00 -3.350000e+01 -1.000000e+01
     vertex  5.000000e+00 -3.350000e+01  1.000000e+01
   endloop
 endfacet
 facet normal  0.000000e+00  1.000000e+00  0.000000e+00
   outer loop
     vertex  5.000000e+01 -3.350000e+01  2.000000e+01
     vertex  5.000000e+01 -3.350000e+01 -2.000000e+01
     vertex  5.000000e+00 -3.350000e+01  1.000000e+01
   endloop
 endfacet
 facet normal  0.000000e+00  1.000000e+00  0.000000e+00
   outer loop
     vertex  5.000000e+01 -3.350000e+01 -2.000000e+01
     vertex -5.000000e+01 -3.350000e+01 -2.000000e+01
     vertex -5.000000e+00 -3.350000e+01 -1.000000e+01
   endloop
 endfacet
 facet normal  0.000000e+00  1.000000e+00  0.000000e+00
   outer loop
     vertex  5.000000e+01 -3.350000e+01 -2.000000e+01
     vertex -5.000000e+00 -3.350000e+01 -1.000000e+01
     vertex  5.000000e+00 -3.350000e+01 -1.000000e+01
   endloop
 endfacet
 facet normal -0.000000e+00  1.000000e+00  0.000000e+00
   outer loop
     vertex -5.000000e+01 -3.350000e+01  2.000000e+01
     vertex  5.000000e+01 -3.350000e+01  2.000000e+01
     vertex  5.000000e+00 -3.350000e+01  1.000000e+01
   endloop
 endfacet
 facet normal  0.000000e+00  1.000000e+00  0.000000e+00
   outer loop
     vertex -5.000000e+01 -3.350000e+01  2.000000e+01
     vertex  5.000000e+00 -3.350000e+01  1.000000e+01
     vertex -5.000000e+00 -3.350000e+01  1.000000e+01
   endloop
 endfacet
 facet normal -0.000000e+00  0.000000e+00 -1.000000e+00
   outer loop
     vertex  5.000000e+01 -3.350000e+01 -2.000000e+01
     vertex -5.000000e+01 -3.750000e+01 -2.000000e+01
     vertex -5.000000e+01 -3.350000e+01 -2.000000e+01
   endloop
 endfacet
 facet normal  0.000000e+00 -0.000000e+00 -1.000000e+00
   outer loop
     vertex  5.000000e+01 -3.350000e+01 -2.000000e+01
     vertex  5.000000e+01 -3.750000e+01 -2.000000e+01
     vertex -5.000000e+01 -3.750000e+01 -2.000000e+01
   endloop
 endfacet
 facet normal  1.000000e+00  0.000000e+00  0.000000e+00
   outer loop
     vertex  5.000000e+01 -3.750000e+01  2.000000e+01
     vertex  5.000000e+01 -3.750000e+01 -2.000000e+01
     vertex  5.000000e+01 -3.350000e+01 -2.000000e+01
   endloop
 endfacet
 facet normal  1.000000e+00 -0.000000e+00  0.000000e+00
   outer loop
     vertex  5.000000e+01 -3.750000e+01  2.000000e+01
     vertex  5.000000e+01 -3.350000e+01 -2.000000e+01
     vertex  5.000000e+01 -3.350000e+01  2.000000e+01
   endloop
 endfacet
 facet normal -0.000000e+00  0.000000e+00 -1.000000e+00
   outer loop
     vertex  5.000000e+00 -3.350000e+01  1.000000e+01
     vertex -5.000000e+00 -3.750000e+01  1.000000e+01
     vertex -5.000000e+00 -3.350000e+01  1.000000e+01
   endloop
 endfacet
 facet normal  0.000000e+00 -0.000000e+00 -1.000000e+00
   outer loop
     vertex  5.000000e+00 -3.350000e+01  1.000000e+01
     vertex  5.000000e+00 -3.750000e+01  1.000000e+01
     vertex -5.000000e+00 -3.750000e+01  1.000000e+01
   endloop
 endfacet
 facet normal -1.000000e+00  0.000000e+00 -0.000000e+00
   outer loop
     vertex  5.000000e+00 -3.350000e+01  1.000000e+01
     vertex  5.000000e+00 -3.350000e+01 -1.000000e+01
     vertex  5.000000e+00 -3.750000e+01 -1.000000e+01
   endloop
 endfacet
 facet normal -1.000000e+00  0.000000e+00  0.000000e+00
   outer loop
     vertex  5.000000e+00 -3.750000e+01  1.000000e+01
     vertex  5.000000e+00 -3.350000e+01  1.000000e+01
     vertex  5.000000e+00 -3.750000e+01 -1.000000e+01
   endloop
 endfacet
 facet normal  0.000000e+00  0.000000e+00  1.000000e+00
   outer loop
     vertex  5.000000e+00 -3.350000e+01 -1.000000e+01
     vertex -5.000000e+00 -3.350000e+01 -1.000000e+01
     vertex -5.000000e+00 -3.750000e+01 -1.000000e+01
   endloop
 endfacet
 facet normal  0.000000e+00  0.000000e+00  1.000000e+00
   outer loop
     vertex  5.000000e+00 -3.350000e+01 -1.000000e+01
     vertex -5.000000e+00 -3.750000e+01 -1.000000e+01
     vertex  5.000000e+00 -3.750000e+01 -1.000000e+01
   endloop
 endfacet
 facet normal  1.000000e+00  0.000000e+00  0.000000e+00
   outer loop
     vertex -5.000000e+00 -3.350000e+01  1.000000e+01
     vertex -5.000000e+00 -3.750000e+01 -1.000000e+01
     vertex -5.000000e+00 -3.350000e+01 -1.000000e+01
   endloop
 endfacet
 facet normal  1.000000e+00 -0.000000e+00  0.000000e+00
   outer loop
     vertex -5.000000e+00 -3.750000e+01  1.000000e+01
     vertex -5.000000e+00 -3.750000e+01 -1.000000e+01
     vertex -5.000000e+00 -3.350000e+01  1.000000e+01
   endloop
 endfacet
 facet normal  0.000000e+00 -1.000000e+00 -0.000000e+00
   outer loop
     vertex  5.000000e+01 -3.750000e+01  2.000000e+01
     vertex  4.600000e+01 -3.750000e+01 -2.000000e+01
     vertex  5.000000e+01 -3.750000e+01 -2.000000e+01
   endloop
 endfacet
 facet normal -0.000000e+00 -1.000000e+00  0.000000e+00
   outer loop
     vertex  5.000000e+01 -3.750000e+01  2.000000e+01
     vertex  4.600000e+01 -3.750000e+01  2.000000e+01
     vertex  4.600000e+01 -3.750000e+01 -2.000000e+01
   endloop
 endfacet
 facet normal  1.000000e+00 -2.186285e-16  0.000000e+00
   outer loop
     vertex  5.000000e+01 -5.000000e+00  1.000000e+01
     vertex  5.000000e+01 -3.750000e+01  2.000000e+01
     vertex  5.000000e+01 -3.750000e+01 -2.000000e+01
   endloop
 endfacet
 facet normal  1.000000e+00 -2.186285e-16  0.000000e+00
   outer loop
     vertex  5.000000e+01 -5.000000e+00  1.000000e+01
     vertex  5.000000e+01 -3.750000e+01 -2.000000e+01
     vertex  5.000000e+01 -5.000000e+00 -1.000000e+01
   endloop
 endfacet
 facet normal  1.000000e+00  0.000000e+00  7.105427e-16
   outer loop
     vertex  5.000000e+01  3.750000e+01 -2.000000e+01
     vertex  5.000000e+01  5.000000e+00 -1.000000e+01
     vertex  5.000000e+01 -5.000000e+00 -1.000000e+01
   endloop
 endfacet
 facet normal  1.000000e+00 -1.894781e-16 -9.473903e-17
   outer loop
     vertex  5.000000e+01  3.750000e+01 -2.000000e+01
     vertex  5.000000e+01 -5.000000e+00 -1.000000e+01
     vertex  5.000000e+01 -3.750000e+01 -2.000000e+01
   endloop
 endfacet
 facet normal  1.000000e+00  0.000000e+00 -7.105427e-16
   outer loop
     vertex  5.000000e+01  3.750000e+01  2.000000e+01
     vertex  5.000000e+01 -5.000000e+00  1.000000e+01
     vertex  5.000000e+01  5.000000e+00  1.000000e+01
   endloop
 endfacet
 facet normal  1.000000e+00 -2.186285e-16  0.000000e+00
   outer loop
     vertex  5.000000e+01  3.750000e+01  2.000000e+01
     vertex  5.000000e+01  5.000000e+00  1.000000e+01
     vertex  5.000000e+01  5.000000e+00 -1.000000e+01
   endloop
 endfacet
 facet normal  1.000000e+00 -1.894781e-16  9.473903e-17
   outer loop
     vertex  5.000000e+01  3.750000e+01  2.000000e+01
     vertex  5.000000e+01 -3.750000e+01  2.000000e+01
     vertex  5.000000e+01 -5.000000e+00  1.000000e+01
   endloop
 endfacet
 facet normal  1.000000e+00 -2.186285e-16  0.000000e+00
   outer loop
     vertex  5.000000e+01  3.750000e+01  2.000000e+01
     vertex  5.000000e+01  5.000000e+00 -1.000000e+01
     vertex  5.000000e+01  3.750000e+01 -2.000000e+01
   endloop
 endfacet
 facet normal  0.000000e+00  0.000000e+00  1.000000e+00
   outer loop
     vertex  5.000000e+01  3.750000e+01  2.000000e+01
     vertex  4.600000e+01 -3.750000e+01  2.000000e+01
     vertex  5.000000e+01 -3.750000e+01  2.000000e+01
   endloop
 endfacet
 facet normal -0.000000e+00  0.000000e+00  1.000000e+00
   outer loop
     vertex  4.600000e+01  3.750000e+01  2.000000e+01
     vertex  4.600000e+01 -3.750000e+01  2.000000e+01
     vertex  5.000000e+01  3.750000e+01  2.000000e+01
   endloop
 endfacet
 facet normal -1.000000e+00  2.186285e-16  0.000000e+00
   outer loop
     vertex  4.600000e+01 -5.000000e+00  1.000000e+01
     vertex  4.600000e+01 -3.750000e+01 -2.000000e+01
     vertex  4.600000e+01 -3.750000e+01  2.000000e+01
   endloop
 endfacet
 facet normal -1.000000e+00  2.186285e-16  0.000000e+00
   outer loop
     vertex  4.600000e+01 -5.000000e+00  1.000000e+01
     vertex  4.600000e+01 -5.000000e+00 -1.000000e+01
     vertex  4.600000e+01 -3.750000e+01 -2.000000e+01
   endloop
 endfacet
 facet normal -1.000000e+00  0.000000e+00 -7.105427e-16
   outer loop
     vertex  4.600000e+01  3.750000e+01 -2.000000e+01
     vertex  4.600000e+01 -5.000000e+00 -1.000000e+01
     vertex  4.600000e+01  5.000000e+00 -1.000000e+01
   endloop
 endfacet
 facet normal -1.000000e+00  1.894781e-16  9.473903e-17
   outer loop
     vertex  4.600000e+01  3.750000e+01 -2.000000e+01
     vertex  4.600000e+01 -3.750000e+01 -2.000000e+01
     vertex  4.600000e+01 -5.000000e+00 -1.000000e+01
   endloop
 endfacet
 facet normal -1.000000e+00  0.000000e+00  7.105427e-16
   outer loop
     vertex  4.600000e+01  3.750000e+01  2.000000e+01
     vertex  4.600000e+01  5.000000e+00  1.000000e+01
     vertex  4.600000e+01 -5.000000e+00  1.000000e+01
   endloop
 endfacet
 facet normal -1.000000e+00  2.186285e-16  0.000000e+00
   outer loop
     vertex  4.600000e+01  3.750000e+01  2.000000e+01
     vertex  4.600000e+01  5.000000e+00 -1.000000e+01
     vertex  4.600000e+01  5.000000e+00  1.000000e+01
   endloop
 endfacet
 facet normal -1.000000e+00  1.894781e-16 -9.473903e-17
   outer loop
     vertex  4.600000e+01  3.750000e+01  2.000000e+01
     vertex  4.600000e+01 -5.000000e+00  1.000000e+01
     vertex  4.600000e+01 -3.750000e+01  2.000000e+01
   endloop
 endfacet
 facet normal -1.000000e+00  2.186285e-16  0.000000e+00
   outer loop
     vertex  4.600000e+01  3.750000e+01  2.000000e+01
     vertex  4.600000e+01  3.750000e+01 -2.000000e+01
     vertex  4.600000e+01  5.000000e+00 -1.000000e+01
   endloop
 endfacet
 facet normal  0.000000e+00  0.000000e+00 -1.000000e+00
   outer loop
     vertex  5.000000e+01  3.750000e+01 -2.000000e+01
     vertex  5.000000e+01 -3.750000e+01 -2.000000e+01
     vertex  4.600000e+01 -3.750000e+01 -2.000000e+01
   endloop
 endfacet
 facet normal  0.000000e+00 -0.000000e+00 -1.000000e+00
   outer loop
     vertex  4.600000e+01  3.750000e+01 -2.000000e+01
     vertex  5.000000e+01  3.750000e+01 -2.000000e+01
     vertex  4.600000e+01 -3.750000e+01 -2.000000e+01
   endloop
 endfacet
 facet normal  0.000000e+00  1.000000e+00  0.000000e+00
   outer loop
     vertex  5.000000e+01  3.750000e+01  2.000000e+01
     vertex  5.000000e+01  3.750000e+01 -2.000000e+01
     vertex  4.600000e+01  3.750000e+01 -2.000000e+01
   endloop
 endfacet
 facet normal  0.000000e+00  1.000000e+00  0.000000e+00
   outer loop
     vertex  5.000000e+01  3.750000e+01  2.000000e+01
     vertex  4.600000e+01  3.750000e+01 -2.000000e+01
     vertex  4.600000e+01  3.750000e+01  2.000000e+01
   endloop
 endfacet
 facet normal  0.000000e+00  0.000000e+00 -1.000000e+00
   outer loop
     vertex  4.600000e+01  5.000000e+00  1.000000e+01
     vertex  5.000000e+01 -5.000000e+00  1.000000e+01
     vertex  4.600000e+01 -5.000000e+00  1.000000e+01
   endloop
 endfacet
 facet normal  0.000000e+00  0.000000e+00 -1.000000e+00
   outer loop
     vertex  4.600000e+01  5.000000e+00  1.000000e+01
     vertex  5.000000e+01  5.000000e+00  1.000000e+01
     vertex  5.000000e+01 -5.000000e+00  1.000000e+01
   endloop
 endfacet
 facet normal  0.000000e+00 -1.000000e+00  0.000000e+00
   outer loop
     vertex  4.600000e+01  5.000000e+00  1.000000e+01
     vertex  4.600000e+01  5.000000e+00 -1.000000e+01
     vertex  5.000000e+01  5.000000e+00 -1.000000e+01
   endloop
 endfacet
 facet normal -0.000000e+00 -1.000000e+00 -0.000000e+00
   outer loop
     vertex  5.000000e+01  5.000000e+00  1.000000e+01
     vertex  4.600000e+01  5.000000e+00  1.000000e+01
     vertex  5.000000e+01  5.000000e+00 -1.000000e+01
   endloop
 endfacet
 facet normal  0.000000e+00  0.000000e+00  1.000000e+00
   outer loop
     vertex  4.600000e+01  5.000000e+00 -1.000000e+01
     vertex  4.600000e+01 -5.000000e+00 -1.000000e+01
     vertex  5.000000e+01 -5.000000e+00 -1.000000e+01
   endloop
 endfacet
 facet normal -0.000000e+00  0.000000e+00  1.000000e+00
   outer loop
     vertex  4.600000e+01  5.000000e+00 -1.000000e+01
     vertex  5.000000e+01 -5.000000e+00 -1.000000e+01
     vertex  5.000000e+01  5.000000e+00 -1.000000e+01
   endloop
 endfacet
 facet normal  0.000000e+00  1.000000e+00  0.000000e+00
   outer loop
     vertex  4.600000e+01 -5.000000e+00  1.000000e+01
     vertex  5.000000e+01 -5.000000e+00 -1.000000e+01
     vertex  4.600000e+01 -5.000000e+00 -1.000000e+01
   endloop
 endfacet
 facet normal  0.000000e+00  1.000000e+00  0.000000e+00
   outer loop
     vertex  5.000000e+01 -5.000000e+00  1.000000e+01
     vertex  5.000000e+01 -5.000000e+00 -1.000000e+01
     vertex  4.600000e+01 -5.000000e+00  1.000000e+01
   endloop
 endfacet
 facet normal  0.000000e+00 -1.000000e+00 -0.000000e+00
   outer loop
     vertex -4.600000e+01 -3.750000e+01  2.000000e+01
     vertex -5.000000e+01 -3.750000e+01 -2.000000e+01
     vertex -4.600000e+01 -3.750000e+01 -2.000000e+01
   endloop
 endfacet
 facet normal -0.000000e+00 -1.000000e+00  0.000000e+00
   outer loop
     vertex -4.600000e+01 -3.750000e+01  2.000000e+01
     vertex -5.000000e+01 -3.750000e+01  2.000000e+01
     vertex -5.000000e+01 -3.750000e+01 -2.000000e+01
   endloop
 endfacet
 facet normal  1.000000e+00 -2.186285e-16  0.000000e+00
   outer loop
     vertex -4.600000e+01 -5.000000e+00  1.000000e+01
     vertex -4.600000e+01 -3.750000e+01  2.000000e+01
     vertex -4.600000e+01 -3.750000e+01 -2.000000e+01
   endloop
 endfacet
 facet normal  1.000000e+00 -2.186285e-16  0.000000e+00
   outer loop
     vertex -4.600000e+01 -5.000000e+00  1.000000e+01
     vertex -4.600000e+01 -3.750000e+01 -2.000000e+01
     vertex -4.600000e+01 -5.000000e+00 -1.000000e+01
   endloop
 endfacet
 facet normal  1.000000e+00  0.000000e+00  7.105427e-16
   outer loop
     vertex -4.600000e+01  3.750000e+01 -2.000000e+01
     vertex -4.600000e+01  5.000000e+00 -1.000000e+01
     vertex -4.600000e+01 -5.000000e+00 -1.000000e+01
   endloop
 endfacet
 facet normal  1.000000e+00 -1.894781e-16 -9.473903e-17
   outer loop
     vertex -4.600000e+01  3.750000e+01 -2.000000e+01
     vertex -4.600000e+01 -5.000000e+00 -1.000000e+01
     vertex -4.600000e+01 -3.750000e+01 -2.000000e+01
   endloop
 endfacet
 facet normal  1.000000e+00  0.000000e+00 -7.105427e-16
   outer loop
     vertex -4.600000e+01  3.750000e+01  2.000000e+01
     vertex -4.600000e+01 -5.000000e+00  1.000000e+01
     vertex -4.600000e+01  5.000000e+00  1.000000e+01
   endloop
 endfacet
 facet normal  1.000000e+00 -2.186285e-16  0.000000e+00
   outer loop
     vertex -4.600000e+01  3.750000e+01  2.000000e+01
     vertex -4.600000e+01  5.000000e+00  1.000000e+01
     vertex -4.600000e+01  5.000000e+00 -1.000000e+01
   endloop
 endfacet
 facet normal  1.000000e+00 -1.894781e-16  9.473903e-17
   outer loop
     vertex -4.600000e+01  3.750000e+01  2.000000e+01
     vertex -4.600000e+01 -3.750000e+01  2.000000e+01
     vertex -4.600000e+01 -5.000000e+00  1.000000e+01
   endloop
 endfacet
 facet normal  1.000000e+00 -2.186285e-16  0.000000e+00
   outer loop
     vertex -4.600000e+01  3.750000e+01  2.000000e+01
     vertex -4.600000e+01  5.000000e+00 -1.000000e+01
     vertex -4.600000e+01  3.750000e+01 -2.000000e+01
   endloop
 endfacet
 facet normal  0.000000e+00  0.000000e+00  1.000000e+00
   outer loop
     vertex -4.600000e+01  3.750000e+01  2.000000e+01
     vertex -5.000000e+01 -3.750000e+01  2.000000e+01
     vertex -4.600000e+01 -3.750000e+01  2.000000e+01
   endloop
 endfacet
 facet normal -0.000000e+00  0.000000e+00  1.000000e+00
   outer loop
     vertex -5.000000e+01  3.750000e+01  2.000000e+01
     vertex -5.000000e+01 -3.750000e+01  2.000000e+01
     vertex -4.600000e+01  3.750000e+01  2.000000e+01
   endloop
 endfacet
 facet normal -1.000000e+00  2.186285e-16  0.000000e+00
   outer loop
     vertex -5.000000e+01 -5.000000e+00  1.000000e+01
     vertex -5.000000e+01 -3.750000e+01 -2.000000e+01
     vertex -5.000000e+01 -3.750000e+01  2.000000e+01
   endloop
 endfacet
 facet normal -1.000000e+00  2.186285e-16  0.000000e+00
   outer loop
     vertex -5.000000e+01 -5.000000e+00  1.000000e+01
     vertex -5.000000e+01 -5.000000e+00 -1.000000e+01
     vertex -5.000000e+01 -3.750000e+01 -2.000000e+01
   endloop
 endfacet
 facet normal -1.000000e+00  0.000000e+00 -7.105427e-16
   outer loop
     vertex -5.000000e+01  3.750000e+01 -2.000000e+01
     vertex -5.000000e+01 -5.000000e+00 -1.000000e+01
     vertex -5.000000e+01  5.000000e+00 -1.000000e+01
   endloop
 endfacet
 facet normal -1.000000e+00  1.894781e-16  9.473903e-17
   outer loop
     vertex -5.000000e+01  3.750000e+01 -2.000000e+01
     vertex -5.000000e+01 -3.750000e+01 -2.000000e+01
     vertex -5.000000e+01 -5.000000e+00 -1.000000e+01
   endloop
 endfacet
 facet normal -1.000000e+00  0.000000e+00  7.105427e-16
   outer loop
     vertex -5.000000e+01  3.750000e+01  2.000000e+01
     vertex -5.000000e+01  5.000000e+00  1.000000e+01
     vertex -5.000000e+01 -5.000000e+00  1.000000e+01
   endloop
 endfacet
 facet normal -1.000000e+00  2.186285e-16  0.000000e+00
   outer loop
     vertex -5.000000e+01  3.750000e+01  2.000000e+01
     vertex -5.000000e+01  5.000000e+00 -1.000000e+01
     vertex -5.000000e+01  5.000000e+00  1.000000e+01
   endloop
 endfacet
 facet normal -1.000000e+00  1.894781e-16 -9.473903e-17
   outer loop
     vertex -5.000000e+01  3.750000e+01  2.000000e+01
     vertex -5.000000e+01 -5.000000e+00  1.000000e+01
     vertex -5.000000e+01 -3.750000e+01  2.000000e+01
   endloop
 endfacet
 facet normal -1.000000e+00  2.186285e-16  0.000000e+00
   outer loop
     vertex -5.000000e+01  3.750000e+01  2.000000e+01
     vertex -5.000000e+01  3.750000e+01 -2.000000e+01
     vertex -5.000000e+01  5.000000e+00 -1.000000e+01
   endloop
 endfacet
 facet normal  0.000000e+00  0.000000e+00 -1.000000e+00
   outer loop
     vertex -4.600000e+01  3.750000e+01 -2.000000e+01
     vertex -4.600000e+01 -3.750000e+01 -2.000000e+01
     vertex -5.000000e+01 -3.750000e+01 -2.000000e+01
   endloop
 endfacet
 facet normal  0.000000e+00 -0.000000e+00 -1.000000e+00
   outer loop
     vertex -5.000000e+01  3.750000e+01 -2.000000e+01
     vertex -4.600000e+01  3.750000e+01 -2.000000e+01
     vertex -5.000000e+01 -3.750000e+01 -2.000000e+01
   endloop
 endfacet
 facet normal  0.000000e+00  1.000000e+00  0.000000e+00
   outer loop
     vertex -4.600000e+01  3.750000e+01  2.000000e+01
     vertex -4.600000e+01  3.750000e+01 -2.000000e+01
     vertex -5.000000e+01  3.750000e+01 -2.000000e+01
   endloop
 endfacet
 facet normal  0.000000e+00  1.000000e+00  0.000000e+00
   outer loop
     vertex -4.600000e+01  3.750000e+01  2.000000e+01
     vertex -5.000000e+01  3.750000e+01 -2.000000e+01
     vertex -5.000000e+01  3.750000e+01  2.000000e+01
   endloop
 endfacet
 facet normal  0.000000e+00  0.000000e+00 -1.000000e+00
   outer loop
     vertex -5.000000e+01  5.000000e+00  1.000000e+01
     vertex -4.600000e+01 -5.000000e+00  1.000000e+01
     vertex -5.000000e+01 -5.000000e+00  1.000000e+01
   endloop
 endfacet
 facet normal  0.000000e+00  0.000000e+00 -1.000000e+00
   outer loop
     vertex -5.000000e+01  5.000000e+00  1.000000e+01
     vertex -4.600000e+01  5.000000e+00  1.000000e+01
     vertex -4.600000e+01 -5.000000e+00  1.000000e+01
   endloop
 endfacet
 facet normal  0.000000e+00 -1.000000e+00  0.000000e+00
   outer loop
     vertex -5.000000e+01  5.000000e+00  1.000000e+01
     vertex -5.000000e+01  5.000000e+00 -1.000000e+01
     vertex -4.600000e+01  5.000000e+00 -1.000000e+01
   endloop
 endfacet
 facet normal -0.000000e+00 -1.000000e+00 -0.000000e+00
   outer loop
     vertex -4.600000e+01  5.000000e+00  1.000000e+01
     vertex -5.000000e+01  5.000000e+00  1.000000e+01
     vertex -4.600000e+01  5.000000e+00 -1.000000e+01
   endloop
 endfacet
 facet normal  0.000000e+00  0.000000e+00  1.000000e+00
   outer loop
     vertex -5.000000e+01  5.000000e+00 -1.000000e+01
     vertex -5.000000e+01 -5.000000e+00 -1.000000e+01
     vertex -4.600000e+01 -5.000000e+00 -1.000000e+01
   endloop
 endfacet
 facet normal -0.000000e+00  0.000000e+00  1.000000e+00
   outer loop
     vertex -5.000000e+01  5.000000e+00 -1.000000e+01
     vertex -4.600000e+01 -5.000000e+00 -1.000000e+01
     vertex -4.600000e+01  5.000000e+00 -1.000000e+01
   endloop
 endfacet
 facet normal  0.000000e+00  1.000000e+00  0.000000e+00
   outer loop
     vertex -5.000000e+01 -5.000000e+00  1.000000e+01
     vertex -4.600000e+01 -5.000000e+00 -1.000000e+01
     vertex -5.000000e+01 -5.000000e+00 -1.000000e+01
   endloop
 endfacet
 facet normal  0.000000e+00  1.000000e+00  0.000000e+00
   outer loop
     vertex -4.600000e+01 -5.000000e+00  1.000000e+01
     vertex -4.600000e+01 -5.000000e+00 -1.000000e+01
     vertex -5.000000e+01 -5.000000e+00  1.000000e+01
   endloop
 endfacet
endsolid
